<svg width="470" height="440" viewBox="0 0 470 440" fill="none" xmlns="http://www.w3.org/2000/svg">
<circle cx="220" cy="220" r="220" fill="#DBF8FF" fill-opacity="0.65"/>
<g clip-path="url(#clip0_2_101)">
<g clip-path="url(#clip1_2_101)">
<path d="M304.696 339.962C304.104 339.434 303.383 339.068 302.6 338.896C301.638 338.705 300.66 338.592 299.675 338.559L298.732 333.221C300.224 333.142 301.695 333.48 302.98 334.194L303.67 331.661C302.941 331.234 302.138 330.939 301.298 330.789C300.367 330.618 299.412 330.572 298.46 330.652L297.983 327.946L295.441 328.462L295.924 331.194C294.961 331.502 294.07 332.008 293.309 332.678C292.621 333.282 292.086 334.038 291.749 334.882C291.43 335.703 291.346 336.589 291.507 337.441C291.626 338.375 292.059 339.233 292.735 339.877C293.35 340.43 294.102 340.813 294.919 340.991C295.897 341.19 296.893 341.307 297.896 341.341L298.799 346.457C297.061 346.677 295.313 346.365 293.791 345.562L293.102 348.098C293.954 348.555 294.886 348.858 295.854 348.993C296.915 349.143 297.996 349.146 299.067 349.002L299.54 351.685L302.082 351.169L301.599 348.437C302.984 347.998 304.202 347.13 305.071 345.963C305.452 345.437 305.721 344.842 305.861 344.215C306.001 343.588 306.01 342.942 305.886 342.32C305.77 341.416 305.351 340.585 304.696 339.962ZM297.384 338.439C296.732 338.379 296.102 338.191 295.532 337.885C295.304 337.751 295.11 337.568 294.964 337.349C294.818 337.13 294.723 336.88 294.688 336.617C294.565 336.028 294.683 335.409 295.018 334.893C295.393 334.348 295.927 333.928 296.546 333.692L297.384 338.439ZM302.419 344.745C302.066 345.267 301.558 345.668 300.968 345.889L300.192 341.488C300.799 341.524 301.389 341.682 301.926 341.952C302.132 342.067 302.308 342.227 302.44 342.421C302.573 342.615 302.659 342.837 302.692 343.071C302.816 343.637 302.719 344.235 302.419 344.745Z" fill="#DD4F05"/>
</g>
<g clip-path="url(#clip2_2_101)">
<path d="M281.209 309.98C280.641 309.423 279.937 309.021 279.162 308.81C278.21 308.571 277.237 308.409 276.255 308.327L275.546 302.947C277.04 302.944 278.495 303.354 279.747 304.133L280.546 301.637C279.837 301.174 279.048 300.839 278.215 300.647C277.292 300.429 276.341 300.335 275.387 300.368L275.028 297.641L272.466 298.028L272.829 300.782C271.854 301.041 270.942 301.502 270.152 302.133C269.439 302.702 268.871 303.43 268.498 304.256C268.143 305.06 268.021 305.941 268.144 306.8C268.223 307.739 268.617 308.618 269.265 309.296C269.856 309.878 270.59 310.299 271.398 310.517C272.366 310.766 273.356 310.933 274.356 311.016L275.035 316.172C273.289 316.305 271.557 315.905 270.071 315.027L269.272 317.526C270.104 318.025 271.022 318.374 271.982 318.557C273.036 318.761 274.116 318.818 275.191 318.728L275.547 321.432L278.108 321.044L277.746 318.29C279.148 317.922 280.403 317.116 281.322 315.993C281.725 315.487 282.02 314.906 282.187 314.287C282.355 313.667 282.391 313.023 282.295 312.395C282.219 311.486 281.836 310.636 281.209 309.98ZM273.971 308.092C273.323 307.999 272.702 307.78 272.146 307.445C271.924 307.301 271.738 307.108 271.601 306.882C271.465 306.656 271.382 306.401 271.358 306.137C271.261 305.543 271.406 304.93 271.763 304.432C272.162 303.906 272.713 303.513 273.341 303.308L273.971 308.092ZM278.726 314.643C278.351 315.147 277.826 315.522 277.227 315.714L276.643 311.279C277.248 311.345 277.831 311.532 278.356 311.829C278.556 311.954 278.725 312.123 278.849 312.323C278.973 312.523 279.049 312.75 279.072 312.985C279.171 313.557 279.047 314.149 278.726 314.643Z" fill="#DD4F05"/>
</g>
<g clip-path="url(#clip3_2_101)">
<path d="M307.349 134.525C306.608 134.303 305.81 134.284 305.03 134.47C304.079 134.717 303.144 135.043 302.232 135.445L299.336 130.985C300.668 130.26 302.139 129.923 303.584 130.013L303.248 127.399C302.42 127.328 301.575 127.411 300.751 127.642C299.835 127.894 298.947 128.27 298.109 128.76L296.641 126.5L294.518 128.084L296 130.367C295.24 131.069 294.619 131.922 294.18 132.867C293.782 133.719 293.582 134.644 293.596 135.562C293.618 136.451 293.88 137.296 294.351 138.003C294.816 138.803 295.538 139.397 296.401 139.689C297.173 139.923 298.005 139.943 298.819 139.748C299.788 139.501 300.741 139.172 301.669 138.763L304.444 143.036C302.942 143.999 301.228 144.479 299.532 144.414L299.87 147.03C300.823 147.074 301.789 146.942 302.723 146.641C303.749 146.313 304.737 145.843 305.659 145.242L307.114 147.483L309.237 145.899L307.755 143.616C308.851 142.609 309.632 141.283 309.98 139.837C310.127 139.19 310.146 138.529 310.035 137.895C309.924 137.262 309.685 136.669 309.335 136.155C308.884 135.381 308.185 134.807 307.349 134.525ZM300.095 136.339C299.477 136.57 298.831 136.674 298.194 136.644C297.935 136.623 297.688 136.541 297.471 136.405C297.254 136.268 297.073 136.082 296.94 135.857C296.603 135.374 296.475 134.756 296.584 134.14C296.719 133.478 297.046 132.86 297.52 132.374L300.095 136.339ZM307.095 139.887C306.972 140.518 306.661 141.107 306.208 141.568L303.821 137.891C304.389 137.658 304.987 137.544 305.581 137.555C305.812 137.569 306.034 137.639 306.229 137.757C306.424 137.876 306.587 138.041 306.706 138.24C307.035 138.702 307.174 139.291 307.095 139.887Z" fill="#DD4F05"/>
</g>
<path d="M178.77 356.602C160.395 347.535 145.312 328.404 144.884 306.724C162.289 321.145 183.892 328.501 205.87 327.492C214.344 327.069 223.729 325.654 230.534 331.084C234.769 334.463 237.132 340.006 237.982 345.591C238.831 351.176 238.333 356.884 237.833 362.517L238.326 363.827C218.218 366.192 197.146 365.669 178.77 356.602Z" fill="#F0F0F0"/>
<path d="M145.303 306.653C153.832 322.098 166.685 334.271 182.035 341.44C185.314 343.046 188.808 344.089 192.39 344.528C195.892 344.836 199.407 344.132 202.569 342.491C205.547 341.025 208.434 339.155 211.692 338.489C213.365 338.175 215.08 338.244 216.726 338.69C218.372 339.137 219.912 339.952 221.243 341.081C224.63 343.802 226.903 347.665 229.003 351.525C231.335 355.812 233.694 360.304 237.632 363.13C238.109 363.472 237.585 364.246 237.109 363.904C230.257 358.987 228.298 349.673 222.611 343.613C219.957 340.785 216.492 338.797 212.658 339.295C209.306 339.73 206.327 341.656 203.324 343.169C200.261 344.818 196.867 345.639 193.44 345.558C189.849 345.315 186.323 344.419 183.013 342.908C175.509 339.633 168.532 335.114 162.338 329.517C155.236 323.17 149.198 315.568 144.487 307.038C144.196 306.51 145.014 306.128 145.303 306.653L145.303 306.653Z" fill="white"/>
<path d="M176.965 339.443C175.494 342.041 173.208 343.993 170.518 344.951C167.828 345.909 164.907 345.811 162.278 344.674C161.747 344.442 162.058 343.546 162.59 343.778C165.037 344.842 167.757 344.933 170.261 344.036C172.764 343.138 174.886 341.31 176.243 338.883C176.539 338.356 177.259 338.919 176.965 339.443V339.443Z" fill="white"/>
<path d="M201.151 343.448C199.826 337.4 196.424 332.109 191.622 328.631C191.146 328.287 191.669 327.513 192.145 327.857C197.135 331.487 200.665 337 202.031 343.297C202.161 343.897 201.28 344.045 201.151 343.448V343.448Z" fill="white"/>
<path d="M156.291 322.599C157.056 321.721 157.605 320.653 157.89 319.492C158.175 318.33 158.186 317.111 157.922 315.943C157.786 315.345 158.667 315.198 158.803 315.792C159.088 317.083 159.074 318.43 158.762 319.714C158.45 320.999 157.85 322.181 157.013 323.159C156.942 323.259 156.837 323.325 156.722 323.345C156.606 323.365 156.488 323.337 156.391 323.266C156.295 323.192 156.232 323.08 156.213 322.955C156.194 322.83 156.222 322.702 156.291 322.599V322.599Z" fill="white"/>
<path d="M196.727 258.744C196.822 259.114 196.917 259.485 197.02 259.859C198.325 264.839 200.006 269.697 202.046 274.385C202.199 274.75 202.358 275.118 202.52 275.478C207.546 286.716 214.475 296.856 222.955 305.383C226.332 308.773 229.945 311.882 233.762 314.684C239.034 318.554 245.037 322.3 248.701 327.653C249.089 328.206 249.445 328.786 249.766 329.387L239.779 363.081C239.72 363.146 239.669 363.213 239.61 363.277L239.269 364.642C239.062 364.513 238.851 364.373 238.645 364.243C238.525 364.169 238.407 364.086 238.287 364.012C238.208 363.96 238.129 363.907 238.054 363.865C238.028 363.847 238.002 363.83 237.982 363.815C237.908 363.773 237.843 363.725 237.776 363.685C236.593 362.91 235.412 362.124 234.235 361.328C234.228 361.326 234.228 361.326 234.223 361.316C225.267 355.226 216.706 348.282 209.4 340.165C209.181 339.921 208.954 339.674 208.739 339.415C205.465 335.736 202.477 331.778 199.804 327.578C198.348 325.273 197.001 322.89 195.77 320.439C192.599 314.1 190.377 307.266 189.188 300.187C186.818 286.074 188.684 271.307 196.148 259.63C196.339 259.331 196.528 259.04 196.727 258.744Z" fill="#F0F0F0"/>
<path d="M197.103 258.955C195.238 276.793 198.664 294.807 206.893 310.438C208.609 313.837 210.814 316.924 213.427 319.587C216.05 322.093 219.252 323.8 222.699 324.531C225.9 325.281 229.255 325.652 232.23 327.223C233.742 328.052 235.073 329.214 236.137 330.633C237.2 332.052 237.972 333.696 238.401 335.457C239.577 339.816 239.222 344.367 238.731 348.805C238.185 353.732 237.546 358.841 239.103 363.639C239.292 364.221 238.439 364.501 238.251 363.92C235.541 355.572 239.208 346.871 238.071 338.361C237.54 334.391 235.89 330.567 232.55 328.49C229.628 326.674 226.168 326.289 222.921 325.559C219.549 324.899 216.379 323.364 213.687 321.087C210.957 318.576 208.644 315.584 206.85 312.241C202.698 304.784 199.665 296.673 197.863 288.205C195.757 278.554 195.206 268.587 196.235 258.736C196.299 258.127 197.167 258.35 197.103 258.955H197.103Z" fill="white"/>
<path d="M203.967 305.572C201.333 306.696 198.412 306.78 195.726 305.808C193.04 304.837 190.763 302.874 189.303 300.269C189.009 299.741 189.761 299.226 190.055 299.755C191.411 302.183 193.532 304.012 196.035 304.911C198.538 305.81 201.258 305.721 203.705 304.658C204.237 304.428 204.496 305.343 203.967 305.572V305.572Z" fill="white"/>
<path d="M221.029 324.379C223.368 318.695 223.623 312.275 221.742 306.399C221.555 305.817 222.408 305.537 222.594 306.118C224.54 312.237 224.263 318.918 221.817 324.827C221.583 325.39 220.797 324.939 221.029 324.379Z" fill="white"/>
<path d="M196.92 278.779C198.024 278.572 199.062 278.074 199.942 277.33C200.822 276.586 201.516 275.62 201.961 274.518C202.188 273.952 202.974 274.403 202.749 274.965C202.251 276.181 201.484 277.247 200.514 278.071C199.543 278.895 198.4 279.452 197.182 279.693C197.069 279.726 196.949 279.711 196.845 279.653C196.742 279.594 196.663 279.495 196.625 279.376C196.591 279.255 196.603 279.124 196.658 279.013C196.713 278.901 196.808 278.817 196.92 278.779Z" fill="white"/>
<path d="M435.668 354.989C433.786 359.174 431.302 363.017 428.307 366.376C427.634 367.127 426.943 367.855 426.232 368.558C425.741 369.049 425.238 369.527 424.723 370H389.905C389.933 369.515 389.984 369.036 390.052 368.558C390.273 367.008 390.779 365.521 391.539 364.182C394.433 359.189 400.386 357.655 405.575 355.758C406.814 355.304 408.04 354.807 409.245 354.261C410.799 353.565 412.326 352.795 413.812 351.959C420.466 348.22 426.414 343.189 431.354 337.123C431.513 336.929 431.665 336.735 431.818 336.535C433.846 333.99 435.678 331.272 437.296 328.408C437.42 328.202 437.533 327.99 437.652 327.778C437.726 327.996 437.799 328.22 437.873 328.439C440.643 337.099 439.422 346.644 435.668 354.989Z" fill="#F0F0F0"/>
<path d="M437.963 327.863C437.935 328.057 437.907 328.251 437.873 328.438C437.207 332.625 436.097 336.715 434.566 340.632C433.862 342.436 433.071 344.2 432.197 345.916C430.501 349.257 428.492 352.402 426.199 355.304C426.074 355.461 425.944 355.619 425.82 355.776C424.836 356.982 423.806 358.13 422.728 359.219C421.071 360.967 419.15 362.401 417.046 363.461C415.336 364.246 413.489 364.626 411.63 364.576C411.28 364.576 410.929 364.558 410.573 364.534C409.149 364.437 407.69 364.231 406.254 364.273C405.529 364.283 404.808 364.385 404.106 364.576C403.145 364.88 402.251 365.39 401.479 366.074C400.706 366.759 400.071 367.603 399.611 368.558C399.412 368.928 399.233 369.311 399.074 369.703C399.035 369.8 398.995 369.903 398.961 370H398.339C398.515 369.506 398.719 369.024 398.95 368.558C399.069 368.309 399.199 368.067 399.334 367.83C399.886 366.814 400.633 365.934 401.524 365.248C402.416 364.561 403.432 364.085 404.507 363.849C405.16 363.72 405.822 363.657 406.486 363.661C407.95 363.637 409.42 363.855 410.878 363.94C411.031 363.946 411.184 363.958 411.336 363.958C411.528 363.964 411.726 363.964 411.919 363.964C413.837 363.966 415.729 363.491 417.447 362.576C419.503 361.4 421.374 359.887 422.993 358.092C423.87 357.164 424.712 356.195 425.515 355.195C425.554 355.152 425.588 355.11 425.622 355.067C429.067 350.768 431.867 345.921 433.921 340.698C434 340.511 434.074 340.323 434.147 340.135C435.596 336.362 436.652 332.429 437.296 328.408C437.33 328.22 437.358 328.026 437.386 327.839C437.443 327.451 438.02 327.475 437.963 327.863Z" fill="white"/>
<path d="M425.598 355.6C427.057 356.788 428.862 357.382 430.692 357.274C432.521 357.167 434.256 356.366 435.585 355.014C435.853 354.74 435.468 354.28 435.199 354.555C433.964 355.816 432.348 356.562 430.644 356.658C428.94 356.755 427.261 356.195 425.908 355.08C425.614 354.838 425.305 355.36 425.598 355.6V355.6Z" fill="white"/>
<path d="M411.941 364.152C411.4 360.179 412.277 356.134 414.395 352.822C414.605 352.495 414.119 352.162 413.909 352.49C411.711 355.94 410.807 360.152 411.378 364.285C411.433 364.679 411.995 364.544 411.941 364.152V364.152Z" fill="white"/>
<path d="M434.305 340.22C433.651 339.887 433.085 339.384 432.657 338.758C432.229 338.132 431.953 337.402 431.853 336.633C431.803 336.238 431.241 336.373 431.29 336.765C431.404 337.614 431.71 338.421 432.182 339.114C432.653 339.806 433.276 340.365 433.995 340.741C434.06 340.782 434.137 340.796 434.211 340.778C434.285 340.761 434.35 340.714 434.393 340.647C434.434 340.578 434.447 340.494 434.431 340.414C434.414 340.334 434.369 340.265 434.305 340.22V340.22Z" fill="white"/>
<path d="M410.092 348.953C409.889 350.746 409.606 352.51 409.245 354.261V354.267C408.565 357.472 407.643 360.612 406.486 363.655V363.661C406.412 363.873 406.333 364.073 406.254 364.273C405.694 365.721 405.089 367.146 404.445 368.558C404.224 369.043 403.998 369.521 403.767 370H381.08L379.983 368.558L379.599 368.049C379.66 367.605 379.747 367.166 379.859 366.734C380.876 362.582 383.658 358.807 385.976 355.14C387.651 352.486 389.134 349.698 390.413 346.801C393.63 339.523 395.557 331.666 396.095 323.633C396.112 323.372 396.123 323.112 396.135 322.851C396.324 319.514 396.262 316.166 395.948 312.839V312.827C395.925 312.585 395.903 312.336 395.875 312.094C396.055 312.227 396.236 312.348 396.411 312.476C396.412 312.476 396.413 312.476 396.414 312.476C396.414 312.476 396.415 312.477 396.416 312.477C396.416 312.478 396.417 312.479 396.417 312.479C396.417 312.48 396.417 312.481 396.417 312.482H396.423C403.473 317.597 407.859 325.978 409.561 335.044C409.567 335.062 409.567 335.081 409.572 335.099C410.419 339.659 410.595 344.334 410.092 348.953V348.953Z" fill="#F0F0F0"/>
<path d="M402.189 341.474C402.178 341.68 402.167 341.88 402.15 342.086C402.042 343.68 401.867 345.268 401.618 346.838C401.275 349.303 400.545 351.688 399.459 353.892C398.535 355.621 397.274 357.116 395.761 358.273C395.479 358.504 395.19 358.722 394.897 358.928C393.105 360.188 391.109 361.303 389.752 363.134C388.658 364.685 388.153 366.623 388.339 368.558C388.368 369.042 388.428 369.524 388.52 370H387.937C387.863 369.607 387.808 369.211 387.773 368.812C387.768 368.727 387.762 368.642 387.757 368.558C387.659 367.429 387.779 366.29 388.107 365.212C388.436 364.135 388.967 363.141 389.667 362.291C391.109 360.588 393.042 359.516 394.801 358.249C394.931 358.158 395.055 358.061 395.179 357.964C395.337 357.849 395.496 357.722 395.649 357.595C397.186 356.365 398.431 354.764 399.283 352.922C400.266 350.658 400.909 348.243 401.189 345.765C401.364 344.456 401.496 343.143 401.584 341.826C401.584 341.765 401.59 341.71 401.59 341.65V341.644C401.924 335.991 401.442 330.316 400.16 324.82C400.109 324.62 400.058 324.426 400.013 324.227C399.054 320.282 397.691 316.462 395.948 312.839V312.827C395.863 312.657 395.784 312.488 395.699 312.318C395.524 311.973 395.999 311.615 396.169 311.966C396.253 312.136 396.333 312.306 396.411 312.476C396.412 312.476 396.413 312.476 396.414 312.476C396.414 312.476 396.415 312.477 396.416 312.477C396.416 312.478 396.417 312.479 396.417 312.479C396.417 312.48 396.417 312.481 396.417 312.482C398.253 316.279 399.672 320.291 400.646 324.439C401.092 326.304 401.445 328.193 401.703 330.099C402.227 333.863 402.39 337.675 402.189 341.474V341.474Z" fill="white"/>
<path d="M401.875 342.093C403.707 342.1 405.482 341.409 406.882 340.142C408.282 338.876 409.217 337.117 409.52 335.179C409.58 334.787 409.014 334.669 408.954 335.062C408.675 336.866 407.804 338.505 406.498 339.681C405.192 340.858 403.536 341.495 401.83 341.478C401.459 341.474 401.506 342.09 401.875 342.093V342.093Z" fill="white"/>
<path d="M395.773 357.736C393.11 354.913 391.538 351.117 391.37 347.106C391.353 346.708 390.779 346.757 390.795 347.154C390.977 351.327 392.621 355.274 395.398 358.205C395.663 358.485 396.036 358.014 395.773 357.736V357.736Z" fill="white"/>
<path d="M400.189 324.193C399.48 324.349 398.745 324.313 398.052 324.09C397.358 323.866 396.728 323.461 396.216 322.911C395.955 322.629 395.582 323.1 395.841 323.381C396.409 323.985 397.106 324.431 397.872 324.68C398.637 324.929 399.448 324.973 400.234 324.809C400.309 324.8 400.378 324.761 400.427 324.699C400.476 324.638 400.502 324.558 400.499 324.477C400.492 324.396 400.456 324.32 400.398 324.267C400.34 324.214 400.265 324.187 400.189 324.193Z" fill="white"/>
<path d="M12.3599 107.244C12.908 85.5668 23.3826 63.1762 41.8077 54.226C36.2862 77.0529 38.4745 101.238 47.9856 122.502C51.6813 130.688 56.587 139.381 54.6065 148.224C53.3743 153.727 49.5504 158.236 45.0947 161.27C40.6387 164.304 35.5476 166.059 30.5194 167.782L29.5897 168.783C19.6524 149.895 11.8118 128.921 12.3599 107.244Z" fill="#F0F0F0"/>
<path d="M42.0334 54.6113C32.1416 69.0933 26.758 86.5483 26.6472 104.497C26.5594 108.361 27.0402 112.215 28.0719 115.918C29.1857 119.49 31.1715 122.678 33.823 125.149C36.2522 127.507 38.9916 129.617 40.8438 132.566C41.771 134.091 42.3871 135.809 42.6516 137.607C42.916 139.405 42.823 141.242 42.3785 142.999C41.3772 147.407 38.9581 151.167 36.4732 154.755C33.7142 158.74 30.7895 162.831 29.9151 167.824C29.8091 168.429 28.9396 168.218 29.0454 167.614C30.5669 158.927 37.7842 153.332 40.7449 145.343C42.1265 141.615 42.4683 137.418 40.5332 133.835C38.8411 130.702 36.0179 128.524 33.5391 126.16C30.9195 123.789 28.8811 120.768 27.602 117.358C26.3977 113.723 25.7792 109.895 25.773 106.038C25.6297 97.3547 26.761 88.7011 29.1253 80.3943C31.7747 70.8977 35.9199 61.957 41.3817 53.9589C41.7199 53.464 42.3694 54.1197 42.0334 54.6113H42.0334Z" fill="white"/>
<path d="M26.3656 98.7154C23.559 98.2866 20.9859 96.8023 19.1059 94.5276C17.2259 92.2529 16.1614 89.3358 16.1024 86.2974C16.0925 85.6826 16.9833 85.6371 16.9932 86.2527C17.0432 89.0822 18.0351 91.7994 19.7898 93.9138C21.5445 96.0281 23.9464 97.4005 26.5621 97.7831C27.1305 97.8669 26.9306 98.7987 26.3656 98.7153V98.7154Z" fill="white"/>
<path d="M32.4445 124.127C37.1104 120.443 40.3094 115.008 41.4036 108.908C41.5116 108.303 42.3811 108.514 42.2732 109.118C41.1235 115.465 37.7838 121.113 32.9204 124.936C32.4566 125.3 31.9832 124.49 32.4445 124.127Z" fill="white"/>
<path d="M32.6794 71.7133C33.7331 72.1218 34.8649 72.2433 35.9733 72.0669C37.0816 71.8906 38.1317 71.4219 39.0293 70.703C39.4886 70.3328 39.9615 71.1434 39.5053 71.5112C38.5101 72.3005 37.3498 72.8166 36.1256 73.0144C34.9015 73.2121 33.6508 73.0855 32.4829 72.6455C32.3695 72.614 32.2716 72.5373 32.2091 72.4312C32.1466 72.325 32.1242 72.1973 32.1463 72.074C32.1729 71.9508 32.2439 71.8437 32.3437 71.7761C32.4435 71.7086 32.5642 71.686 32.6794 71.7133L32.6794 71.7133Z" fill="white"/>
<path d="M103.35 86.4477C103.069 86.6876 102.789 86.9275 102.508 87.1754C98.751 90.4213 95.2459 93.989 92.0276 97.8434C91.7743 98.1372 91.5218 98.4389 91.277 98.7399C83.6157 108.115 77.6446 118.933 73.6672 130.644C72.0885 135.306 70.8429 140.09 69.9413 144.954C68.6964 151.672 67.8452 159.062 64.6955 164.779C64.3732 165.379 64.0164 165.957 63.6273 166.51L30.8011 169.921C30.7229 169.889 30.645 169.865 30.5664 169.832L29.2616 170.033C29.2918 169.778 29.3281 169.515 29.3583 169.261C29.3752 169.113 29.3994 168.965 29.4163 168.817C29.4299 168.719 29.4439 168.62 29.4509 168.53C29.4553 168.497 29.4601 168.464 29.4652 168.439C29.4722 168.349 29.4877 168.267 29.4954 168.185C29.6949 166.714 29.9018 165.241 30.124 163.768C30.1233 163.76 30.1233 163.76 30.1299 163.751C31.8294 152.528 34.4178 141.359 38.5053 130.967C38.6284 130.654 38.7504 130.333 38.8885 130.019C40.7552 125.346 42.9751 120.843 45.526 116.558C46.9299 114.215 48.4434 111.951 50.0609 109.773C54.2502 104.154 59.2379 99.2769 64.8411 95.3196C76.0121 87.4324 89.4118 83.463 102.362 86.2262C102.694 86.2971 103.018 86.3687 103.35 86.4477Z" fill="#F0F0F0"/>
<path d="M103.316 86.902C87.2849 92.0807 73.1831 102.543 63.014 116.802C60.774 119.831 58.9933 123.218 57.7373 126.841C56.6203 130.412 56.4156 134.239 57.1448 137.923C57.7602 141.373 58.7624 144.826 58.5848 148.377C58.4687 150.193 57.9958 151.962 57.1971 153.568C56.3985 155.175 55.2921 156.582 53.9506 157.698C50.6753 160.571 46.6322 162.011 42.6328 163.273C38.1921 164.673 33.559 166.053 30.0566 169.475C29.6323 169.889 29.0569 169.159 29.4806 168.745C35.5742 162.791 44.4788 162.983 51.3299 158.515C54.5268 156.43 57.1569 153.299 57.6239 149.19C58.0324 145.596 57.0017 142.035 56.3504 138.547C55.59 134.964 55.6596 131.235 56.5532 127.688C57.633 124.008 59.2891 120.553 61.4504 117.469C66.213 110.443 71.9764 104.264 78.5295 99.1571C85.9785 93.2846 94.3096 88.8214 103.163 85.9605C103.711 85.7836 103.861 86.7263 103.316 86.902L103.316 86.902Z" fill="white"/>
<path d="M66.0363 112.004C64.0362 109.851 62.8153 107.005 62.5918 103.975C62.3683 100.946 63.1566 97.9293 64.8161 95.4653C65.1534 94.9679 65.8902 95.5066 65.5524 96.0046C64.0032 98.296 63.2691 101.106 63.4826 103.926C63.6962 106.747 64.8432 109.393 66.7168 111.387C67.1235 111.821 66.4407 112.436 66.0363 112.004V112.004Z" fill="white"/>
<path d="M56.6178 136.218C62.4126 136.287 68.0191 134.013 72.3191 129.848C72.7448 129.435 73.3203 130.165 72.8951 130.578C68.4128 134.903 62.574 137.257 56.5439 137.17C55.9691 137.162 56.0461 136.209 56.6177 136.218H56.6178Z" fill="white"/>
<path d="M86.2428 94.5198C86.8547 95.526 87.6901 96.3535 88.6741 96.9281C89.6581 97.5026 90.7598 97.8062 91.8803 97.8115C92.4548 97.8123 92.3772 98.7648 91.8063 98.7639C90.5684 98.7519 89.3521 98.4151 88.2637 97.7829C87.1752 97.1507 86.2477 96.2424 85.5623 95.1373C85.4895 95.0389 85.4544 94.9146 85.4641 94.7895C85.4738 94.6644 85.5276 94.5479 85.6145 94.4638C85.705 94.3825 85.8217 94.3428 85.9394 94.3533C86.057 94.3638 86.166 94.4236 86.2428 94.5198V94.5198Z" fill="white"/>
<path d="M336.527 368.805H242.679C237.434 368.798 232.405 366.562 228.696 362.586C224.987 358.61 222.901 353.219 222.895 347.596V192.448C222.901 186.825 224.987 181.434 228.696 177.458C232.405 173.482 237.434 171.245 242.679 171.239H336.527C341.773 171.245 346.801 173.482 350.51 177.458C354.219 181.434 356.306 186.825 356.312 192.448V347.596C356.306 353.219 354.219 358.61 350.51 362.586C346.801 366.562 341.773 368.798 336.527 368.805V368.805Z" fill="#DD4F05" fill-opacity="0.21"/>
<path d="M356.013 307.925H223.727V340.651H356.013V307.925Z" fill="#3F3D56"/>
<path d="M36.1767 229.369L13.7763 198.495C12.3299 196.502 11.264 194.222 10.6393 191.788C10.0147 189.353 9.84358 186.81 10.1358 184.304C10.4279 181.798 11.1777 179.379 12.3422 177.183C13.5067 174.988 15.0632 173.061 16.9227 171.51L107.652 95.8617C112.962 91.427 119.372 88.7674 126.083 88.2148L133.735 87.5797L199.626 46.2069C199.048 44.8562 198.953 43.325 199.36 41.9043C199.767 40.4837 200.646 39.2728 201.831 38.502C203.016 37.7312 204.424 37.4541 205.787 37.7236C207.151 37.9932 208.374 38.7904 209.224 39.9637L227.967 65.7957C228.82 66.9712 229.239 68.4426 229.145 69.9287C229.05 71.4148 228.449 72.8115 227.454 73.852C226.46 74.8925 225.143 75.5038 223.755 75.5692C222.366 75.6346 221.004 75.1495 219.929 74.2065L166.029 131.987C164.881 141.606 160.216 150.342 153.06 156.274L61.3487 232.742C59.4893 234.292 57.3633 235.435 55.0919 236.105C52.8206 236.774 50.4485 236.958 48.111 236.644C45.7735 236.331 43.5165 235.527 41.4688 234.279C39.4211 233.031 37.6228 231.362 36.1767 229.369V229.369Z" fill="#DD4F05" fill-opacity="0.21"/>
<path d="M336.527 368.805H242.679C237.434 368.798 232.405 366.562 228.696 362.586C224.987 358.61 222.901 353.219 222.895 347.596V192.448C222.901 186.825 224.987 181.434 228.696 177.458C232.405 173.482 237.434 171.245 242.679 171.239H336.527C341.773 171.245 346.801 173.482 350.51 177.458C354.219 181.434 356.306 186.825 356.312 192.448V347.596C356.306 353.219 354.219 358.61 350.51 362.586C346.801 366.562 341.773 368.798 336.527 368.805V368.805ZM242.679 172.451C237.733 172.457 232.992 174.566 229.495 178.314C225.998 182.063 224.031 187.146 224.025 192.448V347.596C224.031 352.898 225.998 357.98 229.495 361.729C232.992 365.478 237.733 367.587 242.679 367.593H336.527C341.473 367.587 346.214 365.478 349.711 361.729C353.208 357.98 355.175 352.898 355.181 347.596V192.448C355.175 187.146 353.208 182.063 349.711 178.314C346.214 174.566 341.473 172.457 336.527 172.451H242.679Z" fill="#3F3D56"/>
<path d="M340.75 166.114C340.454 166.114 340.16 166.125 339.868 166.143C340.879 163.094 341.024 159.792 340.284 156.655C339.545 153.517 337.955 150.685 335.714 148.517C333.474 146.348 330.684 144.94 327.697 144.47C324.711 144.001 321.661 144.491 318.934 145.878C316.488 138.496 311.229 133.388 305.134 133.388C299.039 133.388 293.78 138.496 291.334 145.878C289.286 144.837 287.048 144.297 284.782 144.297C282.516 144.297 280.278 144.837 278.231 145.878C275.784 138.496 270.525 133.388 264.431 133.388C258.336 133.388 253.077 138.496 250.63 145.878C247.903 144.49 244.852 144 241.865 144.47C238.877 144.941 236.087 146.35 233.847 148.52C231.606 150.69 230.016 153.524 229.278 156.662C228.54 159.801 228.687 163.104 229.699 166.153C229.407 166.129 229.112 166.114 228.815 166.114C220.385 166.114 213.551 175.882 213.551 187.931C213.551 199.98 220.385 209.748 228.815 209.748C235.758 209.748 241.614 203.12 243.466 194.051C245.694 196.438 248.557 198.027 251.662 198.601C254.766 199.175 257.96 198.706 260.806 197.258C263.253 204.641 268.511 209.748 274.606 209.748C281.549 209.748 287.405 203.12 289.257 194.051C291.486 196.438 294.349 198.027 297.453 198.601C300.558 199.175 303.752 198.706 306.598 197.258C309.044 204.641 314.303 209.748 320.398 209.748C326.493 209.748 331.752 204.641 334.198 197.258C336.266 198.311 338.529 198.853 340.819 198.841C343.109 198.83 345.367 198.267 347.426 197.193C349.485 196.119 351.292 194.563 352.714 192.639C354.136 190.714 355.136 188.472 355.64 186.077C356.143 183.683 356.138 181.198 355.624 178.806C355.11 176.413 354.101 174.176 352.671 172.259C351.241 170.342 349.427 168.794 347.363 167.73C345.3 166.667 343.039 166.114 340.75 166.114V166.114Z" fill="#F0F0F0"/>
<path d="M259.343 212.778C260.904 212.778 262.169 211.422 262.169 209.748C262.169 208.075 260.904 206.718 259.343 206.718C257.781 206.718 256.516 208.075 256.516 209.748C256.516 211.422 257.781 212.778 259.343 212.778Z" fill="white"/>
<path d="M276.868 264.291C278.429 264.291 279.694 262.934 279.694 261.261C279.694 259.587 278.429 258.231 276.868 258.231C275.307 258.231 274.041 259.587 274.041 261.261C274.041 262.934 275.307 264.291 276.868 264.291Z" fill="white"/>
<path d="M294.958 229.141C296.519 229.141 297.785 227.785 297.785 226.111C297.785 224.438 296.519 223.081 294.958 223.081C293.397 223.081 292.132 224.438 292.132 226.111C292.132 227.785 293.397 229.141 294.958 229.141Z" fill="white"/>
<path d="M274.606 240.05C276.168 240.05 277.433 238.693 277.433 237.02C277.433 235.346 276.168 233.989 274.606 233.989C273.045 233.989 271.78 235.346 271.78 237.02C271.78 238.693 273.045 240.05 274.606 240.05Z" fill="white"/>
<path d="M310.222 272.775C311.783 272.775 313.049 271.419 313.049 269.745C313.049 268.072 311.783 266.715 310.222 266.715C308.661 266.715 307.395 268.072 307.395 269.745C307.395 271.419 308.661 272.775 310.222 272.775Z" fill="white"/>
<path d="M320.398 212.778C321.959 212.778 323.224 211.422 323.224 209.748C323.224 208.075 321.959 206.718 320.398 206.718C318.837 206.718 317.571 208.075 317.571 209.748C317.571 211.422 318.837 212.778 320.398 212.778Z" fill="white"/>
<path d="M355.746 319.44V318.228C369.731 318.228 383.143 312.272 393.031 301.672C402.92 291.071 408.475 276.694 408.475 261.702C408.475 246.711 402.92 232.333 393.031 221.733C383.143 211.132 369.731 205.177 355.746 205.177V203.965C370.031 203.965 383.73 210.048 393.831 220.876C403.931 231.703 409.606 246.389 409.606 261.702C409.606 277.015 403.931 291.701 393.831 302.529C383.73 313.357 370.031 319.44 355.746 319.44V319.44Z" fill="#3F3D56"/>
<path d="M356.013 308.531H355.448V307.003H356.579V307.315C367.245 307.155 377.42 302.48 384.883 294.31C392.346 286.139 396.493 275.137 396.418 263.702C396.344 252.267 392.054 241.327 384.485 233.269C376.915 225.212 366.681 220.69 356.013 220.69V219.478C367.029 219.478 377.594 224.169 385.384 232.52C393.173 240.87 397.549 252.195 397.549 264.005C397.549 275.814 393.173 287.139 385.384 295.49C377.594 303.84 367.029 308.531 356.013 308.531V308.531Z" fill="#3F3D56"/>
<path d="M222.5 66.5293C224.375 67.0932 226.781 66.5274 228.798 64.8454C231.756 62.3795 232.755 58.4531 231.029 56.0752C230.715 55.6444 230.326 55.2832 229.883 55.012C230.104 54.2829 230.161 53.5082 230.05 52.751C229.939 51.9937 229.663 51.2751 229.245 50.6537C229.021 50.3473 228.759 50.076 228.465 49.8477C230.41 46.9614 231.139 44.3813 230.137 42.9998C229.846 42.6598 229.487 42.3948 229.087 42.2247C228.687 42.0545 228.257 41.9836 227.828 42.0173C227.969 40.8383 227.677 39.6467 227.013 38.6944C225.556 36.6866 222.624 36.4321 219.966 37.8842C219.934 37.8362 219.907 37.7846 219.873 37.7377C218.148 35.3598 214.352 35.4313 211.395 37.8972C209.915 39.0809 208.869 40.7843 208.441 42.7101C206.595 42.6809 204.797 43.3478 203.362 44.5944C200.405 47.0602 199.406 50.9867 201.131 53.3645C201.208 53.4696 201.292 53.5638 201.377 53.6594L201.341 53.6983C201.275 53.5853 201.209 53.4717 201.131 53.3645C199.406 50.9867 195.61 51.0581 192.653 53.524C191.172 54.7077 190.127 56.4112 189.699 58.3369C187.852 58.3077 186.055 58.9746 184.62 60.2212C181.663 62.6871 180.664 66.6135 182.389 68.9914C184.114 71.3692 187.91 71.2977 190.868 68.8319C190.181 69.4025 189.643 70.1524 189.304 71.0097C188.965 71.8671 188.836 72.8033 188.931 73.729C189.025 74.6547 189.34 75.539 189.844 76.2973C190.348 77.0556 191.026 77.6626 191.811 78.0604C191.186 79.6726 191.125 81.0312 191.76 81.9074C192.763 83.289 195.275 83.1662 198.363 81.8556C198.497 82.217 198.678 82.5565 198.9 82.8641C200.625 85.2419 204.421 85.1705 207.379 82.7046C208.859 81.5209 209.904 79.8176 210.333 77.8919C212.179 77.9209 213.976 77.2539 215.411 76.0074C216.092 75.4414 216.692 74.7708 217.19 74.0173C217.994 73.6849 218.748 73.2271 219.427 72.6588C221.445 70.9768 222.548 68.6157 222.5 66.5293Z" fill="#F0F0F0"/>
<path d="M36.1767 229.369L13.7763 198.495C12.3299 196.502 11.264 194.222 10.6393 191.788C10.0147 189.353 9.84358 186.81 10.1358 184.304C10.4279 181.798 11.1777 179.379 12.3422 177.183C13.5067 174.988 15.0632 173.061 16.9227 171.51L107.652 95.8617C112.962 91.427 119.372 88.7674 126.083 88.2148L133.735 87.5797L199.626 46.2069C199.048 44.8562 198.953 43.325 199.36 41.9043C199.767 40.4837 200.646 39.2728 201.831 38.502C203.016 37.7312 204.424 37.4541 205.787 37.7236C207.151 37.9932 208.374 38.7904 209.224 39.9637L227.967 65.7957C228.82 66.9712 229.239 68.4426 229.145 69.9287C229.05 71.4148 228.449 72.8115 227.454 73.852C226.46 74.8925 225.143 75.5038 223.755 75.5692C222.366 75.6346 221.004 75.1495 219.929 74.2065L166.029 131.987C164.881 141.606 160.216 150.342 153.06 156.274L61.3487 232.742C59.4893 234.292 57.3633 235.435 55.0919 236.105C52.8206 236.774 50.4485 236.958 48.111 236.644C45.7735 236.331 43.5165 235.527 41.4688 234.279C39.4211 233.031 37.6228 231.362 36.1767 229.369V229.369ZM208.332 40.7078C207.628 39.736 206.605 39.0879 205.471 38.8949C204.337 38.702 203.178 38.9786 202.227 39.6688C201.277 40.359 200.607 41.4109 200.354 42.6112C200.1 43.8114 200.283 45.07 200.863 46.1316L201.15 46.6548L134.082 88.7664L126.17 89.4232C119.68 89.9576 113.481 92.5298 108.347 96.8184L17.6169 172.467C15.8745 173.92 14.4162 175.726 13.325 177.783C12.2339 179.839 11.5314 182.106 11.2576 184.454C10.9839 186.802 11.1442 189.185 11.7295 191.466C12.3148 193.748 13.3136 195.883 14.6688 197.751L37.0692 228.625C38.4241 230.492 40.109 232.056 42.0277 233.226C43.9463 234.395 46.0611 235.148 48.2512 235.442C50.4414 235.735 52.664 235.563 54.7922 234.936C56.9204 234.309 58.9124 233.238 60.6545 231.785L152.366 155.318C155.818 152.456 158.705 148.889 160.862 144.823C163.019 140.757 164.403 136.273 164.932 131.63L164.956 131.423L219.91 72.5129L220.309 72.9423C221.123 73.8148 222.216 74.322 223.366 74.3605C224.516 74.399 225.636 73.966 226.499 73.1496C227.361 72.3332 227.901 71.195 228.008 69.9669C228.115 68.7387 227.781 67.5131 227.074 66.5398L208.332 40.7078Z" fill="#3F3D56"/>
<path d="M87.6733 113.288L55.5439 140.077L99.2758 200.351L131.405 173.562L87.6733 113.288Z" fill="#3F3D56"/>
<path d="M56.3372 140.183L99.3749 199.501L130.612 173.456L87.5741 114.138L56.3372 140.183Z" fill="#3F3D56"/>
<path d="M181.943 86.2132C183.504 86.2132 184.77 84.8566 184.77 83.183C184.77 81.5095 183.504 80.1529 181.943 80.1529C180.382 80.1529 179.116 81.5095 179.116 83.183C179.116 84.8566 180.382 86.2132 181.943 86.2132Z" fill="white"/>
<path d="M159.631 90.9969C161.192 90.9969 162.457 89.6403 162.457 87.9668C162.457 86.2933 161.192 84.9366 159.631 84.9366C158.07 84.9366 156.804 86.2933 156.804 87.9668C156.804 89.6403 158.07 90.9969 159.631 90.9969Z" fill="white"/>
<path d="M160.97 110.61C162.531 110.61 163.796 109.254 163.796 107.58C163.796 105.907 162.531 104.55 160.97 104.55C159.409 104.55 158.143 105.907 158.143 107.58C158.143 109.254 159.409 110.61 160.97 110.61Z" fill="white"/>
<path d="M138.658 115.394C140.219 115.394 141.484 114.037 141.484 112.364C141.484 110.69 140.219 109.334 138.658 109.334C137.096 109.334 135.831 110.69 135.831 112.364C135.831 114.037 137.096 115.394 138.658 115.394Z" fill="white"/>
<path d="M254.82 79.4517C256.381 79.4517 257.647 78.0951 257.647 76.4216C257.647 74.7481 256.381 73.3914 254.82 73.3914C253.259 73.3914 251.993 74.7481 251.993 76.4216C251.993 78.0951 253.259 79.4517 254.82 79.4517Z" fill="white"/>
<path d="M264.996 95.8145C266.557 95.8145 267.822 94.4579 267.822 92.7844C267.822 91.1109 266.557 89.7542 264.996 89.7542C263.435 89.7542 262.169 91.1109 262.169 92.7844C262.169 94.4579 263.435 95.8145 264.996 95.8145Z" fill="white"/>
<path d="M264.996 123.086C266.557 123.086 267.822 121.729 267.822 120.056C267.822 118.382 266.557 117.026 264.996 117.026C263.435 117.026 262.169 118.382 262.169 120.056C262.169 121.729 263.435 123.086 264.996 123.086Z" fill="white"/>
<path d="M223.78 141.151C220.653 141.256 210.638 141.96 205.435 146.644C199.219 152.241 199.218 157.556 202.231 161.401C205.243 165.245 210.126 166.163 216.342 160.566C221.611 155.822 223.982 145.161 224.582 142.022L223.78 141.151Z" fill="#F2F2F2"/>
<path d="M304.154 73.7601C306.144 76.3485 312.787 84.4136 319.427 85.9624C327.359 87.8125 331.282 84.5627 332.278 79.6569C333.273 74.7511 330.965 70.0475 323.033 68.1972C316.309 66.6287 306.99 71.1376 304.306 72.5481L304.154 73.7601Z" fill="#F2F2F2"/>
<path d="M355.009 153.152C355.377 156.483 356.895 167.118 361.698 172.27C367.437 178.426 372.376 177.967 375.689 174.418C379.002 170.869 379.433 165.574 373.695 159.419C368.831 154.201 358.718 152.59 355.749 152.221L355.009 153.152Z" fill="#F2F2F2"/>
<g clip-path="url(#clip4_2_101)">
<path d="M248.212 58.4185C247.45 58.298 246.657 58.3868 245.905 58.6766C244.991 59.0498 244.101 59.4994 243.243 60.0209L239.848 55.9869C241.084 55.0882 242.504 54.5556 243.948 54.4496L243.308 51.9017C242.478 51.9435 241.649 52.139 240.859 52.4795C239.98 52.8526 239.143 53.3455 238.369 53.945L236.648 51.9004L234.728 53.7579L236.466 55.8226C235.793 56.6222 235.278 57.5513 234.953 58.5482C234.658 59.4476 234.568 60.3918 234.69 61.3001C234.816 62.1792 235.174 62.983 235.725 63.6208C236.28 64.3517 237.066 64.8432 237.956 65.0166C238.75 65.145 239.578 65.0531 240.362 64.7496C241.294 64.3742 242.201 63.9189 243.074 63.3884L246.328 67.2541C244.951 68.4111 243.306 69.119 241.616 69.2824L242.259 71.8326C243.209 71.7477 244.151 71.4869 245.043 71.0621C246.022 70.5989 246.947 69.9986 247.792 69.2784L249.498 71.3054L251.418 69.4479L249.68 67.3832C250.65 66.2363 251.269 64.8158 251.445 63.334C251.515 62.6728 251.456 62.0144 251.271 61.4007C251.087 60.7869 250.781 60.2312 250.373 59.7686C249.835 59.061 249.074 58.5856 248.212 58.4185ZM241.228 61.1956C240.642 61.5079 240.013 61.6981 239.378 61.755C239.118 61.7682 238.864 61.7202 238.633 61.6144C238.402 61.5085 238.2 61.3475 238.041 61.143C237.651 60.709 237.452 60.1134 237.487 59.487C237.543 58.812 237.796 58.1552 238.209 57.6087L241.228 61.1956ZM248.589 63.7727C248.541 64.4152 248.301 65.0414 247.905 65.5594L245.106 62.2338C245.642 61.9259 246.223 61.7316 246.813 61.6628C247.044 61.646 247.272 61.6849 247.479 61.7763C247.687 61.8678 247.868 62.0096 248.01 62.1912C248.39 62.6052 248.597 63.1701 248.589 63.7727Z" fill="#DD4F05"/>
</g>
<g clip-path="url(#clip5_2_101)">
<path d="M131.739 122.062C130.978 121.941 130.184 122.03 129.432 122.32C128.518 122.693 127.628 123.143 126.771 123.664L123.375 119.63C124.611 118.731 126.031 118.199 127.475 118.093L126.835 115.545C126.005 115.587 125.177 115.782 124.387 116.123C123.508 116.496 122.67 116.989 121.896 117.588L120.175 115.544L118.255 117.401L119.993 119.466C119.321 120.265 118.805 121.194 118.48 122.191C118.186 123.091 118.095 124.035 118.217 124.943C118.343 125.822 118.702 126.626 119.252 127.264C119.807 127.995 120.593 128.486 121.484 128.66C122.277 128.788 123.105 128.696 123.889 128.393C124.821 128.017 125.728 127.562 126.601 127.032L129.855 130.897C128.478 132.054 126.833 132.762 125.144 132.926L125.786 135.476C126.736 135.391 127.679 135.13 128.571 134.705C129.55 134.242 130.475 133.642 131.319 132.922L133.025 134.949L134.946 133.091L133.208 131.026C134.177 129.879 134.796 128.459 134.972 126.977C135.042 126.316 134.983 125.658 134.799 125.044C134.614 124.43 134.308 123.874 133.9 123.412C133.362 122.704 132.601 122.229 131.739 122.062ZM124.755 124.839C124.17 125.151 123.541 125.341 122.905 125.398C122.645 125.411 122.391 125.363 122.16 125.258C121.929 125.152 121.727 124.991 121.569 124.786C121.178 124.352 120.979 123.757 121.015 123.13C121.07 122.455 121.323 121.798 121.736 121.252L124.755 124.839ZM132.116 127.416C132.068 128.058 131.829 128.685 131.433 129.203L128.633 125.877C129.17 125.569 129.75 125.375 130.34 125.306C130.572 125.289 130.799 125.328 131.007 125.42C131.214 125.511 131.395 125.653 131.537 125.834C131.917 126.248 132.124 126.813 132.116 127.416Z" fill="#DD4F05"/>
</g>
<g clip-path="url(#clip6_2_101)">
<path d="M285.172 100.431C284.51 100.01 283.744 99.7701 282.946 99.7325C281.968 99.7061 280.985 99.7603 280.008 99.8944L278.293 94.7814C279.754 94.4521 281.257 94.5367 282.63 95.0257L282.939 92.4079C282.156 92.1091 281.32 91.9531 280.469 91.9471C279.524 91.935 278.574 92.0507 277.646 92.2909L276.777 89.6993L274.343 90.6375L275.221 93.2545C274.316 93.7211 273.51 94.3712 272.857 95.1616C272.267 95.8741 271.849 96.711 271.64 97.6009C271.446 98.4657 271.493 99.3552 271.777 100.169C272.032 101.071 272.585 101.845 273.348 102.368C274.037 102.809 274.836 103.061 275.668 103.099C276.664 103.13 277.664 103.078 278.66 102.941L280.303 107.841C278.619 108.352 276.847 108.339 275.226 107.803L274.918 110.424C275.827 110.731 276.792 110.873 277.767 110.843C278.837 110.812 279.905 110.633 280.942 110.309L281.803 112.879L284.237 111.94L283.359 109.323C284.663 108.656 285.738 107.594 286.425 106.294C286.723 105.711 286.902 105.077 286.948 104.434C286.994 103.792 286.908 103.153 286.694 102.559C286.446 101.686 285.911 100.937 285.172 100.431ZM277.727 100.162C277.075 100.213 276.426 100.133 275.817 99.9276C275.572 99.8343 275.354 99.6864 275.177 99.4946C275.001 99.3027 274.871 99.0717 274.797 98.8181C274.589 98.2577 274.616 97.6257 274.87 97.0605C275.161 96.4586 275.626 95.9535 276.202 95.6158L277.727 100.162ZM283.627 105.539C283.355 106.114 282.912 106.596 282.362 106.914L280.948 102.699C281.553 102.632 282.159 102.689 282.73 102.865C282.95 102.943 283.147 103.072 283.306 103.241C283.466 103.41 283.583 103.614 283.65 103.84C283.856 104.378 283.847 104.985 283.627 105.539Z" fill="#DD4F05"/>
</g>
<g clip-path="url(#clip7_2_101)">
<path d="M313.947 241.97C313.286 241.549 312.52 241.308 311.722 241.271C310.744 241.244 309.761 241.299 308.783 241.433L307.068 236.32C308.53 235.991 310.032 236.075 311.406 236.564L311.715 233.946C310.932 233.647 310.096 233.491 309.245 233.485C308.299 233.473 307.35 233.589 306.422 233.829L305.553 231.238L303.119 232.176L303.997 234.793C303.092 235.259 302.286 235.91 301.633 236.7C301.042 237.412 300.625 238.249 300.416 239.139C300.222 240.004 300.269 240.894 300.553 241.707C300.808 242.61 301.361 243.384 302.124 243.906C302.813 244.348 303.611 244.599 304.444 244.637C305.439 244.669 306.44 244.616 307.435 244.48L309.079 249.38C307.395 249.89 305.623 249.877 304.001 249.341L303.694 251.962C304.603 252.27 305.567 252.412 306.543 252.381C307.613 252.35 308.681 252.171 309.717 251.848L310.579 254.417L313.013 253.479L312.135 250.862C313.438 250.195 314.513 249.132 315.2 247.832C315.499 247.249 315.677 246.616 315.723 245.973C315.77 245.33 315.683 244.691 315.469 244.097C315.222 243.224 314.686 242.475 313.947 241.97ZM306.503 241.701C305.85 241.751 305.201 241.672 304.593 241.466C304.348 241.373 304.129 241.225 303.953 241.033C303.777 240.841 303.647 240.61 303.573 240.356C303.365 239.796 303.391 239.164 303.646 238.599C303.936 237.997 304.402 237.492 304.978 237.154L306.503 241.701ZM312.402 247.077C312.131 247.652 311.688 248.134 311.138 248.453L309.724 244.238C310.329 244.171 310.935 244.227 311.505 244.403C311.725 244.482 311.922 244.61 312.082 244.779C312.241 244.948 312.359 245.153 312.426 245.378C312.631 245.916 312.623 246.523 312.402 247.077Z" fill="#DD4F05"/>
</g>
<g clip-path="url(#clip8_2_101)">
<path d="M325.797 356.083C325.402 355.375 324.836 354.772 324.151 354.331C323.303 353.808 322.415 353.354 321.496 352.972L322.262 347.601C323.693 348.058 324.976 348.901 325.967 350.032L327.402 347.889C326.847 347.226 326.182 346.662 325.436 346.222C324.61 345.728 323.724 345.345 322.802 345.081L323.19 342.359L320.633 341.94L320.241 344.689C319.238 344.637 318.241 344.796 317.315 345.157C316.479 345.482 315.74 346.004 315.16 346.68C314.605 347.341 314.251 348.147 314.139 349.007C313.962 349.931 314.104 350.894 314.542 351.743C314.951 352.483 315.541 353.112 316.257 353.571C317.117 354.108 318.02 354.573 318.956 354.962L318.222 360.109C316.514 359.697 314.963 358.78 313.776 357.48L312.34 359.627C313.002 360.362 313.787 360.98 314.658 361.451C315.612 361.971 316.631 362.359 317.685 362.605L317.3 365.304L319.857 365.723L320.249 362.974C321.691 363.053 323.109 362.668 324.291 361.877C324.813 361.517 325.251 361.051 325.578 360.51C325.904 359.968 326.112 359.363 326.188 358.731C326.359 357.837 326.221 356.905 325.797 356.083ZM319.372 352.042C318.776 351.753 318.241 351.352 317.798 350.86C317.624 350.653 317.497 350.411 317.428 350.152C317.358 349.893 317.347 349.624 317.394 349.363C317.461 348.764 317.765 348.222 318.24 347.855C318.763 347.475 319.397 347.269 320.054 347.266L319.372 352.042ZM322.167 359.783C321.673 360.15 321.069 360.347 320.444 360.346L321.076 355.918C321.637 356.169 322.145 356.528 322.568 356.974C322.726 357.156 322.842 357.369 322.907 357.599C322.972 357.829 322.985 358.069 322.943 358.302C322.885 358.88 322.608 359.409 322.167 359.783Z" fill="#DD4F05"/>
</g>
<g clip-path="url(#clip9_2_101)">
<path d="M265.123 352.688C264.531 352.161 263.81 351.794 263.027 351.622C262.065 351.431 261.087 351.319 260.102 351.286L259.16 345.947C260.651 345.869 262.123 346.206 263.407 346.921L264.097 344.388C263.368 343.961 262.565 343.666 261.725 343.516C260.794 343.344 259.839 343.298 258.888 343.379L258.41 340.673L255.868 341.188L256.351 343.921C255.389 344.229 254.497 344.735 253.736 345.405C253.048 346.009 252.513 346.765 252.176 347.608C251.857 348.429 251.773 349.316 251.934 350.168C252.053 351.101 252.486 351.959 253.162 352.604C253.778 353.156 254.529 353.539 255.346 353.717C256.324 353.917 257.32 354.034 258.323 354.067L259.226 359.183C257.488 359.404 255.74 359.091 254.218 358.288L253.529 360.824C254.382 361.282 255.313 361.585 256.281 361.719C257.342 361.87 258.423 361.873 259.494 361.729L259.967 364.411L262.509 363.896L262.026 361.163C263.411 360.725 264.629 359.857 265.499 358.689C265.879 358.164 266.148 357.568 266.288 356.941C266.429 356.314 266.437 355.669 266.313 355.046C266.197 354.142 265.778 353.312 265.123 352.688ZM257.811 351.165C257.159 351.106 256.529 350.917 255.959 350.611C255.731 350.478 255.537 350.295 255.391 350.076C255.245 349.856 255.151 349.606 255.115 349.343C254.992 348.755 255.111 348.135 255.445 347.62C255.82 347.075 256.355 346.655 256.973 346.418L257.811 351.165ZM262.846 357.471C262.494 357.993 261.985 358.394 261.396 358.616L260.619 354.215C261.226 354.251 261.816 354.409 262.353 354.679C262.559 354.794 262.735 354.954 262.868 355.148C263 355.341 263.086 355.563 263.119 355.798C263.243 356.363 263.146 356.961 262.846 357.471Z" fill="#DD4F05"/>
</g>
<g clip-path="url(#clip10_2_101)">
<path d="M333.734 257.727C333.072 257.306 332.306 257.065 331.508 257.028C330.53 257.001 329.547 257.055 328.57 257.19L326.855 252.077C328.316 251.747 329.819 251.832 331.192 252.321L331.501 249.703C330.719 249.404 329.883 249.248 329.031 249.242C328.086 249.23 327.137 249.346 326.209 249.586L325.339 246.995L322.905 247.933L323.783 250.55C322.878 251.016 322.072 251.666 321.419 252.457C320.829 253.169 320.411 254.006 320.202 254.896C320.008 255.761 320.055 256.65 320.339 257.464C320.594 258.366 321.148 259.141 321.91 259.663C322.599 260.104 323.398 260.356 324.231 260.394C325.226 260.425 326.226 260.373 327.222 260.237L328.865 265.136C327.181 265.647 325.409 265.634 323.788 265.098L323.48 267.719C324.39 268.027 325.354 268.168 326.329 268.138C327.399 268.107 328.467 267.928 329.504 267.605L330.365 270.174L332.799 269.236L331.922 266.619C333.225 265.952 334.3 264.889 334.987 263.589C335.285 263.006 335.464 262.373 335.51 261.73C335.556 261.087 335.47 260.448 335.256 259.854C335.009 258.981 334.473 258.232 333.734 257.727ZM326.289 257.457C325.637 257.508 324.988 257.429 324.379 257.223C324.134 257.13 323.916 256.982 323.74 256.79C323.563 256.598 323.433 256.367 323.359 256.113C323.151 255.553 323.178 254.921 323.432 254.356C323.723 253.754 324.189 253.249 324.764 252.911L326.289 257.457ZM332.189 262.834C331.917 263.409 331.474 263.891 330.924 264.21L329.51 259.994C330.115 259.927 330.721 259.984 331.292 260.16C331.512 260.238 331.709 260.367 331.868 260.536C332.028 260.705 332.145 260.91 332.212 261.135C332.418 261.673 332.409 262.28 332.189 262.834Z" fill="#DD4F05"/>
</g>
<g clip-path="url(#clip11_2_101)">
<path d="M277.225 256.368C276.683 255.782 275.999 255.343 275.235 255.091C274.295 254.801 273.331 254.589 272.353 254.455L271.894 249.043C273.385 249.119 274.82 249.606 276.035 250.45L276.948 248C276.261 247.5 275.488 247.123 274.666 246.888C273.754 246.621 272.808 246.477 271.853 246.459L271.62 243.716L269.045 243.967L269.28 246.737C268.294 246.944 267.362 247.356 266.544 247.945C265.805 248.475 265.205 249.172 264.793 249.977C264.402 250.762 264.24 251.635 264.323 252.5C264.358 253.442 264.712 254.34 265.327 255.052C265.89 255.665 266.604 256.123 267.401 256.385C268.357 256.684 269.338 256.903 270.333 257.04L270.773 262.225C269.024 262.265 267.312 261.774 265.868 260.818L264.955 263.272C265.763 263.815 266.663 264.212 267.614 264.446C268.657 264.705 269.733 264.819 270.812 264.786L271.042 267.505L273.618 267.254L273.383 264.485C274.801 264.191 276.091 263.452 277.061 262.38C277.487 261.896 277.808 261.331 278.004 260.721C278.2 260.111 278.266 259.47 278.198 258.838C278.164 257.926 277.821 257.056 277.225 256.368ZM270.083 254.098C269.44 253.972 268.83 253.719 268.29 253.356C268.075 253.2 267.898 252.998 267.772 252.764C267.647 252.531 267.575 252.272 267.563 252.007C267.494 251.409 267.667 250.804 268.046 250.326C268.469 249.822 269.038 249.458 269.675 249.287L270.083 254.098ZM274.53 260.894C274.132 261.377 273.59 261.724 272.984 261.884L272.605 257.423C273.206 257.521 273.779 257.739 274.29 258.064C274.485 258.199 274.645 258.377 274.76 258.583C274.874 258.79 274.94 259.02 274.952 259.256C275.025 259.832 274.874 260.417 274.53 260.894Z" fill="#DD4F05"/>
</g>
<g clip-path="url(#clip12_2_101)">
<path d="M247.239 292.876C246.577 292.455 245.811 292.215 245.013 292.177C244.035 292.151 243.052 292.205 242.075 292.339L240.36 287.226C241.821 286.897 243.324 286.982 244.697 287.471L245.006 284.853C244.224 284.554 243.388 284.398 242.536 284.392C241.591 284.38 240.642 284.496 239.714 284.736L238.844 282.144L236.41 283.082L237.288 285.699C236.383 286.166 235.577 286.816 234.924 287.607C234.334 288.319 233.916 289.156 233.707 290.046C233.513 290.911 233.56 291.8 233.844 292.614C234.099 293.516 234.653 294.29 235.415 294.813C236.104 295.254 236.903 295.506 237.736 295.543C238.731 295.575 239.731 295.523 240.727 295.386L242.37 300.286C240.686 300.797 238.914 300.783 237.293 300.248L236.985 302.869C237.895 303.176 238.859 303.318 239.834 303.288C240.904 303.257 241.972 303.077 243.009 302.754L243.87 305.324L246.304 304.385L245.427 301.768C246.73 301.101 247.805 300.039 248.492 298.739C248.79 298.156 248.969 297.522 249.015 296.879C249.061 296.236 248.975 295.598 248.761 295.004C248.514 294.131 247.978 293.381 247.239 292.876ZM239.794 292.607C239.142 292.658 238.493 292.578 237.884 292.373C237.639 292.279 237.421 292.131 237.245 291.939C237.068 291.748 236.938 291.517 236.864 291.263C236.656 290.703 236.683 290.071 236.937 289.505C237.228 288.904 237.694 288.398 238.269 288.061L239.794 292.607ZM245.694 297.984C245.422 298.559 244.979 299.041 244.429 299.359L243.015 295.144C243.62 295.077 244.226 295.133 244.797 295.31C245.017 295.388 245.214 295.517 245.373 295.686C245.533 295.854 245.65 296.059 245.717 296.285C245.923 296.823 245.914 297.43 245.694 297.984Z" fill="#DD4F05"/>
</g>
</g>
<defs>
<clipPath id="clip0_2_101">
<rect width="460" height="334" fill="white" transform="translate(10 36)"/>
</clipPath>
<clipPath id="clip1_2_101">
<rect width="13.6028" height="23.5821" fill="white" transform="matrix(0.980044 -0.198781 0.173811 0.984779 289.837 329.598)"/>
</clipPath>
<clipPath id="clip2_2_101">
<rect width="13.5876" height="23.6052" fill="white" transform="matrix(0.98875 -0.149579 0.130516 0.991446 266.818 298.883)"/>
</clipPath>
<clipPath id="clip3_2_101">
<rect width="13.8942" height="23.129" fill="white" transform="matrix(0.801462 -0.598045 0.544589 0.838703 289.837 131.578)"/>
</clipPath>
<clipPath id="clip4_2_101">
<rect width="14.0147" height="22.9363" fill="white" transform="matrix(0.71876 -0.695259 0.643968 0.765053 230.493 57.8544)"/>
</clipPath>
<clipPath id="clip5_2_101">
<rect width="14.0147" height="22.9363" fill="white" transform="matrix(0.71876 -0.695259 0.643968 0.765053 114.02 121.498)"/>
</clipPath>
<clipPath id="clip6_2_101">
<rect width="13.6832" height="23.4589" fill="white" transform="matrix(0.933082 -0.359663 0.318006 0.948089 268.975 92.7066)"/>
</clipPath>
<clipPath id="clip7_2_101">
<rect width="13.6832" height="23.4589" fill="white" transform="matrix(0.933082 -0.359663 0.318006 0.948089 297.751 234.245)"/>
</clipPath>
<clipPath id="clip8_2_101">
<rect width="13.5909" height="23.6001" fill="white" transform="matrix(0.986828 0.161774 -0.141222 0.989978 314.995 341.016)"/>
</clipPath>
<clipPath id="clip9_2_101">
<rect width="13.6028" height="23.5821" fill="white" transform="matrix(0.980044 -0.198781 0.173811 0.984779 250.264 342.325)"/>
</clipPath>
<clipPath id="clip10_2_101">
<rect width="13.6832" height="23.4589" fill="white" transform="matrix(0.933082 -0.359663 0.318006 0.948089 317.538 250.002)"/>
</clipPath>
<clipPath id="clip11_2_101">
<rect width="13.5761" height="23.6226" fill="white" transform="matrix(0.995277 -0.0970796 0.0845737 0.996417 263.364 244.522)"/>
</clipPath>
<clipPath id="clip12_2_101">
<rect width="13.6832" height="23.4589" fill="white" transform="matrix(0.933082 -0.359663 0.318006 0.948089 231.043 285.151)"/>
</clipPath>
</defs>
</svg>
