<svg width="441" height="440" viewBox="0 0 441 440" fill="none" xmlns="http://www.w3.org/2000/svg">
<ellipse cx="220.5" cy="220" rx="220.5" ry="220" fill="#3DDD05" fill-opacity="0.21"/>
<g clip-path="url(#clip0_2_37)">
<path d="M78.173 360C109.749 360 135.346 357.908 135.346 355.327C135.346 352.746 109.749 350.653 78.173 350.653C46.5972 350.653 21 352.746 21 355.327C21 357.908 46.5972 360 78.173 360Z" fill="#E6E6E6"/>
<path d="M96.6903 150.339L73.8813 143.672C79.9719 137.513 82.6214 131.71 81.8299 126.265H96.6903V150.339Z" fill="#9F616A"/>
<path d="M99.1095 337.746L91.7419 338.857L82.8666 251.45L68.6973 338.487L61.0943 338.857V228.487H108.095L99.1095 337.746Z" fill="#2F2E41"/>
<path d="M64.9207 355.367C66.0771 355.402 67.2113 355.022 68.1427 354.286C69.0741 353.551 69.749 352.502 70.06 351.308L70.5981 342.702L69.5133 336.598C66.651 334.077 63.7573 334.129 60.8344 336.598L59.9024 349.383C59.8477 350.133 59.9358 350.887 60.1614 351.6C60.3869 352.312 60.7452 352.968 61.2145 353.528C61.6838 354.087 62.2543 354.539 62.8914 354.855C63.5285 355.171 64.2189 355.345 64.9207 355.367V355.367Z" fill="#2F2E41"/>
<path d="M95.3327 355.367C96.4892 355.402 97.6234 355.022 98.5548 354.286C99.4861 353.551 100.161 352.502 100.472 351.308L101.01 342.702L99.9253 336.598C97.063 334.077 94.1694 334.129 91.2465 336.598L90.3144 349.383C90.2598 350.133 90.3479 350.887 90.5734 351.6C90.799 352.312 91.1573 352.968 91.6266 353.528C92.0959 354.087 92.6664 354.539 93.3035 354.855C93.9406 355.171 94.631 355.345 95.3327 355.367V355.367Z" fill="#2F2E41"/>
<path d="M93.58 137.746C100.833 137.746 106.712 131.445 106.712 123.672C106.712 115.899 100.833 109.598 93.58 109.598C86.3271 109.598 80.4475 115.899 80.4475 123.672C80.4475 131.445 86.3271 137.746 93.58 137.746Z" fill="#9F616A"/>
<path d="M110.168 230.339H60.0576C66.5525 198.08 66.5343 172.1 61.3608 151.089C61.0313 149.751 61.1742 148.33 61.7622 147.098C62.3502 145.866 63.3418 144.911 64.5468 144.414L78.0284 138.857C82.0758 144.459 87.7874 146.906 96.6903 143.302L103.755 144.855C105.475 145.231 107.01 146.262 108.075 147.758C109.14 149.253 109.664 151.112 109.548 152.989C109.028 161.207 109.233 169.487 108.786 176.635C107.401 198.77 106.802 216.026 110.168 230.339Z" fill="#E6E6E6"/>
<path d="M86.6682 105.154C86.6682 105.154 94.2712 95.8945 103.257 104.783L105.676 105.524L103.948 107.006C103.948 107.006 112.933 111.45 112.242 120.709C112.242 120.709 110.86 120.339 110.168 120.709C109.477 121.08 109.132 125.154 109.132 125.154C109.132 125.154 108.095 122.191 107.749 121.82C107.404 121.45 102.565 125.894 94.6168 119.228C94.6168 119.228 92.1977 125.894 89.433 125.154C86.6682 124.413 82.8667 124.783 81.1387 129.598C81.1387 129.598 71.8077 108.117 86.6682 105.154Z" fill="#2F2E41"/>
<path d="M112.588 222.191L108.151 228.563C107.689 229.227 107.355 229.982 107.168 230.786C106.981 231.589 106.945 232.424 107.062 233.243C107.179 234.062 107.446 234.847 107.849 235.554C108.252 236.26 108.782 236.874 109.408 237.359V237.359C110.215 237.984 111.157 238.377 112.145 238.5C113.134 238.624 114.135 238.475 115.054 238.066C115.973 237.658 116.779 237.004 117.396 236.167C118.012 235.33 118.419 234.337 118.576 233.284L119.845 224.783L122.264 188.117L120.536 169.598L109.477 174.043L112.588 189.969V222.191Z" fill="#9F616A"/>
<path d="M108.095 178.487L121.573 171.82L120.882 166.573C120.882 162.228 119.656 157.985 117.366 154.401C115.075 150.816 111.827 148.058 108.047 146.487L103.948 144.783L108.095 178.487Z" fill="#E6E6E6"/>
<path d="M59.0208 220.709L63.4572 227.082C63.9192 227.745 64.2535 228.501 64.4406 229.304C64.6276 230.108 64.6637 230.943 64.5467 231.762C64.4298 232.58 64.1621 233.365 63.7592 234.072C63.3564 234.779 62.8264 235.392 62.2002 235.877V235.877C61.3938 236.502 60.4515 236.895 59.4632 237.019C58.4748 237.143 57.4734 236.993 56.5543 236.585C55.6351 236.176 54.8289 235.522 54.2124 234.685C53.596 233.848 53.1898 232.856 53.0326 231.803L51.7634 223.302L49.3443 186.635L51.0722 168.117L62.1312 172.561L59.0208 188.487V220.709Z" fill="#9F616A"/>
<path d="M63.5135 177.006L50.0354 170.339L50.7266 165.091C50.7266 160.747 51.9523 156.504 54.2428 152.919C56.5332 149.335 59.7814 146.576 63.5611 145.005L67.6606 143.302L63.5135 177.006Z" fill="#E6E6E6"/>
<path d="M416.366 318.719H185.736C184.772 318.718 183.849 318.307 183.168 317.577C182.486 316.847 182.103 315.857 182.102 314.825V207.339C182.103 206.306 182.486 205.316 183.168 204.586C183.849 203.856 184.772 203.445 185.736 203.444H416.366C417.33 203.445 418.253 203.856 418.935 204.586C419.616 205.316 419.999 206.306 420 207.339V314.825C419.999 315.857 419.616 316.847 418.935 317.577C418.253 318.307 417.33 318.718 416.366 318.719V318.719ZM185.736 205.002C185.158 205.003 184.604 205.249 184.195 205.687C183.786 206.125 183.556 206.719 183.556 207.339V314.825C183.556 315.444 183.786 316.038 184.195 316.476C184.604 316.914 185.158 317.161 185.736 317.161H416.366C416.944 317.161 417.498 316.914 417.907 316.476C418.316 316.038 418.546 315.444 418.546 314.825V207.339C418.546 206.719 418.316 206.125 417.907 205.687C417.498 205.249 416.944 205.003 416.366 205.002H185.736Z" fill="#E6E6E6"/>
<path d="M195.184 216.685C194.606 216.685 194.051 216.931 193.642 217.37C193.233 217.808 193.004 218.402 193.004 219.022C193.004 219.642 193.233 220.236 193.642 220.674C194.051 221.112 194.606 221.359 195.184 221.359H225.709C226.287 221.359 226.841 221.112 227.25 220.674C227.659 220.236 227.889 219.642 227.889 219.022C227.889 218.402 227.659 217.808 227.25 217.37C226.841 216.931 226.287 216.685 225.709 216.685H195.184Z" fill="#E6E6E6"/>
<path d="M404.152 232.935V276.267H198.314V253.452C199.739 252.471 201.173 251.495 202.62 250.551C208.799 246.498 215.414 242.708 222.622 241.303C226.032 240.622 229.525 240.575 232.949 241.165C236.566 241.805 240.028 243.141 243.456 244.481C246.836 245.807 250.225 247.175 253.761 247.944C257.206 248.669 260.743 248.744 264.212 248.165C270.831 247.101 277.049 244.251 283.241 241.672C289.472 239.079 295.893 236.629 302.637 236.307C309.294 235.984 315.87 237.67 322.187 239.761C335.067 244.02 348.218 250.339 361.856 246.005C375.705 241.612 388.442 228.929 403.79 232.691C403.935 232.72 404.065 232.807 404.152 232.935V232.935Z" fill="#E6E6E6"/>
<path d="M404.152 233.691C404.086 233.823 403.981 233.927 403.853 233.987C403.725 234.048 403.582 234.06 403.447 234.022C401.618 233.573 399.745 233.366 397.869 233.405C382.773 233.691 371.166 246.715 356.405 248.663C343.096 250.417 330.57 243.482 318.056 239.857C311.555 237.974 304.851 236.974 298.16 238.255C291.521 239.521 285.29 242.432 279.033 245.015C273.008 247.502 266.747 249.814 260.224 249.929C253.052 250.058 246.593 246.89 239.941 244.476C236.482 243.219 232.932 242.224 229.267 242.128C225.694 242.082 222.139 242.672 218.747 243.873C211.678 246.282 205.31 250.574 199.109 254.838C199.002 254.919 198.873 254.956 198.743 254.944C198.61 254.925 198.484 254.863 198.384 254.766C198.284 254.668 198.214 254.541 198.184 254.4C198.153 254.259 198.163 254.111 198.212 253.977C198.261 253.842 198.348 253.727 198.46 253.646L198.743 253.452C200.166 252.471 201.597 251.495 203.041 250.551C209.207 246.498 215.808 242.708 223.001 241.303C226.403 240.622 229.889 240.575 233.306 241.165C236.916 241.805 240.371 243.141 243.791 244.481C247.165 245.807 250.547 247.175 254.075 247.944C257.513 248.669 261.042 248.744 264.504 248.165C271.109 247.101 277.314 244.251 283.494 241.672C289.712 239.079 296.119 236.629 302.848 236.307C309.492 235.984 316.054 237.67 322.358 239.761C335.211 244.02 348.335 250.339 361.944 246.005C375.764 241.612 388.475 228.929 403.791 232.691C403.936 232.72 404.065 232.808 404.152 232.935C404.218 233.049 404.253 233.179 404.253 233.313C404.253 233.447 404.218 233.578 404.152 233.691V233.691Z" fill="#DD4F05"/>
<path d="M226.676 244.951C228.337 244.951 229.684 243.507 229.684 241.727C229.684 239.947 228.337 238.503 226.676 238.503C225.014 238.503 223.667 239.947 223.667 241.727C223.667 243.507 225.014 244.951 226.676 244.951Z" fill="#DD4F05"/>
<path d="M302.737 240.806C304.398 240.806 305.745 239.363 305.745 237.582C305.745 235.802 304.398 234.359 302.737 234.359C301.075 234.359 299.729 235.802 299.729 237.582C299.729 239.363 301.075 240.806 302.737 240.806Z" fill="#DD4F05"/>
<path d="M395.557 236.661C397.218 236.661 398.565 235.218 398.565 233.437C398.565 231.657 397.218 230.214 395.557 230.214C393.896 230.214 392.549 231.657 392.549 233.437C392.549 235.218 393.896 236.661 395.557 236.661Z" fill="#DD4F05"/>
<path d="M224.982 294.574C224.404 294.574 223.849 294.82 223.44 295.258C223.031 295.696 222.801 296.291 222.801 296.91C222.801 297.53 223.031 298.124 223.44 298.563C223.849 299.001 224.404 299.247 224.982 299.247H255.506C256.085 299.247 256.639 299.001 257.048 298.563C257.457 298.124 257.687 297.53 257.687 296.91C257.687 296.291 257.457 295.696 257.048 295.258C256.639 294.82 256.085 294.574 255.506 294.574H224.982Z" fill="#E6E6E6"/>
<path d="M205.359 305.478C209.908 305.478 213.596 301.526 213.596 296.651C213.596 291.776 209.908 287.823 205.359 287.823C200.81 287.823 197.122 291.776 197.122 296.651C197.122 301.526 200.81 305.478 205.359 305.478Z" fill="#DD4F05"/>
<path d="M298.628 294.574C298.05 294.574 297.496 294.82 297.087 295.258C296.678 295.696 296.448 296.291 296.448 296.91C296.448 297.53 296.678 298.124 297.087 298.563C297.496 299.001 298.05 299.247 298.628 299.247H329.153C329.731 299.247 330.286 299.001 330.695 298.563C331.104 298.124 331.333 297.53 331.333 296.91C331.333 296.291 331.104 295.696 330.695 295.258C330.286 294.82 329.731 294.574 329.153 294.574H298.628Z" fill="#E6E6E6"/>
<path d="M279.005 305.478C283.555 305.478 287.242 301.526 287.242 296.651C287.242 291.776 283.555 287.823 279.005 287.823C274.456 287.823 270.769 291.776 270.769 296.651C270.769 301.526 274.456 305.478 279.005 305.478Z" fill="#DD4F05"/>
<path d="M372.275 294.574C371.697 294.574 371.142 294.82 370.733 295.258C370.324 295.696 370.095 296.291 370.095 296.91C370.095 297.53 370.324 298.124 370.733 298.563C371.142 299.001 371.697 299.247 372.275 299.247H402.8C403.378 299.247 403.932 299.001 404.341 298.563C404.75 298.124 404.98 297.53 404.98 296.91C404.98 296.291 404.75 295.696 404.341 295.258C403.932 294.82 403.378 294.574 402.8 294.574H372.275Z" fill="#E6E6E6"/>
<path d="M352.652 305.478C357.201 305.478 360.889 301.526 360.889 296.651C360.889 291.776 357.201 287.823 352.652 287.823C348.103 287.823 344.415 291.776 344.415 296.651C344.415 301.526 348.103 305.478 352.652 305.478Z" fill="#DD4F05"/>
<path d="M400.58 174.423H286.797C284.579 174.423 282.781 173.05 282.779 171.359V144.855C282.781 143.164 284.579 141.792 286.797 141.792H400.58C402.798 141.792 404.596 143.164 404.598 144.855V171.359C404.596 173.05 402.798 174.421 400.58 174.423ZM286.797 143.016C285.466 143.016 284.387 143.839 284.386 144.854V171.357C284.386 172.372 285.466 173.195 286.797 173.196H400.58C401.911 173.196 402.99 172.372 402.991 171.357V144.855C402.991 143.84 401.911 143.018 400.58 143.017L286.797 143.016Z" fill="#E6E6E6"/>
<path d="M312.524 156.854C311.882 156.854 311.266 157.128 310.812 157.615C310.358 158.102 310.102 158.762 310.101 159.45V177.624C310.102 178.312 310.358 178.972 310.812 179.459C311.266 179.946 311.882 180.219 312.524 180.22H399.253C399.895 180.219 400.511 179.946 400.965 179.459C401.419 178.972 401.674 178.312 401.675 177.624V159.45C401.674 158.762 401.419 158.102 400.965 157.615C400.511 157.128 399.895 156.854 399.253 156.854H312.524Z" fill="#DD4F05"/>
<path d="M324.637 174.508C327.58 174.508 329.967 171.951 329.967 168.797C329.967 165.642 327.58 163.085 324.637 163.085C321.693 163.085 319.307 165.642 319.307 168.797C319.307 171.951 321.693 174.508 324.637 174.508Z" fill="white"/>
<path d="M348.927 166.317C348.348 166.317 347.794 166.564 347.385 167.002C346.976 167.44 346.746 168.034 346.746 168.654C346.746 169.274 346.976 169.868 347.385 170.306C347.794 170.744 348.348 170.991 348.927 170.991H379.451C380.029 170.991 380.584 170.744 380.993 170.306C381.402 169.868 381.632 169.274 381.632 168.654C381.632 168.034 381.402 167.44 380.993 167.002C380.584 166.564 380.029 166.317 379.451 166.317H348.927Z" fill="white"/>
<path d="M315.305 112.631H201.522C199.304 112.631 197.506 111.259 197.504 109.567V83.0636C197.506 81.3724 199.304 80 201.522 80H315.305C317.523 80 319.321 81.3724 319.323 83.0636V109.567C319.321 111.258 317.523 112.629 315.305 112.631ZM201.522 81.2244C200.191 81.2244 199.112 82.0479 199.111 83.0626V109.566C199.111 110.581 200.191 111.403 201.522 111.404H315.305C316.636 111.404 317.715 110.581 317.716 109.566V83.0636C317.716 82.049 316.636 81.2265 315.305 81.2254L201.522 81.2244Z" fill="#E6E6E6"/>
<path d="M227.249 95.0621C226.607 95.063 225.991 95.3368 225.537 95.8235C225.083 96.3102 224.827 96.9701 224.826 97.6584V115.832C224.827 116.521 225.083 117.181 225.537 117.667C225.991 118.154 226.607 118.428 227.249 118.429H313.977C314.62 118.428 315.236 118.154 315.69 117.667C316.144 117.181 316.399 116.521 316.4 115.832V97.6584C316.399 96.9701 316.144 96.3102 315.69 95.8235C315.236 95.3368 314.62 95.063 313.977 95.0621H227.249Z" fill="#DD4F05"/>
<path d="M239.362 112.717C242.305 112.717 244.691 110.16 244.691 107.005C244.691 103.85 242.305 101.293 239.362 101.293C236.418 101.293 234.032 103.85 234.032 107.005C234.032 110.16 236.418 112.717 239.362 112.717Z" fill="white"/>
<path d="M263.652 104.526C263.073 104.526 262.519 104.772 262.11 105.21C261.701 105.648 261.471 106.243 261.471 106.862C261.471 107.482 261.701 108.077 262.11 108.515C262.519 108.953 263.073 109.199 263.652 109.199H294.176C294.754 109.199 295.309 108.953 295.718 108.515C296.127 108.077 296.356 107.482 296.356 106.862C296.356 106.243 296.127 105.648 295.718 105.21C295.309 104.772 294.754 104.526 294.176 104.526H263.652Z" fill="white"/>
</g>
<defs>
<clipPath id="clip0_2_37">
<rect width="399" height="280" fill="white" transform="translate(21 80)"/>
</clipPath>
</defs>
</svg>
