<svg width="440" height="441" viewBox="0 0 440 441" fill="none" xmlns="http://www.w3.org/2000/svg">
<ellipse cx="220" cy="220.5" rx="220" ry="220.5" fill="#40196D" fill-opacity="0.21"/>
<path d="M271.465 347.879C268.331 343.849 264.087 340.9 258.753 339.796C254.101 338.834 249.318 338.998 244.59 339.031L184.801 339.455C179.68 339.491 174.77 343.564 175.008 348.446C175.244 353.286 179.312 357.475 184.801 357.437C202.315 357.313 219.829 357.189 237.343 357.065C241.472 357.035 245.603 356.967 249.732 356.979C250.66 356.982 251.583 357.027 252.509 357.037C252.734 357.039 252.896 357.037 253.01 357.033C253.039 357.041 253.063 357.048 253.1 357.057C253.584 357.179 254.079 357.263 254.566 357.379C254.395 357.384 254.881 357.662 255.125 357.756C255.158 357.817 255.23 357.924 255.349 358.09C255.515 358.377 256.008 359.247 256.028 359.22C256.769 360.939 257.38 362.702 257.856 364.498C258.994 368.458 259.244 369.286 259.408 373.001C259.615 377.694 263.764 382.216 269.2 381.992C274.328 381.781 279.215 378.035 278.993 373.001C278.619 364.519 276.997 354.992 271.465 347.879Z" fill="#E6E6E6"/>
<path d="M188.798 367.161C187.668 360.929 186.56 354.692 185.408 348.464C184.239 342.145 181.852 336.358 176.45 332.211C175.006 331.103 173.509 330.069 172.006 329.037C171.478 328.675 170.95 328.312 170.428 327.941C170.397 327.919 170.377 327.905 170.35 327.886C170.292 327.841 170.223 327.788 170.131 327.716C167.879 325.982 165.704 324.17 163.631 322.244C161.791 320.534 160.031 318.751 158.351 316.894C157.931 316.431 157.517 315.963 157.108 315.491C157.038 315.41 156.659 314.964 156.409 314.674C156.177 314.383 155.753 313.857 155.682 313.765C155.204 313.15 154.735 312.53 154.274 311.903C151.136 307.624 148.419 303.101 146.154 298.387C145.929 297.92 145.71 297.449 145.496 296.976C145.439 296.832 145.364 296.647 145.266 296.4C144.809 295.257 144.354 294.116 143.937 292.96C143.05 290.505 142.288 288.013 141.65 285.486C141.334 284.237 141.05 282.983 140.798 281.722C140.668 281.074 140.546 280.424 140.433 279.773C140.414 279.665 140.303 278.962 140.238 278.565C140.19 278.166 140.1 277.46 140.088 277.351C140.016 276.695 139.952 276.038 139.896 275.38C139.77 273.901 139.685 272.418 139.641 270.934C139.565 268.295 139.617 265.657 139.796 263.019C139.899 261.537 140.044 260.058 140.223 258.582C140.234 258.492 140.243 258.42 140.25 258.355C140.261 258.289 140.274 258.214 140.289 258.121C140.422 257.305 140.561 256.491 140.717 255.679C141.308 252.597 142.077 249.545 143.02 246.536C143.466 245.113 143.951 243.701 144.475 242.301C144.708 241.68 144.949 241.06 145.197 240.444C145.18 240.484 145.925 238.753 145.935 238.695C148.887 232.346 153.716 226.557 153.723 219.344C153.728 214.46 149.188 209.782 143.871 210.008C141.22 210.099 138.711 211.123 136.873 212.864C135.035 214.606 134.012 216.929 134.019 219.344C134.019 219.454 134.018 219.547 134.018 219.638C133.968 219.79 133.927 219.917 133.889 220.029C133.314 221.168 132.608 222.25 131.976 223.361C130.246 226.401 128.768 229.54 127.365 232.726C125.068 237.913 123.31 243.285 122.113 248.771C119.512 260.791 119.311 273.14 121.517 285.225C125.337 306.418 137.934 326.705 155.448 340.342C156.967 341.525 158.524 342.669 160.096 343.79C160.746 344.253 161.402 344.708 162.061 345.16C162.373 345.374 163.663 346.3 163.095 345.852C164.316 346.8 164.83 347.277 165.143 347.975C165.189 348.137 165.251 348.355 165.335 348.654C165.556 349.442 165.766 350.228 165.94 351.026C167.464 358.005 168.524 365.101 169.797 372.125C170.672 376.951 177.2 380.092 181.917 378.646C187.407 376.962 189.736 372.332 188.798 367.161Z" fill="#E6E6E6"/>
<path d="M272.143 386C268.061 386.01 264.141 384.52 261.244 381.858C258.347 379.196 256.709 375.579 256.689 371.8V361.536C245.081 362.739 205.331 362.46 193.937 360.765V371.389C193.906 375.165 192.264 378.777 189.369 381.437C186.474 384.097 182.561 385.59 178.482 385.59C174.404 385.59 170.49 384.097 167.595 381.437C164.7 378.777 163.059 375.165 163.028 371.389V350.53C147.595 342.593 134.73 330.988 125.76 316.911C116.79 302.835 112.04 286.798 112 270.454C112 242.431 125.719 216.29 149.638 198.733C165.191 187.279 184.087 180.39 203.9 178.952C206.589 178.757 209.295 178.658 211.942 178.658C221.268 178.658 263.346 179.992 273.903 182.803L297.976 160.69C298.33 160.36 298.782 160.136 299.274 160.045C299.767 159.954 300.277 160.001 300.74 160.18C301.207 160.352 301.607 160.651 301.887 161.037C302.167 161.423 302.315 161.878 302.31 162.343V165.859L306.998 161.562C307.351 161.232 307.802 161.007 308.294 160.916C308.786 160.825 309.296 160.872 309.759 161.051C310.227 161.223 310.627 161.521 310.907 161.907C311.188 162.294 311.336 162.749 311.331 163.215V202.505C323.411 212.586 332.617 225.271 338.135 239.434C343.653 253.597 345.312 268.801 342.965 283.7C340.617 298.598 334.336 312.73 324.678 324.844C315.02 336.958 302.284 346.679 287.597 353.146V371.8C287.577 375.579 285.939 379.196 283.042 381.858C280.144 384.52 276.225 386.01 272.143 386V386ZM257.904 360.26V371.8C257.934 375.277 259.448 378.603 262.115 381.052C264.782 383.501 268.386 384.875 272.143 384.875C275.899 384.875 279.504 383.501 282.171 381.052C284.838 378.603 286.351 375.277 286.382 371.8V352.436L286.729 352.284C303.208 345.044 317.198 333.718 327.145 319.564C339.82 301.501 345.091 279.834 342.004 258.485C338.918 237.137 327.678 217.516 310.318 203.174L310.116 203.007V163.215C310.121 162.973 310.045 162.736 309.899 162.535C309.753 162.335 309.545 162.18 309.301 162.093C309.059 161.997 308.792 161.971 308.533 162.018C308.275 162.066 308.039 162.184 307.855 162.359L301.095 168.556V162.343C301.1 162.101 301.024 161.864 300.878 161.664C300.732 161.463 300.524 161.308 300.28 161.221C300.038 161.125 299.769 161.1 299.511 161.148C299.252 161.195 299.015 161.314 298.831 161.489L274.243 184.076L273.893 183.975C264.079 181.131 221.339 179.783 211.942 179.783C209.326 179.783 206.652 179.88 203.995 180.073C184.423 181.494 165.757 188.299 150.393 199.614C126.766 216.956 113.215 242.777 113.215 270.454C113.255 286.653 117.98 302.546 126.898 316.483C135.817 330.42 148.603 341.892 163.93 349.707L164.243 349.868V371.389C164.274 374.867 165.788 378.191 168.455 380.64C171.122 383.088 174.726 384.462 178.482 384.462C182.238 384.462 185.842 383.088 188.509 380.64C191.176 378.191 192.69 374.867 192.722 371.389V359.419L193.441 359.544C203.681 361.328 246.797 361.609 257.217 360.344L257.904 360.26Z" fill="#3F3D56"/>
<path d="M189.278 117.157L121.998 135.788C119.858 136.383 118.062 137.736 117.004 139.551C115.946 141.365 115.714 143.492 116.357 145.465C117 147.437 118.467 149.094 120.435 150.071C122.403 151.047 124.711 151.264 126.852 150.674L185.73 134.366L186.963 134.024C187.213 128.168 188.937 122.445 192 117.308C191.616 117.148 191.205 117.05 190.785 117.017C190.278 116.971 189.766 117.019 189.278 117.157Z" fill="#DD4F05"/>
<path d="M126.396 155C125.509 154.998 124.646 154.732 123.927 154.24C123.209 153.748 122.672 153.054 122.392 152.257L118.214 140.32C118.04 139.822 117.971 139.296 118.011 138.772C118.051 138.248 118.2 137.737 118.449 137.268C118.698 136.798 119.042 136.38 119.462 136.037C119.881 135.693 120.368 135.432 120.895 135.267L175.267 118.203C175.794 118.038 176.349 117.972 176.902 118.011C177.456 118.049 177.995 118.19 178.491 118.425C178.986 118.661 179.428 118.987 179.791 119.384C180.153 119.781 180.43 120.242 180.604 120.741L184.782 132.678C185.129 133.659 185.06 134.731 184.588 135.665C184.115 136.599 183.278 137.322 182.252 137.681C182.202 137.699 182.151 137.716 182.1 137.732L127.729 154.795C127.299 154.93 126.849 155 126.396 155Z" fill="#2F2E41"/>
<path d="M229 96C217.825 96.004 207.091 100.002 199.069 107.148C191.047 114.294 186.366 124.027 186.018 134.287C186.006 134.687 186 135.094 186 135.5C186 143.312 188.522 150.949 193.247 157.445C197.972 163.941 204.687 169.004 212.545 171.993C220.402 174.983 229.048 175.765 237.389 174.241C245.73 172.717 253.392 168.955 259.406 163.431C265.419 157.907 269.515 150.868 271.174 143.206C272.833 135.544 271.981 127.602 268.727 120.384C265.472 113.166 259.961 106.997 252.89 102.657C245.818 98.3166 237.505 96 229 96V96ZM229 173.871C217.925 173.861 207.307 169.815 199.476 162.621C191.645 155.427 187.24 145.673 187.229 135.5C187.229 134.975 187.241 134.456 187.265 133.943C187.598 126.426 190.329 119.165 195.117 113.063C199.906 106.961 206.542 102.286 214.2 99.6206C221.858 96.9549 230.2 96.4159 238.188 98.0704C246.177 99.7249 253.46 103.5 259.131 108.926C264.803 114.353 268.613 121.191 270.088 128.59C271.563 135.99 270.638 143.625 267.427 150.545C264.216 157.465 258.862 163.366 252.03 167.513C245.198 171.661 237.189 173.872 229 173.871V173.871Z" fill="#3F3D56"/>
<path d="M265 135.5C265 144.385 261.154 152.906 254.309 159.188C247.464 165.471 238.18 169 228.5 169C218.82 169 209.536 165.471 202.691 159.188C195.846 152.906 192 144.385 192 135.5C192 134.438 192.056 133.393 192.161 132.36C193.04 123.785 197.484 115.851 204.57 110.204C211.656 104.558 220.839 101.633 230.212 102.037C239.586 102.441 248.43 106.143 254.908 112.374C261.386 118.606 265 126.887 265 135.5V135.5Z" fill="#E6E6E6"/>
<path d="M239.647 137.688C238.78 136.639 237.64 135.807 236.332 135.271C234.719 134.645 233.053 134.141 231.35 133.764V124.798C233.967 125.162 236.421 126.192 238.435 127.774L240.41 123.894C239.274 122.961 237.97 122.219 236.556 121.7C234.989 121.115 233.344 120.727 231.665 120.544V116H227.09V120.589C225.323 120.772 223.619 121.299 222.09 122.135C220.71 122.888 219.547 123.938 218.703 125.195C217.897 126.421 217.479 127.831 217.497 129.264C217.418 130.818 217.907 132.351 218.885 133.619C219.785 134.716 220.973 135.585 222.339 136.142C223.978 136.787 225.672 137.304 227.405 137.688V146.28C224.318 146.065 221.375 144.984 218.975 143.182L217 147.067C218.342 148.089 219.868 148.886 221.509 149.423C223.307 150.016 225.185 150.376 227.09 150.495V155H231.665V150.411C234.207 150.155 236.59 149.149 238.459 147.542C239.282 146.815 239.932 145.938 240.368 144.967C240.804 143.997 241.017 142.953 240.992 141.903C241.068 140.399 240.594 138.915 239.647 137.688V137.688ZM227.405 132.815C226.291 132.503 225.254 131.991 224.357 131.307C224.001 131.016 223.72 130.656 223.534 130.252C223.347 129.849 223.26 129.412 223.278 128.974C223.245 127.98 223.642 127.014 224.381 126.289C225.201 125.528 226.258 125.022 227.405 124.843V132.815ZM234.223 144.695C233.45 145.425 232.443 145.908 231.35 146.073V138.682C232.395 138.94 233.372 139.39 234.223 140.005C234.545 140.259 234.802 140.576 234.973 140.934C235.144 141.292 235.225 141.68 235.211 142.071C235.253 143.029 234.9 143.966 234.223 144.695V144.695Z" fill="#DD4F05"/>
<path d="M220.647 299.688C219.78 298.639 218.64 297.807 217.332 297.271C215.719 296.645 214.053 296.141 212.35 295.764V286.798C214.967 287.162 217.421 288.192 219.435 289.774L221.41 285.894C220.274 284.961 218.97 284.219 217.556 283.7C215.989 283.115 214.344 282.727 212.665 282.544V278H208.09V282.589C206.323 282.772 204.619 283.299 203.09 284.135C201.71 284.888 200.547 285.938 199.703 287.195C198.897 288.421 198.479 289.831 198.497 291.264C198.418 292.818 198.907 294.351 199.885 295.619C200.785 296.716 201.973 297.585 203.339 298.142C204.978 298.787 206.672 299.304 208.405 299.688V308.28C205.318 308.065 202.375 306.984 199.975 305.182L198 309.067C199.342 310.089 200.868 310.886 202.509 311.423C204.307 312.016 206.185 312.376 208.09 312.495V317H212.665V312.411C215.207 312.155 217.59 311.149 219.459 309.542C220.282 308.815 220.932 307.938 221.368 306.967C221.804 305.997 222.017 304.953 221.992 303.903C222.068 302.399 221.594 300.915 220.647 299.688V299.688ZM208.405 294.815C207.291 294.503 206.254 293.991 205.357 293.307C205.001 293.016 204.72 292.656 204.534 292.252C204.347 291.849 204.26 291.412 204.278 290.974C204.245 289.98 204.642 289.014 205.381 288.289C206.201 287.528 207.258 287.022 208.405 286.843V294.815ZM215.223 306.695C214.45 307.425 213.443 307.908 212.35 308.073V300.682C213.395 300.94 214.372 301.39 215.223 302.005C215.545 302.259 215.802 302.576 215.973 302.934C216.144 303.292 216.225 303.68 216.211 304.071C216.253 305.029 215.9 305.966 215.223 306.695V306.695Z" fill="#DD4F05"/>
<path d="M287.647 308.688C286.78 307.639 285.64 306.807 284.332 306.271C282.719 305.645 281.053 305.141 279.35 304.764V295.798C281.967 296.162 284.421 297.192 286.435 298.774L288.41 294.894C287.274 293.961 285.97 293.219 284.556 292.7C282.989 292.115 281.344 291.727 279.665 291.544V287H275.09V291.589C273.323 291.772 271.619 292.299 270.09 293.135C268.71 293.888 267.547 294.938 266.703 296.195C265.897 297.421 265.479 298.831 265.497 300.264C265.418 301.818 265.907 303.351 266.885 304.619C267.785 305.716 268.973 306.585 270.339 307.142C271.978 307.787 273.672 308.304 275.405 308.688V317.28C272.318 317.065 269.375 315.984 266.975 314.182L265 318.067C266.342 319.089 267.868 319.886 269.509 320.423C271.307 321.016 273.185 321.376 275.09 321.495V326H279.665V321.411C282.207 321.155 284.59 320.149 286.459 318.542C287.282 317.815 287.932 316.938 288.368 315.967C288.804 314.997 289.017 313.953 288.992 312.903C289.068 311.399 288.594 309.915 287.647 308.688V308.688ZM275.405 303.815C274.291 303.503 273.254 302.991 272.357 302.307C272.001 302.016 271.72 301.656 271.534 301.252C271.347 300.849 271.26 300.412 271.278 299.974C271.245 298.98 271.642 298.014 272.381 297.289C273.201 296.528 274.258 296.022 275.405 295.843V303.815ZM282.223 315.695C281.45 316.425 280.443 316.908 279.35 317.073V309.682C280.395 309.94 281.372 310.39 282.223 311.005C282.545 311.259 282.802 311.576 282.973 311.934C283.144 312.292 283.225 312.68 283.211 313.071C283.253 314.029 282.9 314.966 282.223 315.695V315.695Z" fill="#DD4F05"/>
<path d="M251.647 249.244C250.78 248.168 249.64 247.315 248.332 246.765C246.719 246.123 245.053 245.606 243.35 245.219V236.024C245.967 236.397 248.421 237.454 250.435 239.076L252.41 235.096C251.274 234.14 249.97 233.378 248.556 232.846C246.989 232.247 245.344 231.848 243.665 231.661V227H239.09V231.707C237.323 231.894 235.619 232.435 234.09 233.293C232.71 234.065 231.547 235.141 230.703 236.43C229.897 237.688 229.479 239.134 229.497 240.604C229.418 242.198 229.907 243.77 230.885 245.07C231.785 246.196 232.973 247.087 234.339 247.658C235.978 248.32 237.672 248.85 239.405 249.244V258.056C236.318 257.836 233.375 256.727 230.975 254.879L229 258.864C230.342 259.912 231.868 260.73 233.509 261.28C235.307 261.888 237.185 262.258 239.09 262.379V267H243.665V262.293C246.207 262.031 248.59 260.999 250.459 259.35C251.282 258.605 251.932 257.706 252.368 256.71C252.804 255.715 253.017 254.645 252.992 253.567C253.068 252.025 252.594 250.503 251.647 249.244V249.244ZM239.405 244.246C238.291 243.927 237.254 243.401 236.357 242.7C236.001 242.401 235.72 242.031 235.534 241.618C235.347 241.204 235.26 240.756 235.278 240.307C235.245 239.287 235.642 238.296 236.381 237.553C237.201 236.772 238.258 236.254 239.405 236.07V244.246ZM246.223 256.43C245.45 257.179 244.443 257.675 243.35 257.845V250.264C244.395 250.528 245.372 250.99 246.223 251.621C246.545 251.881 246.802 252.207 246.973 252.573C247.144 252.94 247.225 253.339 247.211 253.739C247.253 254.722 246.9 255.683 246.223 256.43V256.43Z" fill="#DD4F05"/>
<path d="M166.647 284.688C165.78 283.639 164.64 282.807 163.332 282.271C161.719 281.645 160.053 281.141 158.35 280.764V271.798C160.967 272.162 163.421 273.192 165.435 274.774L167.41 270.894C166.274 269.961 164.97 269.219 163.556 268.7C161.989 268.115 160.344 267.727 158.665 267.544V263H154.09V267.589C152.323 267.772 150.619 268.299 149.09 269.135C147.71 269.888 146.547 270.938 145.703 272.195C144.897 273.421 144.479 274.831 144.497 276.264C144.418 277.818 144.907 279.351 145.885 280.619C146.785 281.716 147.973 282.585 149.339 283.142C150.978 283.787 152.672 284.304 154.405 284.688V293.28C151.318 293.065 148.375 291.984 145.975 290.182L144 294.067C145.342 295.089 146.868 295.886 148.509 296.423C150.307 297.016 152.185 297.376 154.09 297.495V302H158.665V297.411C161.207 297.155 163.59 296.149 165.459 294.542C166.282 293.815 166.932 292.938 167.368 291.967C167.804 290.997 168.017 289.953 167.992 288.903C168.068 287.399 167.594 285.915 166.647 284.688V284.688ZM154.405 279.815C153.291 279.503 152.254 278.991 151.357 278.307C151.001 278.016 150.72 277.656 150.534 277.252C150.347 276.849 150.26 276.412 150.278 275.974C150.245 274.98 150.642 274.014 151.381 273.289C152.201 272.528 153.258 272.022 154.405 271.843V279.815ZM161.223 291.695C160.45 292.425 159.443 292.908 158.35 293.073V285.682C159.395 285.94 160.372 286.39 161.223 287.005C161.545 287.259 161.802 287.576 161.973 287.934C162.144 288.292 162.225 288.68 162.211 289.071C162.253 290.029 161.9 290.966 161.223 291.695V291.695Z" fill="#DD4F05"/>
<path d="M127.582 202C126.637 201.999 125.72 201.715 124.972 201.194C124.224 200.673 123.687 199.942 123.444 199.117L121.141 191.228C120.853 190.236 121.011 189.182 121.58 188.296C122.15 187.409 123.085 186.764 124.18 186.501L196.826 169.126C197.923 168.867 199.088 169.011 200.066 169.528C201.045 170.044 201.758 170.891 202.049 171.882L204 178.565L203.635 178.591C185.003 179.902 167.176 186.016 152.263 196.21L152.157 196.256L128.666 201.873C128.312 201.957 127.948 202 127.582 202V202Z" fill="#2F2E41"/>
<path d="M115.95 241.449C107.417 240.303 99.2566 237.498 92.0246 233.226C88.4417 231.111 85.1248 228.645 82.1335 225.872C79.1811 223.135 76.3566 220.023 74.8942 216.377C73.4872 213.004 73.5597 209.269 75.0967 205.943C76.6128 202.638 79.5089 200.014 83.15 198.647C86.8129 197.319 91.2384 197.177 94.8032 198.631C96.502 199.308 97.9719 200.383 99.0622 201.747C99.5691 202.376 99.9443 203.084 100.169 203.837C100.378 204.518 100.397 205.236 100.225 205.926C100.016 206.615 99.6469 207.255 99.1434 207.804C98.6399 208.353 98.0131 208.797 97.3051 209.108C95.747 209.834 94.0588 210.302 92.3198 210.49C90.5707 210.707 88.0581 210.904 86.652 209.628C86.3625 209.375 86.1349 209.07 85.9838 208.732C85.8781 208.474 85.842 208.196 85.8784 207.922C85.8579 208.042 85.9632 207.659 85.9572 207.674C85.935 207.731 85.8387 207.869 85.9756 207.657C86.0183 207.587 86.0659 207.52 86.1181 207.455C86.0716 207.51 85.9696 207.601 86.1518 207.445C86.3025 207.295 86.4961 207.186 86.711 207.131C86.7956 207.108 86.8815 207.09 86.9664 207.069C87.1821 207.016 86.7513 207.072 86.972 207.066C87.0572 207.063 87.1434 207.065 87.2283 207.062C87.4448 207.053 87.0147 207.008 87.2222 207.056C87.3027 207.074 87.3825 207.092 87.4619 207.115C87.6344 207.164 87.3397 207 87.4566 207.123C87.5936 207.267 87.3128 206.982 87.4685 207.122C87.546 207.191 87.619 207.264 87.6872 207.341C87.9573 207.584 88.3214 207.72 88.7009 207.72C89.0803 207.72 89.4445 207.584 89.7145 207.341C89.9753 207.093 90.1209 206.763 90.1209 206.42C90.1209 206.077 89.9753 205.747 89.7145 205.498C88.301 203.906 85.5089 204.299 84.079 205.645C82.2553 207.362 82.9775 210.083 84.7514 211.581C86.7595 213.277 89.6036 213.395 92.1867 213.111C94.3698 212.921 96.4972 212.374 98.4668 211.498C100.424 210.623 101.954 209.12 102.762 207.279C103.127 206.297 103.258 205.255 103.147 204.223C103.035 203.191 102.684 202.192 102.116 201.293C99.8356 197.395 95.1131 195.397 90.4453 195.051C88.0421 194.879 85.6254 195.143 83.335 195.827C81.0447 196.51 78.9262 197.6 77.1022 199.033C73.5864 201.91 71.4215 205.905 71.0551 210.193C70.6476 214.638 72.5448 218.954 75.3109 222.542C78.2067 226.187 81.6623 229.435 85.5723 232.189C93.2162 237.736 102.183 241.58 111.754 243.413C112.892 243.627 114.037 243.81 115.187 243.962C115.554 244.043 115.94 243.994 116.267 243.824C116.595 243.655 116.839 243.379 116.951 243.052C117.049 242.719 116.999 242.364 116.812 242.064C116.624 241.764 116.315 241.543 115.95 241.449L115.95 241.449Z" fill="#3F3D56"/>
<path d="M252.348 185.044C239.835 184.879 227.361 185.176 214.927 185.935C210.677 186.194 207 187.598 207 189.957C207 191.93 210.648 194.241 214.927 193.98C227.355 193.221 239.828 192.925 252.348 193.089C262.554 193.224 262.548 185.179 252.348 185.044Z" fill="#CCCCCC"/>
<path d="M233 192C231.653 192 200 191.954 200 188C200 184.046 231.653 184 233 184C234.347 184 266 184.046 266 188C266 191.954 234.347 192 233 192ZM201.238 188C202.104 189.199 213.739 190.897 233 190.897C252.261 190.897 263.896 189.199 264.762 188C263.896 186.801 252.261 185.103 233 185.103C213.739 185.103 202.104 186.801 201.238 188V188Z" fill="#3F3D56"/>
<path d="M334.117 298C341.039 297.819 349.654 297.594 356.29 293.037C358.267 291.625 359.89 289.823 361.048 287.759C362.205 285.694 362.869 283.417 362.991 281.086C363.126 277.488 361.743 274.347 359.096 272.244C355.629 269.491 350.567 268.846 345.112 270.352L350.764 231.534L346.615 231L339.971 276.636L343.436 275.141C347.452 273.41 352.966 272.529 356.392 275.25C357.234 275.961 357.889 276.846 358.308 277.834C358.726 278.822 358.897 279.888 358.806 280.948C358.704 282.683 358.207 284.376 357.346 285.914C356.486 287.451 355.283 288.797 353.82 289.858C348.655 293.404 341.788 293.861 334 294.066L334.117 298Z" fill="#3F3D56"/>
<path d="M323 236H300V239H323V236Z" fill="#3F3D56"/>
<path d="M138.584 220C137.581 219.997 136.611 219.67 135.849 219.078C135.087 218.486 134.583 217.668 134.426 216.769L133.05 208.809C132.878 207.808 133.152 206.785 133.81 205.967C134.469 205.148 135.459 204.599 136.563 204.442L209.756 194.045C210.861 193.89 211.988 194.137 212.891 194.734C213.795 195.331 214.4 196.229 214.574 197.229L215.95 205.19C216.122 206.191 215.848 207.214 215.19 208.032C214.532 208.851 213.542 209.4 212.438 209.558L139.244 219.953C139.026 219.984 138.805 220 138.584 220Z" fill="#2F2E41"/>
<path d="M107.5 124C124.897 124 139 111.24 139 95.5C139 79.7599 124.897 67 107.5 67C90.103 67 76 79.7599 76 95.5C76 111.24 90.103 124 107.5 124Z" fill="#DD4F05"/>
<path d="M124.817 103.189C125.841 102.859 126.775 102.331 127.559 101.641C128.077 101.149 128.472 100.559 128.717 99.9109C128.961 99.2633 129.049 98.5743 128.974 97.8921C128.93 97.4059 128.766 96.9355 128.492 96.5178C128.218 96.1 127.844 95.7462 127.397 95.484C126.238 94.8276 124.707 94.8524 123.162 95.5125L122.983 84L121.728 84.0165L121.938 97.5507L122.893 96.9733C124.001 96.3048 125.594 95.8201 126.739 96.4692C127.023 96.6411 127.259 96.8708 127.43 97.1406C127.602 97.4103 127.703 97.7128 127.727 98.0246C127.779 98.5328 127.713 99.0455 127.531 99.5279C127.35 100.01 127.057 100.451 126.674 100.82C125.313 102.064 123.299 102.481 121 102.862L121.222 104C122.445 103.829 123.648 103.558 124.817 103.189V103.189Z" fill="#2F2E41"/>
<path d="M135.892 83.4627L129.397 84.3703L129.579 85.4828L136.075 84.5753L135.892 83.4627Z" fill="#2F2E41"/>
<path d="M115.389 86.3267L108.893 87.2342L109.076 88.3467L115.572 87.4392L115.389 86.3267Z" fill="#2F2E41"/>
<path d="M127.716 220C126.584 219.998 125.479 219.682 124.549 219.095C123.619 218.508 122.908 217.678 122.509 216.714L100.804 163.871C98.1505 157.39 98.4338 150.217 101.591 143.926C104.749 137.635 110.523 132.739 117.646 130.313L135.295 124.322C135.978 124.088 136.704 123.98 137.433 124.003C138.162 124.026 138.878 124.18 139.541 124.455C140.202 124.724 140.798 125.11 141.294 125.59C141.789 126.071 142.175 126.636 142.427 127.253L182.635 196.266C182.896 196.889 183.019 197.552 182.998 198.218C182.976 198.883 182.809 199.539 182.507 200.146C182.206 200.753 181.775 201.299 181.24 201.754C180.705 202.21 180.077 202.564 179.39 202.797L129.657 219.679C129.037 219.891 128.379 220 127.716 220Z" fill="#2F2E41"/>
<path d="M130 125.531L170 175L142.934 126.05C142.71 125.479 142.367 124.954 141.924 124.506C141.481 124.057 140.947 123.694 140.352 123.436C139.758 123.179 139.114 123.032 138.458 123.005C137.802 122.977 137.146 123.07 136.529 123.277L130 125.531Z" fill="#E6E6E6"/>
<path d="M193.15 162.992L122.007 158.766C120.886 158.7 119.789 158.43 118.781 157.973C117.773 157.515 116.872 156.879 116.13 156.101C115.388 155.323 114.82 154.417 114.457 153.436C114.095 152.455 113.945 151.418 114.018 150.384C114.09 149.35 114.382 148.339 114.878 147.409C115.374 146.479 116.064 145.648 116.908 144.964C117.752 144.28 118.734 143.756 119.797 143.422C120.861 143.087 121.986 142.95 123.107 143.016L194.25 147.242C194.775 147.273 195.289 147.4 195.761 147.614C196.233 147.828 196.655 148.126 197.003 148.49C197.35 148.855 197.616 149.279 197.786 149.738C197.956 150.198 198.026 150.683 197.992 151.168L197.407 159.542C197.339 160.52 196.852 161.433 196.053 162.08C195.255 162.727 194.211 163.055 193.15 162.992Z" fill="#DD4F05"/>
<path d="M173.773 165C173.68 165 173.588 164.997 173.495 164.992H173.494L115.976 161.621C115.419 161.588 114.875 161.456 114.374 161.232C113.873 161.008 113.426 160.696 113.058 160.315C112.689 159.934 112.407 159.49 112.227 159.009C112.047 158.529 111.973 158.021 112.009 157.514L112.992 143.618C113.028 143.111 113.173 142.616 113.42 142.16C113.666 141.704 114.008 141.297 114.428 140.962C114.847 140.627 115.334 140.37 115.863 140.206C116.391 140.043 116.949 139.975 117.506 140.008L175.024 143.379C176.149 143.446 177.197 143.916 177.941 144.686C178.685 145.456 179.063 146.463 178.992 147.486L178.008 161.382C177.954 162.127 177.665 162.841 177.175 163.44C176.686 164.039 176.017 164.496 175.248 164.758C174.777 164.918 174.277 165 173.773 165V165Z" fill="#2F2E41"/>
<path d="M107.412 76.4565C111.533 73.2043 117.193 76.1136 121.919 75.6043C126.44 75.1171 130.01 71.3955 130.923 67.4418C131.987 62.8292 129.377 58.2079 125.532 55.332C121.319 52.1822 115.733 51.278 110.44 51.8607C104.372 52.5286 98.8235 55.1237 93.8447 58.2626C89.0388 61.1985 84.6193 64.6349 80.6744 68.5031C77.1418 72.083 74.1489 76.3502 73.1931 81.1675C72.3246 85.5454 72.9878 90.3967 75.8083 94.1054C77.3039 96.0063 79.3081 97.5214 81.6276 98.5046C84.0462 99.5943 86.626 100.373 88.9691 101.605C92.5119 103.468 95.9551 107.331 94.8454 111.351C94.6075 112.229 94.1379 113.04 93.4781 113.713C92.6853 114.52 91.2554 113.453 92.0502 112.643C93.4463 111.221 93.3913 109.325 92.6473 107.627C91.7626 105.714 90.196 104.133 88.2042 103.144C85.7516 101.857 83.0437 101.063 80.5299 99.8908C78.1238 98.8202 76.0352 97.232 74.442 95.2614C71.4333 91.4248 70.5333 86.4318 71.2157 81.8128C71.9541 76.8144 74.7529 72.2723 78.2614 68.4661C82.0796 64.3238 86.7697 60.8175 91.5611 57.6675C96.7023 54.2876 102.382 51.4301 108.668 50.3966C114.116 49.5007 120.022 50.0522 124.786 52.7767C129.233 55.3198 132.644 59.6944 132.983 64.5826C133.105 66.8068 132.578 69.0205 131.458 70.996C130.338 72.9715 128.664 74.6374 126.609 75.8224C124.501 76.9801 122.049 77.5012 119.601 77.3122C116.983 77.1584 114.363 76.4229 111.729 76.6271C110.537 76.6935 109.401 77.1147 108.493 77.8268C107.592 78.5374 106.519 77.1613 107.412 76.4566V76.4565Z" fill="#2F2E41"/>
</svg>
