<svg width="440" height="440" viewBox="0 0 440 440" fill="none" xmlns="http://www.w3.org/2000/svg">
<circle cx="220" cy="220" r="220" fill="#BFDD05" fill-opacity="0.21"/>
<path d="M291.723 245.922C291.723 245.922 310.366 283.552 319.429 275.978C328.491 268.405 320.426 214.935 320.426 214.935L305.468 212.032L307.538 241.706L299.005 232.835L291.723 245.922Z" fill="#A0616A"/>
<path d="M238.089 273.587L286.599 342.478L424.724 244.431L376.214 175.541L238.089 273.587Z" fill="white"/>
<path d="M256.089 267.024C251.031 267.401 246.868 270.602 245.357 271.92C247.045 272.999 251.631 275.552 256.689 275.177C261.759 274.8 265.913 271.598 267.423 270.283C265.735 269.204 261.148 266.649 256.089 267.024Z" fill="#DD4F05"/>
<path d="M302.702 297.703L280.523 313.446C279.868 313.912 279.31 314.502 278.882 315.183C278.454 315.865 278.163 316.624 278.028 317.419C277.892 318.213 277.913 319.026 278.09 319.812C278.268 320.598 278.597 321.341 279.061 321.999C279.524 322.657 280.112 323.217 280.791 323.647C281.47 324.077 282.226 324.368 283.017 324.504C283.808 324.641 284.618 324.619 285.401 324.441C286.184 324.263 286.924 323.932 287.579 323.467V323.467L309.758 307.724C311.081 306.784 311.979 305.355 312.253 303.751C312.527 302.147 312.156 300.5 311.22 299.171C310.284 297.842 308.861 296.941 307.264 296.666C305.666 296.39 304.025 296.763 302.702 297.703V297.703Z" fill="#DD4F05"/>
<path d="M365.896 173.527L241.545 261.795C240.098 262.822 238.868 264.124 237.923 265.629C236.978 267.133 236.338 268.81 236.039 270.562C235.739 272.315 235.787 274.11 236.178 275.845C236.57 277.579 237.298 279.219 238.321 280.671L281.149 341.499C283.215 344.432 286.357 346.422 289.884 347.029C293.41 347.637 297.033 346.814 299.955 344.741L424.306 256.473C425.752 255.446 426.983 254.143 427.928 252.639C428.872 251.134 429.513 249.458 429.812 247.705C430.112 245.952 430.064 244.157 429.673 242.423C429.281 240.688 428.553 239.048 427.53 237.596L386.823 179.782L385.99 178.602L384.696 176.764C383.674 175.312 382.376 174.076 380.878 173.128C379.379 172.179 377.71 171.536 375.964 171.236C374.218 170.935 372.43 170.983 370.703 171.376C368.975 171.769 367.342 172.5 365.896 173.527V173.527ZM403.617 226.067L410.673 236.089C411.915 237.863 412.406 240.058 412.04 242.194C411.675 244.331 410.481 246.235 408.721 247.491L392.086 259.301C390.319 260.548 388.133 261.042 386.005 260.674C383.877 260.307 381.98 259.109 380.729 257.341L373.673 247.32C372.433 245.546 371.941 243.351 372.307 241.214C372.673 239.078 373.866 237.174 375.626 235.918L392.256 224.113C394.024 222.867 396.21 222.373 398.338 222.739C400.466 223.106 402.364 224.302 403.617 226.067V226.067ZM277.956 322.775C276.816 321.153 276.363 319.142 276.698 317.184C277.032 315.227 278.126 313.483 279.74 312.334L301.919 296.592C302.719 296.022 303.623 295.616 304.58 295.397C305.536 295.178 306.526 295.151 307.494 295.316C308.461 295.482 309.386 295.837 310.216 296.361C311.047 296.886 311.766 297.57 312.333 298.373C312.9 299.177 313.304 300.085 313.521 301.046C313.738 302.006 313.765 303 313.599 303.971C313.434 304.942 313.079 305.871 312.556 306.704C312.033 307.537 311.352 308.259 310.551 308.828L310.542 308.839L288.363 324.581C287.562 325.149 286.657 325.554 285.7 325.771C284.743 325.988 283.753 326.013 282.787 325.845C281.82 325.678 280.896 325.32 280.067 324.793C279.238 324.267 278.521 323.581 277.956 322.775V322.775ZM243.856 272.542L243.23 272.077L243.783 271.521C243.996 271.301 249.118 266.175 255.99 265.665C262.861 265.154 268.678 269.473 268.923 269.652L269.546 270.123L268.999 270.683C268.203 271.454 267.347 272.16 266.438 272.794C263.613 274.887 260.279 276.179 256.786 276.535C249.914 277.045 244.098 272.727 243.856 272.542V272.542Z" fill="#DD4F05"/>
<path d="M391.28 246.934L384.072 252.051C383.558 252.416 383.21 252.972 383.104 253.595C382.998 254.218 383.143 254.858 383.506 255.374C383.87 255.89 384.423 256.241 385.043 256.348C385.663 256.456 386.301 256.311 386.816 255.947L394.024 250.831C394.537 250.465 394.885 249.91 394.991 249.286C395.097 248.663 394.953 248.023 394.589 247.507C394.226 246.991 393.673 246.641 393.052 246.533C392.432 246.426 391.794 246.57 391.28 246.934V246.934Z" fill="#DD4F05"/>
<path d="M404.587 237.488L397.379 242.604C396.866 242.97 396.518 243.526 396.413 244.149C396.307 244.771 396.452 245.411 396.815 245.927C397.178 246.443 397.731 246.793 398.351 246.901C398.971 247.008 399.608 246.865 400.123 246.501L407.331 241.384C407.844 241.018 408.191 240.463 408.297 239.84C408.403 239.217 408.258 238.578 407.895 238.062C407.532 237.546 406.979 237.196 406.359 237.088C405.739 236.98 405.102 237.124 404.587 237.488V237.488Z" fill="#DD4F05"/>
<path d="M387.752 241.923L380.543 247.04C380.031 247.406 379.683 247.961 379.577 248.584C379.472 249.207 379.616 249.847 379.98 250.363C380.343 250.879 380.895 251.229 381.515 251.336C382.135 251.444 382.773 251.3 383.288 250.937L390.496 245.82C391.009 245.454 391.357 244.899 391.463 244.276C391.569 243.653 391.424 243.013 391.061 242.497C390.697 241.981 390.145 241.63 389.524 241.523C388.904 241.415 388.266 241.559 387.752 241.923V241.923Z" fill="#DD4F05"/>
<path d="M401.059 232.477L393.851 237.594C393.337 237.96 392.989 238.515 392.884 239.138C392.778 239.762 392.922 240.401 393.286 240.918C393.649 241.434 394.202 241.784 394.822 241.891C395.443 241.999 396.08 241.855 396.595 241.491L403.803 236.374C404.317 236.008 404.664 235.453 404.77 234.83C404.876 234.207 404.732 233.567 404.368 233.051C404.005 232.534 403.452 232.184 402.832 232.077C402.211 231.969 401.574 232.113 401.059 232.477V232.477Z" fill="#DD4F05"/>
<path d="M384.224 236.913L377.015 242.03C376.502 242.396 376.154 242.951 376.048 243.574C375.942 244.197 376.087 244.837 376.45 245.353C376.814 245.87 377.366 246.22 377.987 246.327C378.607 246.435 379.245 246.291 379.76 245.927L386.968 240.81C387.481 240.444 387.828 239.889 387.934 239.266C388.04 238.643 387.895 238.003 387.532 237.487C387.168 236.971 386.616 236.621 385.996 236.514C385.376 236.406 384.738 236.55 384.224 236.913V236.913Z" fill="#DD4F05"/>
<path d="M397.531 227.467L390.323 232.583C389.81 232.949 389.462 233.505 389.357 234.128C389.251 234.751 389.396 235.39 389.759 235.906C390.122 236.422 390.674 236.772 391.295 236.88C391.915 236.988 392.552 236.844 393.067 236.48L400.275 231.364C400.788 230.998 401.135 230.442 401.241 229.819C401.347 229.197 401.202 228.557 400.839 228.041C400.475 227.525 399.923 227.175 399.303 227.067C398.683 226.96 398.046 227.103 397.531 227.467V227.467Z" fill="#DD4F05"/>
<path d="M251.515 300.13L252.35 301.314L398.283 197.653L397.449 196.469L251.515 300.13Z" fill="white"/>
<path d="M385.99 178.602L386.823 179.782L381.745 183.391L327.633 221.828L326.804 220.642L380.912 182.21L385.99 178.602Z" fill="#3F3D56"/>
<path d="M197.715 208.168C197.067 208.478 196.36 208.646 195.643 208.659L129.045 210.498C126.273 210.558 123.591 209.509 121.588 207.58C119.585 205.651 118.426 203.001 118.366 200.213C118.306 197.425 119.349 194.727 121.267 192.712C123.184 190.698 125.818 189.532 128.59 189.471L195.188 187.633C196.537 187.605 197.842 188.116 198.817 189.055C199.791 189.993 200.356 191.282 200.387 192.639L200.62 203.43C200.641 204.417 200.377 205.389 199.862 206.23C199.347 207.07 198.601 207.743 197.715 208.168V208.168Z" fill="#DD4F05"/>
<path d="M112.49 347.708H102.055C100.743 347.706 99.4851 347.172 98.5573 346.223C97.6294 345.274 97.1075 343.987 97.1061 342.645V253.676C97.1075 252.334 97.6294 251.047 98.5573 250.098C99.4851 249.149 100.743 248.615 102.055 248.613H112.49C113.802 248.615 115.06 249.149 115.988 250.098C116.916 251.047 117.438 252.334 117.439 253.676V342.645C117.438 343.987 116.916 345.274 115.988 346.223C115.06 347.172 113.802 347.706 112.49 347.708V347.708Z" fill="#DD4F05"/>
<path d="M140.917 347.708H130.007C128.636 347.706 127.32 347.172 126.351 346.223C125.381 345.274 124.835 343.987 124.833 342.645V253.676C124.835 252.334 125.381 251.047 126.351 250.098C127.32 249.149 128.636 248.615 130.007 248.613H140.917C142.289 248.615 143.604 249.149 144.574 250.098C145.544 251.047 146.089 252.334 146.091 253.676V342.645C146.089 343.987 145.544 345.274 144.574 346.223C143.604 347.172 142.289 347.706 140.917 347.708V347.708Z" fill="#DD4F05"/>
<path d="M122.523 156.189C142.685 156.189 159.03 139.551 159.03 119.028C159.03 98.5052 142.685 81.8679 122.523 81.8679C102.36 81.8679 86.0151 98.5052 86.0151 119.028C86.0151 139.551 102.36 156.189 122.523 156.189Z" fill="#DD4F05"/>
<path d="M134.978 280.057H108.327C102.789 280.077 97.3435 278.645 92.542 275.903C87.7405 273.162 83.7534 269.21 80.9843 264.447C78.2152 259.683 76.7623 254.278 76.7728 248.778C76.7832 243.278 78.2566 237.878 81.0438 233.125L118.314 169.014C118.729 168.302 119.325 167.71 120.042 167.298C120.76 166.887 121.574 166.67 122.403 166.67C123.232 166.67 124.046 166.887 124.764 167.298C125.482 167.71 126.078 168.302 126.492 169.014L163.012 231.834C165.853 236.721 167.349 242.265 167.348 247.908C167.348 253.551 165.853 259.095 163.012 263.982C160.17 268.869 156.084 272.928 151.163 275.749C146.242 278.571 140.66 280.056 134.978 280.057V280.057Z" fill="#2F2E41"/>
<path d="M131.344 134.274C133.769 134.207 136.787 134.123 139.113 132.438C139.805 131.916 140.374 131.25 140.78 130.487C141.185 129.723 141.417 128.881 141.46 128.02C141.502 127.407 141.401 126.793 141.164 126.226C140.928 125.659 140.562 125.154 140.096 124.75C138.881 123.732 137.108 123.494 135.196 124.051L137.177 109.698L135.723 109.5L133.395 126.374L134.609 125.821C136.016 125.181 137.948 124.855 139.148 125.862C139.443 126.125 139.673 126.452 139.82 126.817C139.966 127.182 140.026 127.576 139.994 127.969C139.959 128.61 139.784 129.236 139.483 129.805C139.181 130.373 138.76 130.871 138.247 131.263C136.438 132.574 134.032 132.743 131.303 132.819L131.344 134.274Z" fill="#2F2E41"/>
<path d="M151.636 111.406H144.242V112.359H151.636V111.406Z" fill="#2F2E41"/>
<path d="M126.682 111.406H119.288V112.359H126.682V111.406Z" fill="#2F2E41"/>
<path d="M114.156 272.398C113.855 271.752 113.693 271.048 113.68 270.333L111.896 203.989C111.838 201.228 112.856 198.556 114.726 196.561C116.597 194.566 119.168 193.412 121.872 193.352C124.577 193.292 127.194 194.331 129.148 196.241C131.102 198.151 132.233 200.775 132.292 203.537L134.075 269.881C134.102 271.224 133.606 272.524 132.696 273.495C131.785 274.466 130.535 275.028 129.219 275.059L118.752 275.291C117.794 275.312 116.851 275.05 116.036 274.536C115.221 274.023 114.568 273.28 114.156 272.398V272.398Z" fill="#DD4F05"/>
<path d="M118.794 91.7029C123.238 97.5672 130.294 101.501 137.751 100.57C144.852 99.6827 150.711 94.6889 152.181 87.5393C152.822 84.1591 152.649 80.6727 151.676 77.3741C150.703 74.0755 148.958 71.0613 146.588 68.5854C141.562 63.2516 134.369 60.3824 127.248 59.3985C113.76 57.5347 99.9075 62.3284 89.7092 71.2687C84.5877 75.7134 80.4998 81.242 77.736 87.4614C75.0737 93.6348 73.8058 100.328 74.0241 107.057C74.416 120.355 80.1891 133.627 90.1505 142.446C91.3876 143.538 92.6826 144.561 94.0296 145.512C95.1657 146.316 96.2422 144.434 95.1157 143.637C84.9145 136.417 78.4076 124.669 76.6218 112.324C75.6864 106.104 76.1035 99.7538 77.8441 93.7129C79.5847 87.672 82.607 82.0856 86.7016 77.3411C94.9389 67.8911 107.017 61.7489 119.526 61.1986C132.114 60.6448 147.844 66.3147 150.199 80.4519C151.255 86.7884 148.908 93.4489 143.152 96.6212C136.991 100.018 129.435 98.62 124.14 94.2335C122.843 93.1636 121.673 91.9468 120.652 90.6071C119.822 89.5121 117.952 90.5923 118.794 91.7029H118.794Z" fill="#2F2E41"/>
<path d="M234.356 191.443C221.361 191.443 210.788 180.116 210.788 166.193C210.788 152.27 221.361 140.943 234.356 140.943C247.352 140.943 257.924 152.27 257.924 166.193C257.924 180.116 247.352 191.443 234.356 191.443ZM234.356 147.323C224.849 147.323 217.114 155.788 217.114 166.193C217.114 176.598 224.849 185.063 234.356 185.063C243.863 185.063 251.598 176.598 251.598 166.193C251.598 155.788 243.863 147.323 234.356 147.323Z" fill="#DD4F05"/>
<path d="M256.095 235.274H211.693C207.777 235.269 204.024 233.686 201.255 230.872C198.486 228.058 196.929 224.243 196.924 220.263V175.994C196.927 173.27 197.994 170.657 199.889 168.731C201.785 166.804 204.355 165.72 207.035 165.717H260.753C263.433 165.72 266.003 166.804 267.899 168.731C269.794 170.657 270.861 173.27 270.864 175.994V220.263C270.859 224.243 269.302 228.058 266.533 230.872C263.764 233.686 260.011 235.269 256.095 235.274V235.274Z" fill="#3F3D56"/>
<path d="M243.136 190.746C243.138 189.177 242.723 187.637 241.935 186.283C241.146 184.929 240.013 183.811 238.652 183.043C237.291 182.276 235.751 181.887 234.19 181.917C232.629 181.946 231.105 182.393 229.774 183.212C228.442 184.031 227.352 185.191 226.615 186.574C225.879 187.957 225.522 189.512 225.582 191.08C225.643 192.647 226.118 194.17 226.958 195.492C227.799 196.814 228.975 197.886 230.365 198.599V212.406H238.347V198.599C239.788 197.861 240.998 196.737 241.843 195.351C242.689 193.965 243.136 192.372 243.136 190.746V190.746Z" fill="white"/>
</svg>
