<svg width="440" height="440" viewBox="0 0 440 440" fill="none" xmlns="http://www.w3.org/2000/svg">
<circle cx="220" cy="220" r="220" fill="#436CD2" fill-opacity="0.21"/>
<path d="M332 351.765C322.168 355.024 312.018 357.437 301.686 358.972C273.262 363.195 244.119 360.798 217 352.006L224.788 323.699L225.258 322L241.151 322.056L320.993 322.315L322.015 325.051L332 351.765Z" fill="#2F2E41"/>
<path d="M114.389 280.064C114.944 280.577 115.454 281.129 115.913 281.714L187.271 280.143L195.595 266.451L220.194 275.058L208.073 300.585C207.094 302.647 205.398 304.368 203.24 305.489C201.082 306.61 198.578 307.07 196.104 306.801L115.482 298.035C113.58 300.202 110.99 301.797 108.057 302.607C105.124 303.417 101.986 303.404 99.0617 302.569C96.137 301.735 93.5637 300.119 91.6843 297.937C89.8048 295.754 88.7081 293.108 88.5401 290.351C88.3721 287.593 89.1408 284.856 90.7439 282.501C92.347 280.147 94.7085 278.287 97.5144 277.17C100.32 276.053 103.437 275.731 106.451 276.248C109.465 276.764 112.233 278.094 114.387 280.061L114.389 280.064Z" fill="#9F616A"/>
<path d="M210.434 201.884L243.828 192.033L253.636 179.926L301.366 182.468L308.374 196.596L333.825 207.421L329.913 272.8L323.222 333.986C288.814 317.949 224.601 330.175 224.039 330.374L210.434 201.884Z" fill="#DD4F05"/>
<path d="M217.573 290.378L183.605 278.146L183.75 277.602C183.895 277.051 198.353 222.677 200.272 213.939C202.272 204.836 209.578 202.319 209.888 202.217L210.114 202.141L223.557 205.824L229.461 247.576L217.573 290.378Z" fill="#DD4F05"/>
<path d="M290.915 331.296C291.711 331.279 292.508 331.318 293.297 331.414L340.533 283.249L335.039 268.449L358.776 258.065L371.333 283.421C372.348 285.469 372.597 287.759 372.042 289.945C371.488 292.132 370.161 294.097 368.26 295.547L306.303 342.796C306.775 345.524 306.313 348.318 304.979 350.804C303.644 353.29 301.5 355.352 298.832 356.715C296.163 358.078 293.097 358.677 290.041 358.433C286.985 358.19 284.084 357.114 281.724 355.35C279.363 353.586 277.655 351.217 276.827 348.559C275.999 345.9 276.09 343.077 277.088 340.466C278.086 337.854 279.943 335.578 282.413 333.94C284.883 332.302 287.848 331.38 290.915 331.296V331.296Z" fill="#9F616A"/>
<path d="M336.763 287.938L317.058 246.22L324.744 217.162L333.024 207.746C333.631 207.512 334.285 207.395 334.944 207.4C335.604 207.406 336.255 207.534 336.856 207.778C339.912 208.884 342.51 212.275 344.586 217.855L363.053 265.199L336.763 287.938Z" fill="#DD4F05"/>
<path d="M234.531 164.468V133.017C234.51 127.482 235.701 121.999 238.036 116.878C240.37 111.758 243.802 107.102 248.136 103.176C252.469 99.2491 257.62 96.1294 263.293 93.9945C268.966 91.8597 275.051 90.7514 281.2 90.7331C287.349 90.7147 293.442 91.7867 299.13 93.8877C304.819 95.9887 309.992 99.0776 314.355 102.978C318.717 106.879 322.183 111.514 324.555 116.62C326.927 121.727 328.159 127.203 328.179 132.738C328.179 132.831 328.179 132.924 328.179 133.017V164.468C328.177 165.969 327.514 167.408 326.335 168.469C325.155 169.53 323.557 170.127 321.889 170.129H240.821C239.153 170.127 237.554 169.53 236.375 168.469C235.196 167.408 234.533 165.969 234.531 164.468V164.468Z" fill="#2F2E41"/>
<path d="M271.733 169.396C290.693 169.396 306.062 155.563 306.062 138.498C306.062 121.433 290.693 107.599 271.733 107.599C252.773 107.599 237.403 121.433 237.403 138.498C237.403 155.563 252.773 169.396 271.733 169.396Z" fill="#9F616A"/>
<path d="M223.454 135.533C223.465 126.694 227.371 118.22 234.314 111.97C241.258 105.721 250.673 102.205 260.494 102.195H267.483C277.303 102.205 286.718 105.721 293.662 111.97C300.606 118.22 304.511 126.694 304.522 135.533V136.162H289.753L284.715 123.464L283.708 136.162H276.075L273.534 129.756L273.024 136.162H223.454V135.533Z" fill="#2F2E41"/>
<path d="M268.355 173.666C267.661 172.821 267.247 171.817 267.16 170.769C267.073 169.721 267.316 168.673 267.862 167.744C275.268 155.066 285.637 131.638 271.874 117.191L270.887 116.154H310.845V170.149L274.546 175.913C274.179 175.972 273.807 176.001 273.433 176.002C272.443 176.002 271.466 175.79 270.583 175.384C269.701 174.978 268.938 174.39 268.357 173.667L268.355 173.666Z" fill="#2F2E41"/>
<path d="M77 59H130.5H184V136H130.5H77V59Z" fill="#7BA9EF"/>
<path d="M83.8764 110V83.8182H87.8267V95.196H100.879V83.8182H104.842V110H100.879V98.5838H87.8267V110H83.8764ZM118.751 110.396C116.817 110.396 115.151 109.983 113.753 109.156C112.364 108.321 111.29 107.149 110.531 105.641C109.781 104.124 109.406 102.347 109.406 100.31C109.406 98.2983 109.781 96.5256 110.531 94.9915C111.29 93.4574 112.347 92.2599 113.702 91.3991C115.065 90.5384 116.659 90.108 118.483 90.108C119.591 90.108 120.665 90.2912 121.705 90.6577C122.744 91.0241 123.678 91.5994 124.504 92.3835C125.331 93.1676 125.983 94.1861 126.46 95.4389C126.938 96.6832 127.176 98.196 127.176 99.9773V101.332H111.567V98.4688H123.43C123.43 97.4631 123.226 96.5724 122.817 95.7969C122.408 95.0128 121.832 94.3949 121.091 93.9432C120.358 93.4915 119.497 93.2656 118.509 93.2656C117.435 93.2656 116.497 93.5298 115.696 94.0582C114.903 94.5781 114.29 95.2599 113.855 96.1037C113.429 96.9389 113.216 97.8466 113.216 98.8267V101.064C113.216 102.376 113.446 103.493 113.906 104.413C114.375 105.334 115.027 106.037 115.862 106.523C116.697 107 117.673 107.239 118.79 107.239C119.514 107.239 120.175 107.136 120.771 106.932C121.368 106.719 121.884 106.403 122.318 105.986C122.753 105.568 123.085 105.053 123.315 104.439L126.933 105.091C126.643 106.156 126.124 107.089 125.374 107.891C124.632 108.683 123.699 109.301 122.574 109.744C121.457 110.179 120.183 110.396 118.751 110.396ZM135.24 83.8182V110H131.417V83.8182H135.24ZM144.205 83.8182V110H140.382V83.8182H144.205ZM157.618 110.396C155.777 110.396 154.171 109.974 152.799 109.131C151.426 108.287 150.361 107.107 149.603 105.589C148.844 104.072 148.465 102.3 148.465 100.271C148.465 98.2344 148.844 96.4531 149.603 94.9276C150.361 93.402 151.426 92.2173 152.799 91.3736C154.171 90.5298 155.777 90.108 157.618 90.108C159.459 90.108 161.066 90.5298 162.438 91.3736C163.81 92.2173 164.875 93.402 165.634 94.9276C166.392 96.4531 166.772 98.2344 166.772 100.271C166.772 102.3 166.392 104.072 165.634 105.589C164.875 107.107 163.81 108.287 162.438 109.131C161.066 109.974 159.459 110.396 157.618 110.396ZM157.631 107.188C158.824 107.188 159.813 106.872 160.597 106.241C161.381 105.611 161.961 104.771 162.336 103.723C162.719 102.675 162.911 101.52 162.911 100.259C162.911 99.0057 162.719 97.8551 162.336 96.8068C161.961 95.75 161.381 94.902 160.597 94.2628C159.813 93.6236 158.824 93.304 157.631 93.304C156.429 93.304 155.432 93.6236 154.64 94.2628C153.855 94.902 153.272 95.75 152.888 96.8068C152.513 97.8551 152.326 99.0057 152.326 100.259C152.326 101.52 152.513 102.675 152.888 103.723C153.272 104.771 153.855 105.611 154.64 106.241C155.432 106.872 156.429 107.188 157.631 107.188Z" fill="white"/>
</svg>
