<svg width="602" height="499" viewBox="0 0 602 499" fill="none" xmlns="http://www.w3.org/2000/svg">
<path d="M551.5 249.5C551.5 387.003 436.229 498.5 294 498.5C151.771 498.5 36.5 387.003 36.5 249.5C36.5 111.997 151.771 0.5 294 0.5C436.229 0.5 551.5 111.997 551.5 249.5Z" stroke="#DD4F05" stroke-opacity="0.22"/>
<path d="M512.5 245C512.5 359.576 414.922 452.5 294.5 452.5C174.078 452.5 76.5 359.576 76.5 245C76.5 130.424 174.078 37.5 294.5 37.5C414.922 37.5 512.5 130.424 512.5 245Z" stroke="#DD4F05" stroke-opacity="0.22"/>
<path d="M450.5 247C450.5 336.758 379.525 409.5 292 409.5C204.475 409.5 133.5 336.758 133.5 247C133.5 157.242 204.475 84.5 292 84.5C379.525 84.5 450.5 157.242 450.5 247Z" stroke="#DD4F05" stroke-opacity="0.22"/>
<g clip-path="url(#clip0_3_6)">
<path d="M187.441 173.591L51.4099 264.385L59.4676 274.003L195.498 183.209L187.441 173.591Z" fill="#3F3D56"/>
<path d="M187.578 223.658C187.144 223.818 186.678 223.857 186.25 223.767C185.822 223.677 185.454 223.464 185.203 223.16L177.713 214.073C177.407 213.7 177.297 213.217 177.408 212.732C177.519 212.246 177.842 211.797 178.305 211.483L189.622 203.834C190.086 203.52 190.654 203.368 191.199 203.409C191.745 203.451 192.224 203.684 192.532 204.056L200.022 213.144C200.329 213.517 200.439 213.999 200.328 214.485C200.216 214.971 199.894 215.42 199.43 215.734L188.113 223.383C187.948 223.495 187.768 223.588 187.578 223.658V223.658Z" fill="#DD4F05"/>
<path d="M65.0398 247.353C64.9621 247.257 64.8781 247.165 64.7882 247.078C64.174 246.48 63.313 246.128 62.3705 246.09C61.428 246.052 60.4706 246.33 59.6821 246.872C58.8937 247.414 58.33 248.181 58.0992 249.025C57.8684 249.869 57.9869 250.731 58.4319 251.446C58.4959 251.551 58.5669 251.651 58.6445 251.748C59.1131 252.326 59.793 252.735 60.5823 252.913C61.3717 253.09 62.228 253.027 63.0231 252.733C63.3704 252.605 63.6999 252.434 64.0013 252.226C64.848 251.643 65.4328 250.802 65.6275 249.889C65.8222 248.975 65.6108 248.063 65.0398 247.353V247.353ZM63.6411 251.78C62.9345 252.265 62.0677 252.495 61.2309 252.42C60.3941 252.345 59.6555 251.972 59.1771 251.381C59.1005 251.285 59.0305 251.184 58.9674 251.079C58.6166 250.484 58.5319 249.774 58.7294 249.082C58.9268 248.39 59.3928 247.763 60.0402 247.318C60.6876 246.874 61.472 246.642 62.2469 246.666C63.0218 246.69 63.734 246.968 64.2504 247.449C64.3443 247.532 64.4301 247.623 64.5072 247.719C64.9834 248.311 65.1597 249.071 64.9973 249.833C64.8349 250.594 64.3471 251.294 63.6411 251.78L63.6411 251.78Z" fill="#DD4F05"/>
<path d="M56.4715 252.876C56.0708 252.404 55.8745 251.815 55.91 251.192C55.9454 250.569 56.2109 249.943 56.6694 249.4C56.1181 249.58 55.607 249.864 55.1785 250.227C54.75 250.591 54.4167 251.024 54.2062 251.49C53.9957 251.956 53.9142 252.443 53.9684 252.908C54.0226 253.373 54.211 253.805 54.5179 254.166C54.8248 254.527 55.2413 254.808 55.7327 254.984C56.2241 255.161 56.7762 255.229 57.343 255.182C57.9098 255.135 58.4748 254.974 58.9911 254.714C59.5073 254.454 59.9599 254.101 60.3109 253.685C59.591 253.921 58.8342 253.969 58.146 253.824C57.4578 253.679 56.8725 253.347 56.4715 252.876V252.876Z" fill="#DD4F05"/>
<path d="M158.739 229.455C158.597 229.279 158.414 229.133 158.2 229.026C157.986 228.919 157.744 228.852 157.489 228.83C157.234 228.808 156.971 228.831 156.714 228.898C156.458 228.964 156.213 229.073 155.994 229.218L136.984 241.806L134.937 243.162L149.015 237.946L151.062 236.59L158.149 231.898C158.591 231.605 158.901 231.183 159.012 230.725C159.122 230.267 159.024 229.811 158.739 229.455V229.455Z" fill="#CCCCCC"/>
<path d="M142.698 231.257C142.411 230.902 141.959 230.679 141.442 230.636C140.924 230.593 140.384 230.734 139.939 231.028L111.206 249.992C110.805 250.259 110.51 250.63 110.375 251.04C110.239 251.45 110.271 251.872 110.466 252.228L118.606 249.213L120.671 247.85L142.101 233.706C142.546 233.411 142.859 232.987 142.971 232.528C143.083 232.069 142.984 231.612 142.698 231.257V231.257Z" fill="#CCCCCC"/>
<path d="M226.099 208.868L74.288 265.115C73.7049 265.332 73.2157 265.728 72.9279 266.218C72.64 266.707 72.5769 267.249 72.7525 267.725L99.9088 341.019C100.086 341.495 100.487 341.865 101.024 342.048C101.561 342.232 102.19 342.214 102.774 341.998L254.585 285.751C255.168 285.534 255.657 285.138 255.945 284.649C256.233 284.16 256.296 283.618 256.12 283.142L228.964 209.847C228.787 209.372 228.386 209.002 227.849 208.818C227.312 208.635 226.683 208.653 226.099 208.868V208.868ZM255.492 283.375C255.617 283.715 255.573 284.102 255.367 284.451C255.161 284.801 254.812 285.084 254.395 285.238L102.584 341.486C102.167 341.64 101.717 341.653 101.334 341.522C100.95 341.391 100.663 341.126 100.537 340.786L73.3811 267.492C73.2554 267.152 73.3003 266.765 73.506 266.415C73.7116 266.066 74.0612 265.783 74.4779 265.628L226.289 209.381C226.706 209.226 227.156 209.213 227.539 209.345C227.923 209.476 228.209 209.74 228.335 210.08L255.492 283.375Z" fill="#3F3D56"/>
<path d="M92.9352 269.589C92.1604 269.876 91.3338 269.97 90.5599 269.859C89.786 269.747 89.0996 269.436 88.5875 268.964C88.0754 268.492 87.7606 267.88 87.6829 267.207C87.6052 266.533 87.768 265.827 88.1509 265.179C88.5338 264.531 89.1194 263.969 89.8338 263.564C90.5482 263.16 91.3593 262.931 92.1644 262.907C92.9696 262.883 93.7326 263.064 94.3571 263.428C94.9816 263.792 95.4395 264.323 95.6728 264.953C95.9845 265.798 95.8712 266.76 95.358 267.629C94.8448 268.498 93.9735 269.203 92.9352 269.589V269.589ZM90.7721 263.751C90.1264 263.99 89.5529 264.379 89.1241 264.87C88.6952 265.36 88.4304 265.93 88.3629 266.506C88.2955 267.083 88.4286 267.64 88.7453 268.108C89.0619 268.576 89.5481 268.934 90.1421 269.136C90.7362 269.338 91.4115 269.375 92.0828 269.243C92.754 269.111 93.3909 268.815 93.913 268.393C94.4351 267.971 94.819 267.442 95.016 266.873C95.213 266.304 95.2144 265.72 95.0199 265.195C94.7583 264.492 94.1641 263.945 93.3677 263.674C92.5714 263.403 91.6379 263.431 90.7721 263.751V263.751Z" fill="#DD4F05"/>
<path d="M85.839 268.596C85.6287 268.028 85.6632 267.386 85.9379 266.758C86.2126 266.13 86.7137 265.548 87.3715 265.094C86.7627 265.158 86.1533 265.337 85.5941 265.615C85.0348 265.893 84.5418 266.262 84.1563 266.692C83.7707 267.122 83.5037 267.6 83.3775 268.087C83.2512 268.573 83.2694 269.054 83.4306 269.489C83.5917 269.924 83.8911 270.3 84.3038 270.587C84.7166 270.874 85.2307 271.062 85.8033 271.137C86.3759 271.212 86.9905 271.171 87.5959 271.018C88.2013 270.864 88.7799 270.603 89.2835 270.255C88.4885 270.339 87.7294 270.224 87.112 269.927C86.4945 269.629 86.0496 269.164 85.839 268.596V268.596Z" fill="#DD4F05"/>
<path d="M120.42 297.174C119.641 297.462 118.805 297.499 118.096 297.276C117.388 297.054 116.863 296.591 116.639 295.988L114.111 289.164C113.887 288.561 113.983 287.868 114.375 287.237C114.768 286.606 115.427 286.09 116.206 285.801C116.985 285.512 117.822 285.475 118.531 285.697C119.24 285.92 119.764 286.384 119.987 286.987L122.515 293.811C122.738 294.414 122.642 295.107 122.25 295.738C121.857 296.368 121.199 296.885 120.42 297.174V297.174Z" fill="#DD4F05"/>
<path d="M128.01 294.362C127.296 294.626 126.523 294.639 125.86 294.4C125.197 294.161 124.698 293.688 124.474 293.085L121.946 286.261C121.722 285.658 121.792 284.974 122.139 284.36C122.486 283.747 123.082 283.253 123.796 282.989C124.511 282.724 125.285 282.71 125.948 282.949C126.611 283.189 127.109 283.662 127.333 284.265L129.861 291.089C130.083 291.693 130.014 292.376 129.667 292.99C129.32 293.603 128.724 294.097 128.01 294.362V294.362Z" fill="#DD4F05"/>
<path d="M135.6 291.55C134.821 291.837 133.986 291.874 133.277 291.652C132.568 291.43 132.044 290.966 131.82 290.364L129.291 283.54C129.068 282.936 129.163 282.243 129.556 281.612C129.949 280.982 130.607 280.465 131.387 280.176C132.166 279.888 133.002 279.85 133.711 280.073C134.42 280.295 134.944 280.759 135.168 281.362L137.696 288.186C137.918 288.79 137.823 289.483 137.43 290.113C137.037 290.744 136.379 291.26 135.6 291.55V291.55Z" fill="#DD4F05"/>
<path d="M147.108 287.286C146.394 287.55 145.621 287.563 144.958 287.324C144.295 287.085 143.796 286.612 143.572 286.009L141.044 279.185C140.82 278.582 140.89 277.898 141.237 277.285C141.584 276.671 142.18 276.177 142.894 275.913C143.609 275.648 144.383 275.634 145.046 275.873C145.709 276.113 146.207 276.586 146.43 277.189L148.959 284.013C149.181 284.617 149.112 285.3 148.765 285.914C148.418 286.527 147.822 287.021 147.108 287.286V287.286Z" fill="#DD4F05"/>
<path d="M154.698 284.474C153.919 284.762 153.084 284.798 152.375 284.576C151.666 284.354 151.142 283.89 150.918 283.288L148.389 276.464C148.166 275.86 148.261 275.167 148.654 274.536C149.047 273.906 149.705 273.389 150.485 273.1C151.264 272.812 152.1 272.774 152.809 272.997C153.518 273.219 154.042 273.683 154.266 274.286L156.794 281.11C157.016 281.714 156.921 282.407 156.528 283.037C156.135 283.668 155.477 284.184 154.698 284.474V284.474Z" fill="#DD4F05"/>
<path d="M162.044 281.752C161.265 282.04 160.429 282.077 159.72 281.855C159.011 281.632 158.487 281.169 158.263 280.566L155.735 273.742C155.511 273.139 155.606 272.446 155.999 271.815C156.392 271.184 157.051 270.668 157.83 270.379C158.609 270.09 159.445 270.053 160.154 270.275C160.863 270.498 161.387 270.962 161.611 271.565L164.139 278.389C164.362 278.992 164.266 279.685 163.873 280.316C163.48 280.946 162.823 281.463 162.044 281.752V281.752Z" fill="#DD4F05"/>
<path d="M173.796 277.398C173.017 277.686 172.182 277.722 171.473 277.5C170.764 277.278 170.24 276.814 170.015 276.212L167.487 269.388C167.264 268.784 167.359 268.091 167.752 267.46C168.145 266.83 168.803 266.313 169.583 266.024C170.362 265.736 171.198 265.699 171.907 265.921C172.616 266.143 173.14 266.607 173.363 267.211L175.892 274.034C176.114 274.638 176.019 275.331 175.626 275.961C175.233 276.592 174.575 277.108 173.796 277.398V277.398Z" fill="#DD4F05"/>
<path d="M181.387 274.585C180.672 274.849 179.899 274.863 179.236 274.624C178.573 274.384 178.075 273.911 177.851 273.309L175.322 266.485C175.099 265.882 175.168 265.198 175.515 264.584C175.862 263.97 176.458 263.477 177.173 263.212C177.887 262.948 178.661 262.933 179.324 263.173C179.987 263.412 180.485 263.886 180.709 264.489L183.237 271.313C183.46 271.916 183.39 272.6 183.043 273.213C182.696 273.827 182.1 274.32 181.387 274.585V274.585Z" fill="#DD4F05"/>
<path d="M188.977 271.773C188.198 272.061 187.362 272.098 186.653 271.876C185.944 271.653 185.42 271.19 185.196 270.587L182.668 263.763C182.444 263.16 182.539 262.467 182.932 261.836C183.325 261.205 183.984 260.689 184.763 260.4C185.542 260.111 186.378 260.074 187.087 260.296C187.796 260.519 188.32 260.983 188.544 261.586L191.072 268.41C191.295 269.013 191.199 269.706 190.806 270.337C190.413 270.967 189.756 271.484 188.977 271.773V271.773Z" fill="#DD4F05"/>
<path d="M200.485 267.509C199.77 267.773 198.997 267.787 198.334 267.548C197.671 267.308 197.173 266.835 196.949 266.233L194.42 259.409C194.197 258.806 194.266 258.122 194.613 257.508C194.96 256.894 195.556 256.401 196.271 256.136C196.985 255.872 197.759 255.857 198.422 256.097C199.085 256.336 199.583 256.81 199.807 257.413L202.335 264.237C202.558 264.84 202.488 265.524 202.141 266.137C201.794 266.751 201.198 267.244 200.485 267.509V267.509Z" fill="#DD4F05"/>
<path d="M208.075 264.697C207.296 264.985 206.46 265.022 205.751 264.8C205.042 264.577 204.518 264.114 204.294 263.511L201.766 256.687C201.542 256.084 201.637 255.391 202.03 254.76C202.423 254.129 203.082 253.613 203.861 253.324C204.64 253.035 205.476 252.998 206.185 253.221C206.894 253.443 207.418 253.907 207.642 254.51L210.17 261.334C210.393 261.937 210.297 262.63 209.904 263.261C209.512 263.891 208.854 264.408 208.075 264.697V264.697Z" fill="#DD4F05"/>
<path d="M215.42 261.976C214.641 262.264 213.805 262.3 213.096 262.078C212.388 261.856 211.864 261.392 211.639 260.79L209.111 253.966C208.887 253.363 208.983 252.669 209.376 252.039C209.769 251.408 210.427 250.891 211.206 250.603C211.986 250.314 212.822 250.277 213.531 250.499C214.24 250.721 214.764 251.185 214.987 251.789L217.516 258.612C217.738 259.216 217.642 259.909 217.25 260.539C216.857 261.17 216.199 261.686 215.42 261.976V261.976Z" fill="#DD4F05"/>
<path d="M149.012 315.554L108.258 330.653C107.753 330.84 107.215 330.876 106.763 330.752C106.312 330.629 105.982 330.356 105.848 329.994C105.714 329.632 105.786 329.211 106.048 328.822C106.311 328.434 106.742 328.111 107.247 327.924L148.001 312.824C148.505 312.637 149.043 312.601 149.495 312.725C149.947 312.849 150.276 313.122 150.41 313.483C150.544 313.845 150.472 314.267 150.21 314.655C149.948 315.043 149.517 315.367 149.012 315.554Z" fill="#E6E6E6"/>
<path d="M133.463 314.072L119.088 319.398C118.591 319.581 118.053 319.59 117.591 319.422C117.13 319.253 116.782 318.921 116.626 318.499C116.469 318.077 116.517 317.598 116.757 317.17C116.997 316.741 117.411 316.397 117.908 316.213L132.283 310.887C132.779 310.703 133.317 310.694 133.779 310.863C134.241 311.032 134.588 311.363 134.744 311.786C134.901 312.208 134.854 312.686 134.613 313.115C134.373 313.543 133.959 313.888 133.463 314.072V314.072Z" fill="#E6E6E6"/>
<path d="M233.051 223.883L78.3083 281.217L78.4769 281.672L233.219 224.338L233.051 223.883Z" fill="#3F3D56"/>
</g>
<path d="M337.483 174.496L336.105 174.504L335.849 131.004C335.81 124.327 333.472 117.937 329.348 113.239C325.225 108.542 319.654 105.922 313.862 105.956L233.92 106.426C231.052 106.443 228.216 107.111 225.574 108.392C222.931 109.673 220.535 111.541 218.521 113.891C216.507 116.241 214.914 119.026 213.835 122.087C212.755 125.148 212.209 128.425 212.229 131.731L213.633 370.374C213.652 373.68 214.237 376.95 215.352 379.998C216.467 383.046 218.092 385.812 220.134 388.138C222.176 390.464 224.594 392.305 227.251 393.554C229.908 394.804 232.752 395.438 235.62 395.421L315.563 394.951C318.431 394.934 321.267 394.266 323.909 392.986C326.551 391.705 328.947 389.836 330.962 387.486C332.976 385.137 334.568 382.352 335.648 379.291C336.727 376.23 337.273 372.953 337.253 369.646L336.287 205.467L337.665 205.459L337.483 174.496Z" fill="#3F3D56"/>
<path d="M314.021 112.73L303.581 112.851C304.077 114.202 304.277 115.672 304.164 117.131C304.051 118.59 303.629 119.994 302.934 121.218C302.239 122.442 301.293 123.45 300.179 124.152C299.065 124.854 297.817 125.229 296.546 125.243L250.729 125.772C249.458 125.787 248.202 125.441 247.072 124.765C245.943 124.089 244.974 123.103 244.25 121.895C243.527 120.687 243.073 119.294 242.926 117.838C242.779 116.382 242.946 114.907 243.41 113.545L233.66 113.658C229.332 113.708 225.205 115.737 222.186 119.299C219.167 122.862 217.503 127.665 217.561 132.653L220.312 371.02C220.341 373.49 220.791 375.931 221.637 378.203C222.483 380.475 223.709 382.535 225.244 384.264C226.78 385.993 228.594 387.357 230.585 388.28C232.575 389.202 234.702 389.664 236.845 389.639L317.206 388.712C321.533 388.662 325.66 386.632 328.679 383.07C331.698 379.508 333.362 374.704 333.305 369.716L330.553 131.349C330.525 128.879 330.075 126.439 329.228 124.166C328.382 121.894 327.156 119.834 325.621 118.106C324.086 116.377 322.271 115.012 320.281 114.09C318.29 113.167 316.163 112.705 314.021 112.73L314.021 112.73ZM313.543 223.33C313.555 224.621 313.123 225.863 312.341 226.785C311.56 227.707 310.493 228.234 309.373 228.251L288.947 228.486C287.827 228.495 286.748 227.993 285.946 227.09C285.143 226.186 284.683 224.954 284.664 223.664L284.65 222.446C284.639 221.155 285.071 219.913 285.852 218.991C286.633 218.069 287.7 217.542 288.82 217.525L309.247 217.29C310.366 217.281 311.445 217.783 312.248 218.686C313.05 219.59 313.511 220.822 313.529 222.112L313.543 223.33ZM315.584 201.788C315.595 203.079 315.163 204.321 314.382 205.243C313.601 206.165 312.534 206.692 311.414 206.708L238.161 207.554C237.041 207.563 235.962 207.061 235.16 206.157C234.357 205.254 233.897 204.022 233.879 202.731L233.865 201.513C233.853 200.222 234.285 198.98 235.066 198.058C235.848 197.137 236.915 196.61 238.035 196.593L311.287 195.748C312.407 195.738 313.486 196.24 314.289 197.144C315.091 198.048 315.552 199.279 315.57 200.57L315.584 201.788ZM315.335 180.272C315.347 181.563 314.915 182.805 314.134 183.727C313.352 184.649 312.285 185.176 311.166 185.193L237.913 186.038C236.793 186.047 235.714 185.545 234.912 184.642C234.109 183.738 233.649 182.506 233.63 181.215L233.616 179.998C233.605 178.707 234.037 177.465 234.818 176.543C235.599 175.621 236.666 175.094 237.786 175.077L311.039 174.232C312.159 174.223 313.238 174.725 314.04 175.628C314.843 176.532 315.303 177.764 315.321 179.055L315.335 180.272ZM315.087 158.757C315.099 160.048 314.667 161.29 313.885 162.211C313.104 163.133 312.037 163.66 310.917 163.677L237.664 164.522C236.545 164.532 235.466 164.029 234.663 163.126C233.861 162.222 233.4 160.99 233.382 159.7L233.368 158.482C233.356 157.191 233.788 155.949 234.57 155.027C235.351 154.105 236.418 153.578 237.538 153.562L310.791 152.716C311.911 152.707 312.99 153.209 313.792 154.113C314.594 155.016 315.055 156.248 315.073 157.539L315.087 158.757Z" fill="white"/>
<path d="M239.573 204.498C240.677 204.471 241.54 203.107 241.501 201.451C241.461 199.794 240.533 198.473 239.429 198.5C238.325 198.526 237.462 199.89 237.502 201.547C237.542 203.203 238.469 204.524 239.573 204.498Z" fill="white"/>
<path d="M248.071 204.294C249.451 204.261 250.538 202.891 250.498 201.235C250.458 199.578 249.307 198.262 247.927 198.296C246.546 198.329 245.46 199.698 245.499 201.355C245.539 203.011 246.69 204.327 248.071 204.294Z" fill="white"/>
<path d="M256.068 204.102C257.449 204.069 258.535 202.699 258.496 201.043C258.456 199.386 257.305 198.07 255.924 198.104C254.544 198.137 253.457 199.506 253.497 201.163C253.537 202.819 254.688 204.135 256.068 204.102Z" fill="white"/>
<path d="M264.066 203.91C265.446 203.877 266.533 202.507 266.493 200.851C266.454 199.194 265.302 197.878 263.922 197.912C262.542 197.945 261.455 199.314 261.495 200.971C261.535 202.627 262.686 203.943 264.066 203.91Z" fill="white"/>
<path d="M290.563 224.28C291.943 224.246 293.03 222.877 292.99 221.22C292.95 219.564 291.799 218.248 290.419 218.281C289.038 218.314 287.952 219.684 287.992 221.34C288.031 222.997 289.183 224.313 290.563 224.28Z" fill="white"/>
<path d="M299.06 224.075C300.165 224.049 301.028 222.685 300.988 221.028C300.948 219.372 300.021 218.051 298.916 218.077C297.812 218.104 296.949 219.468 296.989 221.124C297.029 222.781 297.956 224.102 299.06 224.075Z" fill="white"/>
<path d="M307.058 223.883C308.162 223.857 309.025 222.493 308.985 220.836C308.946 219.18 308.018 217.859 306.914 217.885C305.81 217.912 304.947 219.276 304.987 220.932C305.026 222.589 305.954 223.91 307.058 223.883Z" fill="white"/>
<path d="M316.61 259.943L233.361 260.432C231.405 260.444 229.535 261.354 228.161 262.962C226.788 264.571 226.023 266.746 226.037 269.009L226.313 315.942C226.326 318.205 227.116 320.371 228.508 321.963C229.901 323.555 231.782 324.443 233.738 324.431L316.987 323.941C318.943 323.93 320.813 323.02 322.187 321.412C323.56 319.803 324.325 317.628 324.311 315.365L324.035 268.432C324.022 266.169 323.232 264.003 321.84 262.411C320.447 260.819 318.566 259.931 316.61 259.943L316.61 259.943ZM231.336 266.265C231.5 266.23 235.393 265.439 238.635 267.668C241.875 269.896 243.141 274.234 243.193 274.417L243.327 274.885L242.908 274.973C242.311 275.085 241.707 275.14 241.103 275.137C239.184 275.191 237.288 274.65 235.609 273.57C232.368 271.343 231.103 267.005 231.05 266.821L230.917 266.354L231.336 266.265ZM249.663 309.733L234.815 309.821C233.732 309.827 232.69 309.335 231.919 308.454C231.149 307.572 230.711 306.373 230.704 305.12C230.696 303.867 231.12 302.663 231.88 301.772C232.641 300.881 233.676 300.378 234.759 300.371L249.608 300.284C250.691 300.277 251.732 300.769 252.503 301.651C253.274 302.532 253.711 303.731 253.719 304.985C253.726 306.238 253.303 307.442 252.542 308.332C251.782 309.223 250.746 309.727 249.663 309.733V309.733ZM317.218 308.477C317.222 309.843 316.759 311.154 315.93 312.125C315.101 313.095 313.974 313.646 312.793 313.657L301.657 313.723C300.477 313.726 299.343 313.188 298.502 312.227C297.662 311.266 297.184 309.96 297.172 308.595L297.127 300.863C297.122 299.497 297.585 298.186 298.414 297.215C299.243 296.245 300.371 295.694 301.551 295.683L312.687 295.617C313.868 295.614 315.002 296.152 315.842 297.113C316.682 298.074 317.161 299.38 317.172 300.745L317.218 308.477Z" fill="#DD4F05"/>
<path d="M305.037 307.011L300.487 307.038C300.162 307.04 299.851 307.2 299.623 307.483C299.395 307.765 299.268 308.148 299.271 308.545C299.273 308.943 299.404 309.324 299.636 309.604C299.867 309.884 300.18 310.04 300.504 310.038L305.054 310.011C305.379 310.01 305.69 309.85 305.918 309.567C306.146 309.284 306.273 308.902 306.271 308.504C306.268 308.106 306.137 307.726 305.906 307.446C305.674 307.166 305.362 307.01 305.037 307.011V307.011Z" fill="#3F3D56"/>
<path d="M313.212 306.963L309.312 306.986C309.033 306.988 308.767 307.148 308.572 307.43C308.377 307.713 308.268 308.095 308.271 308.493C308.273 308.89 308.386 309.271 308.584 309.551C308.783 309.831 309.051 309.988 309.329 309.986L313.229 309.963C313.508 309.962 313.774 309.802 313.969 309.52C314.164 309.237 314.273 308.855 314.27 308.457C314.268 308.059 314.155 307.679 313.957 307.398C313.758 307.118 313.49 306.962 313.212 306.963V306.963Z" fill="#3F3D56"/>
<path d="M305.013 303.012L300.463 303.038C300.138 303.04 299.828 303.2 299.6 303.483C299.372 303.765 299.245 304.148 299.247 304.546C299.249 304.943 299.381 305.324 299.612 305.604C299.844 305.884 300.156 306.04 300.481 306.038L305.031 306.012C305.356 306.01 305.666 305.85 305.894 305.567C306.123 305.284 306.249 304.902 306.247 304.504C306.245 304.107 306.113 303.726 305.882 303.446C305.651 303.166 305.338 303.01 305.013 303.012V303.012Z" fill="#3F3D56"/>
<path d="M313.188 302.963L309.288 302.986C309.01 302.988 308.744 303.148 308.548 303.43C308.353 303.713 308.245 304.095 308.247 304.493C308.249 304.89 308.362 305.271 308.561 305.551C308.759 305.832 309.027 305.988 309.306 305.986L313.206 305.963C313.484 305.962 313.75 305.802 313.946 305.52C314.141 305.237 314.249 304.855 314.247 304.457C314.245 304.059 314.132 303.679 313.933 303.398C313.735 303.118 313.467 302.962 313.188 302.963L313.188 302.963Z" fill="#3F3D56"/>
<path d="M304.99 299.012L300.44 299.038C300.115 299.04 299.804 299.2 299.576 299.483C299.348 299.766 299.221 300.148 299.224 300.546C299.226 300.943 299.357 301.324 299.589 301.604C299.82 301.884 300.133 302.04 300.457 302.038L305.007 302.012C305.332 302.01 305.643 301.85 305.871 301.567C306.099 301.285 306.226 300.902 306.224 300.504C306.221 300.107 306.09 299.726 305.859 299.446C305.627 299.166 305.315 299.01 304.99 299.012V299.012Z" fill="#3F3D56"/>
<path d="M313.165 298.964L309.265 298.986C308.986 298.988 308.72 299.148 308.525 299.43C308.33 299.713 308.221 300.095 308.223 300.493C308.226 300.89 308.339 301.271 308.537 301.551C308.736 301.832 309.004 301.988 309.282 301.986L313.182 301.963C313.461 301.962 313.727 301.802 313.922 301.52C314.117 301.237 314.226 300.855 314.223 300.457C314.221 300.059 314.108 299.679 313.91 299.398C313.711 299.118 313.443 298.962 313.165 298.964L313.165 298.964Z" fill="#3F3D56"/>
<path d="M379.661 260.273L368.707 261.281L369.807 273.23L380.761 272.222L379.661 260.273Z" fill="#E6E6E6"/>
<path d="M426.304 400.211H422.239L420.305 378.211H426.305L426.304 400.211Z" fill="#FFB8B8"/>
<path d="M450.304 400.211H445.561L443.305 378.211H450.305L450.304 400.211Z" fill="#FFB8B8"/>
<path d="M415.45 302.117C415.041 301.574 414.738 300.938 414.564 300.255C414.39 299.572 414.348 298.858 414.442 298.164C414.536 297.47 414.763 296.811 415.107 296.236C415.451 295.661 415.904 295.182 416.434 294.833L427.08 241.635L435.661 245.757L422.45 296.93C422.931 298.001 423.056 299.224 422.8 300.367C422.545 301.511 421.927 302.495 421.064 303.135C420.201 303.774 419.153 304.024 418.119 303.836C417.084 303.649 416.134 303.037 415.45 302.117V302.117Z" fill="#FFB8B8"/>
<path d="M447.718 333.559C447.165 333.211 446.688 332.734 446.321 332.162C445.954 331.59 445.706 330.936 445.594 330.248C445.482 329.559 445.509 328.852 445.673 328.176C445.837 327.5 446.134 326.872 446.544 326.335L441.305 272.211L450.775 272.686L452.952 325.924C453.727 326.738 454.203 327.836 454.29 329.01C454.377 330.184 454.069 331.352 453.424 332.293C452.779 333.234 451.841 333.883 450.79 334.116C449.738 334.349 448.645 334.151 447.718 333.558V333.559Z" fill="#FFB8B8"/>
<path d="M433.805 256.211C439.051 256.211 443.305 251.287 443.305 245.211C443.305 239.136 439.051 234.211 433.805 234.211C428.558 234.211 424.305 239.136 424.305 245.211C424.305 251.287 428.558 256.211 433.805 256.211Z" fill="#FFB8B8"/>
<path d="M447.371 321.211H419.305L419.339 320.955C419.389 320.571 424.34 282.432 420.689 269.955C420.322 268.728 420.354 267.386 420.779 266.186C421.204 264.986 421.991 264.014 422.989 263.455H422.989C428.209 260.565 438.229 257.006 446.686 265.643C447.93 266.935 448.902 268.55 449.524 270.359C450.147 272.169 450.402 274.124 450.271 276.07L447.371 321.211Z" fill="#CCCCCC"/>
<path d="M424.433 288.211L411.305 285.095L417.459 268.034C417.827 266.381 418.74 264.967 419.998 264.101C421.257 263.236 422.757 262.989 424.17 263.416C425.584 263.843 426.795 264.908 427.537 266.378C428.28 267.848 428.495 269.603 428.133 271.258L424.433 288.211Z" fill="#CCCCCC"/>
<path d="M441.206 294.211L440.413 273.479C439.812 269.581 441.768 265.897 444.775 265.295C447.784 264.695 450.721 267.398 451.325 271.324L454.305 290.697L441.206 294.211Z" fill="#CCCCCC"/>
<path d="M446.811 319.211C451.463 339.44 451.97 365.158 450.715 393.211L444.468 392.32L433.146 338.826L426.899 393.211L419.871 392.766C417.771 363.331 415.727 338.061 419.09 321.44L446.811 319.211Z" fill="#2F2E41"/>
<path d="M439.808 253.115C438.052 255.241 434.791 254.1 434.562 251.195C434.544 250.969 434.546 250.742 434.566 250.517C434.684 249.23 435.338 248.062 435.181 246.703C435.146 246.365 435.035 246.042 434.86 245.767C433.46 243.636 430.175 246.719 428.855 244.791C428.045 243.608 428.997 241.747 428.375 240.425C427.555 238.681 425.126 239.541 423.602 238.586C421.907 237.523 422.009 234.566 423.125 232.768C424.485 230.575 426.871 229.405 429.227 229.236C431.583 229.067 433.923 229.791 436.123 230.766C438.622 231.873 441.1 233.403 442.638 235.902C444.509 238.94 444.689 243.025 443.753 246.577C443.184 248.738 441.242 251.378 439.808 253.115Z" fill="#2F2E41"/>
<defs>
<clipPath id="clip0_3_6">
<rect width="282" height="245" fill="white" transform="translate(0 123.975) rotate(-20.3301)"/>
</clipPath>
</defs>
</svg>
