<svg width="487" height="431" viewBox="0 0 487 431" fill="none" xmlns="http://www.w3.org/2000/svg">
<ellipse cx="250.5" cy="214.5" rx="218.5" ry="214.5" fill="#DD4F05" fill-opacity="0.21"/>
<path d="M313 58.7723V300.345L312.136 310.404C310.621 327.864 303.003 344.297 290.548 356.976C288.782 358.77 286.934 360.468 285.005 362.072C282.631 364.06 280.133 365.907 277.527 367.6C276.037 368.573 274.509 369.491 272.956 370.361C263.923 375.426 253.946 378.702 243.602 380H169.475C163.576 380.005 157.875 377.933 153.43 374.168C151.229 372.308 149.384 370.084 147.981 367.6C146.021 364.114 144.995 360.205 145 356.234V58.7723C145.008 52.47 147.59 46.4281 152.18 41.9716C156.769 37.5152 162.991 35.008 169.481 35H288.525C288.807 35 289.082 35.0061 289.364 35.0122C289.546 35.0182 289.727 35.0243 289.909 35.0426C290.153 35.0487 290.397 35.0669 290.635 35.0912C290.942 35.1095 291.243 35.1398 291.544 35.1763C291.819 35.2128 292.095 35.2493 292.37 35.2919C292.427 35.298 292.477 35.3101 292.533 35.3162C292.884 35.3709 293.235 35.4318 293.579 35.5047C293.923 35.5716 294.274 35.6507 294.612 35.7358C294.857 35.7966 295.107 35.8635 295.351 35.9304C295.358 35.9304 295.37 35.9365 295.376 35.9365C296.097 36.1433 296.811 36.3805 297.512 36.6541C297.731 36.7332 297.95 36.8244 298.163 36.9156L298.257 36.9521C298.433 37.0251 298.602 37.0981 298.771 37.1771C299.278 37.4021 299.779 37.6515 300.274 37.913C301.088 38.3487 301.876 38.8278 302.635 39.3482C302.879 39.5124 303.117 39.6888 303.349 39.8652C303.543 40.005 303.737 40.151 303.925 40.3091C303.941 40.3172 303.956 40.3274 303.969 40.3395C303.994 40.3577 304.019 40.3821 304.044 40.4003C304.213 40.528 304.376 40.6618 304.533 40.7956C304.84 41.051 305.14 41.3186 305.435 41.5923C305.516 41.6653 305.597 41.7382 305.679 41.8173C305.76 41.8903 305.835 41.9693 305.917 42.0484C305.998 42.1214 306.073 42.2004 306.148 42.2734C306.193 42.3109 306.235 42.3515 306.274 42.395C306.499 42.6261 306.718 42.8633 306.931 43.1005C307.201 43.3985 307.464 43.7025 307.708 44.0127C307.921 44.2681 308.121 44.5235 308.315 44.785C308.497 45.0222 308.666 45.2594 308.835 45.5026C308.881 45.5632 308.922 45.6261 308.96 45.6912C309.136 45.9405 309.299 46.1959 309.461 46.4514C309.869 47.096 310.238 47.7649 310.576 48.44C310.702 48.6954 310.821 48.9447 310.933 49.2002C311.077 49.5103 311.209 49.8205 311.334 50.1306C311.384 50.2462 311.428 50.3678 311.472 50.4833C311.541 50.6597 311.603 50.8361 311.666 51.0124C311.735 51.207 311.804 51.4077 311.866 51.6023L312.017 52.0767C312.104 52.3625 312.18 52.6423 312.255 52.9281C312.299 53.0984 312.342 53.2686 312.38 53.445C312.674 54.687 312.865 55.9499 312.95 57.2216C312.956 57.3797 312.969 57.5317 312.975 57.6898C312.994 58.0487 313 58.4075 313 58.7723Z" fill="#3F3D56"/>
<path d="M313.048 58.7449V158.863L298.509 175.24C297.853 174.523 297.207 173.796 296.57 173.059C295.662 172.027 294.776 170.978 293.911 169.913C293.682 169.639 293.466 169.372 293.243 169.099C292.663 168.394 292.101 167.677 291.539 166.954C286.45 160.426 281.913 153.455 277.978 146.119C277.486 145.202 277.005 144.285 276.531 143.355C272.257 134.963 268.782 126.158 266.157 117.065C265.858 116.039 265.571 115 265.301 113.961C263.131 105.83 261.643 97.52 260.855 89.123C260.744 87.9385 260.644 86.7601 260.562 85.5756C260.562 85.5452 260.556 85.5087 260.556 85.4784C260.463 84.1906 260.398 82.9028 260.34 81.6029C259.629 65.8853 261.354 50.1513 265.448 35H290.156C290.42 35 290.677 35.0061 290.941 35.0122C291.111 35.0182 291.281 35.0243 291.451 35.0425C291.679 35.0486 291.908 35.0668 292.13 35.0911C292.417 35.1093 292.698 35.1397 292.98 35.1761C293.237 35.2126 293.495 35.249 293.753 35.2915C293.806 35.2976 293.852 35.3098 293.905 35.3158H293.911C294.239 35.3705 294.567 35.4313 294.889 35.5041C295.211 35.571 295.539 35.6499 295.856 35.735C296.084 35.7957 296.319 35.8625 296.547 35.9294C296.553 35.9294 296.565 35.9354 296.57 35.9354C297.244 36.142 297.906 36.3789 298.562 36.6522C298.767 36.7312 298.972 36.8223 299.171 36.9134L299.259 36.9499C299.423 37.0227 299.581 37.0956 299.739 37.1746C300.214 37.3994 300.683 37.6484 301.145 37.9096C301.906 38.3448 302.644 38.8234 303.354 39.3432C303.582 39.5072 303.805 39.6834 304.022 39.8595C304.203 39.9992 304.385 40.145 304.56 40.303C304.575 40.311 304.589 40.3212 304.601 40.3333H304.607C304.713 40.4244 304.818 40.5156 304.918 40.6067C304.988 40.6674 305.064 40.7282 305.129 40.7889C305.228 40.874 305.322 40.9651 305.422 41.0501C305.468 41.0926 305.515 41.1352 305.556 41.1777C305.697 41.3113 305.832 41.445 305.972 41.5847C306.048 41.6576 306.125 41.7305 306.201 41.8094C306.277 41.8823 306.347 41.9613 306.423 42.0402C306.499 42.1131 306.57 42.1921 306.64 42.265L306.646 42.2711C306.689 42.3032 306.726 42.3422 306.757 42.3865C306.968 42.6173 307.173 42.8542 307.372 43.0911C307.624 43.3888 307.87 43.6925 308.099 44.0023C308.298 44.2574 308.485 44.5125 308.667 44.7737C308.837 45.0106 308.995 45.2475 309.153 45.4905C309.195 45.551 309.235 45.6138 309.27 45.6788C309.434 45.9279 309.586 46.183 309.739 46.4381C310.12 47.082 310.465 47.7502 310.781 48.4245C310.899 48.6796 311.01 48.9286 311.115 49.1838C311.25 49.4936 311.373 49.8033 311.49 50.1131C311.537 50.2286 311.578 50.35 311.619 50.4655C311.684 50.6416 311.742 50.8178 311.801 50.9939C311.865 51.1883 311.93 51.3888 311.988 51.5831L312.129 52.057C312.211 52.3425 312.281 52.6219 312.351 52.9074C312.392 53.0774 312.433 53.2475 312.469 53.4237C312.744 54.6642 312.922 55.9257 313.002 57.1959C313.007 57.3538 313.019 57.5057 313.025 57.6636C313.043 58.022 313.048 58.3804 313.048 58.7449Z" fill="#DD4F05"/>
<path opacity="0.2" d="M313.054 89.123V86.3531H296.57V43.0911H307.378C307.179 42.8542 306.974 42.6173 306.763 42.3865H306.757C306.726 42.3422 306.689 42.3032 306.646 42.2711V42.265H306.64C306.57 42.1921 306.499 42.1132 306.423 42.0403C306.356 41.9589 306.283 41.8818 306.207 41.8094H306.201C306.125 41.7305 306.048 41.6576 305.972 41.5847C305.832 41.445 305.697 41.3113 305.556 41.1777C305.515 41.1352 305.468 41.0927 305.422 41.0501C305.322 40.9651 305.228 40.874 305.129 40.7889C305.064 40.7282 304.988 40.6674 304.918 40.6067C304.818 40.5156 304.713 40.4245 304.607 40.3333H296.57V35.9355C296.565 35.9355 296.553 35.9294 296.547 35.9294C296.319 35.8626 296.084 35.7958 295.856 35.735C295.539 35.65 295.211 35.571 294.889 35.5042C294.567 35.4313 294.239 35.3706 293.911 35.3159V43.0911C293.91 53.0592 290.59 62.7212 284.513 70.4443C278.436 78.1674 269.974 83.4779 260.557 85.4784C260.557 85.5088 260.562 85.5452 260.562 85.5756C260.644 86.7601 260.744 87.9385 260.855 89.123H293.911V143.355H276.531C277.005 144.285 277.486 145.202 277.978 146.119H293.911V169.913C294.778 170.976 295.664 172.025 296.57 173.059V146.119H313.054V140.543H313.049C312.996 140.561 312.949 140.579 312.896 140.598C304.865 143.398 296.57 137.081 296.57 128.291V89.123H313.054Z" fill="black"/>
<path d="M106.332 300.688L77.9204 290.571C74.7925 274.781 75.4939 258.451 79.9637 243C90.7421 269.446 124.359 276.84 143.025 298.245C148.796 304.967 153.01 312.926 155.353 321.533C157.696 330.139 158.108 339.173 156.56 347.964L162 369C147.944 367.357 134.405 362.628 122.316 355.139C110.226 347.65 99.8732 337.579 91.9704 325.619C87.6021 318.865 84.0858 311.578 81.5044 303.928C93.7688 303.042 106.332 300.688 106.332 300.688Z" fill="#F2F2F2"/>
<path d="M154.324 143.105C153.641 143.104 152.986 142.823 152.503 142.322C152.019 141.821 151.748 141.142 151.747 140.433V122.263C151.746 121.912 151.813 121.564 151.942 121.24C152.071 120.915 152.261 120.62 152.5 120.371C152.74 120.123 153.024 119.926 153.337 119.791C153.65 119.656 153.985 119.587 154.324 119.587C154.662 119.587 154.998 119.656 155.311 119.791C155.624 119.926 155.908 120.123 156.147 120.371C156.386 120.62 156.576 120.915 156.705 121.24C156.835 121.564 156.901 121.912 156.9 122.263V140.433C156.9 141.142 156.628 141.821 156.145 142.322C155.662 142.823 155.007 143.104 154.324 143.105Z" fill="#3F3D56"/>
<path d="M244.671 128.597H224.297C219.903 128.597 216.34 132.292 216.34 136.849V136.849C216.34 141.406 219.903 145.101 224.297 145.101H244.671C249.065 145.101 252.628 141.406 252.628 136.849C252.628 132.292 249.065 128.597 244.671 128.597Z" fill="#DD4F05"/>
<path d="M282.468 161.604H186.5C182.105 161.604 178.542 165.298 178.542 169.855V169.855C178.542 174.413 182.105 178.107 186.5 178.107H282.468C286.863 178.107 290.426 174.413 290.426 169.855C290.426 165.298 286.863 161.604 282.468 161.604Z" fill="white"/>
<path d="M282.468 194.61H186.5C182.105 194.61 178.542 198.304 178.542 202.862V202.862C178.542 207.419 182.105 211.113 186.5 211.113H282.468C286.863 211.113 290.426 207.419 290.426 202.862C290.426 198.304 286.863 194.61 282.468 194.61Z" fill="white"/>
<path d="M153.808 107.834C153.125 107.833 152.47 107.552 151.987 107.051C151.504 106.55 151.232 105.871 151.232 105.162V86.9922C151.233 86.2843 151.505 85.6057 151.988 85.1054C152.471 84.6052 153.126 84.3242 153.808 84.3242C154.491 84.3242 155.146 84.6052 155.629 85.1054C156.112 85.6057 156.384 86.2843 156.385 86.9922V105.162C156.384 105.871 156.113 106.55 155.63 107.051C155.146 107.552 154.492 107.833 153.808 107.834Z" fill="#3F3D56"/>
<path d="M217.079 43.8279C217.079 43.1195 217.351 42.4403 217.834 41.9394C218.317 41.4384 218.972 41.1566 219.655 41.1558H237.178C237.861 41.1558 238.516 41.4373 239 41.9385C239.483 42.4396 239.754 43.1192 239.754 43.8279C239.754 44.5365 239.483 45.2162 239 45.7173C238.516 46.2184 237.861 46.4999 237.178 46.4999H219.655C218.972 46.4991 218.317 46.2173 217.834 45.7164C217.351 45.2155 217.079 44.5363 217.079 43.8279Z" fill="white"/>
<path d="M154.324 174.101C153.641 174.1 152.986 173.819 152.503 173.318C152.019 172.817 151.748 172.137 151.747 171.429V153.259C151.746 152.908 151.813 152.56 151.942 152.235C152.071 151.911 152.261 151.616 152.5 151.367C152.74 151.119 153.024 150.921 153.337 150.787C153.65 150.652 153.985 150.583 154.324 150.583C154.662 150.583 154.998 150.652 155.311 150.787C155.624 150.921 155.908 151.119 156.147 151.367C156.386 151.616 156.576 151.911 156.705 152.235C156.835 152.56 156.901 152.908 156.9 153.259V171.429C156.9 172.137 156.628 172.817 156.145 173.318C155.662 173.819 155.007 174.1 154.324 174.101Z" fill="#3F3D56"/>
<path d="M314.828 134.617C314.145 134.617 313.49 134.335 313.007 133.834C312.524 133.333 312.252 132.654 312.251 131.945V113.775C312.251 113.424 312.317 113.076 312.447 112.752C312.576 112.427 312.765 112.132 313.005 111.883C313.244 111.635 313.528 111.438 313.841 111.303C314.154 111.169 314.49 111.099 314.828 111.099C315.167 111.099 315.502 111.169 315.815 111.303C316.128 111.438 316.412 111.635 316.652 111.883C316.891 112.132 317.081 112.427 317.21 112.752C317.339 113.076 317.406 113.424 317.405 113.775V131.945C317.404 132.654 317.132 133.333 316.649 133.834C316.166 134.335 315.511 134.617 314.828 134.617Z" fill="#3F3D56"/>
<path d="M246.969 46.4999C248.392 46.4999 249.546 45.3036 249.546 43.8279C249.546 42.3521 248.392 41.1558 246.969 41.1558C245.546 41.1558 244.393 42.3521 244.393 43.8279C244.393 45.3036 245.546 46.4999 246.969 46.4999Z" fill="white"/>
<path d="M387.892 299.763V260.638C387.893 259.846 388.197 259.087 388.737 258.527C389.277 257.967 390.009 257.652 390.773 257.651H419.267C420.031 257.652 420.763 257.967 421.303 258.527C421.843 259.087 422.146 259.846 422.147 260.638V299.763C422.146 300.555 421.843 301.314 421.303 301.874C420.763 302.434 420.031 302.749 419.267 302.75H390.773C390.009 302.749 389.277 302.434 388.737 301.874C388.197 301.314 387.893 300.555 387.892 299.763Z" fill="#E6E6E6"/>
<path d="M390.078 287.946V262.793C390.079 262.051 390.363 261.34 390.869 260.816C391.374 260.291 392.06 259.996 392.775 259.995H417.264C417.979 259.996 418.665 260.291 419.171 260.816C419.676 261.34 419.961 262.051 419.962 262.793V297.609C419.961 298.35 419.676 299.061 419.171 299.586C418.665 300.11 417.979 300.405 417.264 300.406H402.094C398.908 300.402 395.854 299.088 393.601 296.752C391.349 294.416 390.081 291.249 390.078 287.946Z" fill="white"/>
<path d="M394.043 269.811C394.044 269.086 394.322 268.391 394.816 267.879C395.31 267.366 395.98 267.078 396.679 267.077H413.667C414.366 267.077 415.036 267.365 415.531 267.878C416.025 268.391 416.303 269.086 416.303 269.811C416.303 270.536 416.025 271.231 415.531 271.744C415.036 272.256 414.366 272.544 413.667 272.544H396.679C395.98 272.544 395.31 272.255 394.816 271.743C394.322 271.23 394.044 270.536 394.043 269.811Z" fill="#E6E6E6"/>
<path d="M394.043 278.315C394.044 277.59 394.322 276.895 394.816 276.383C395.31 275.871 395.98 275.582 396.679 275.582H413.667C414.366 275.582 415.036 275.87 415.531 276.382C416.025 276.895 416.303 277.59 416.303 278.315C416.303 279.04 416.025 279.735 415.531 280.248C415.036 280.761 414.366 281.048 413.667 281.048H396.679C395.98 281.048 395.31 280.759 394.816 280.247C394.322 279.735 394.044 279.04 394.043 278.315Z" fill="#E6E6E6"/>
<path d="M394.043 286.819C394.044 286.094 394.322 285.4 394.816 284.887C395.31 284.375 395.98 284.086 396.679 284.086H413.667C414.366 284.086 415.036 284.374 415.531 284.886C416.025 285.399 416.303 286.094 416.303 286.819C416.303 287.544 416.025 288.239 415.531 288.752C415.036 289.265 414.366 289.553 413.667 289.553H396.679C395.98 289.552 395.31 289.264 394.816 288.751C394.322 288.239 394.044 287.544 394.043 286.819Z" fill="#E6E6E6"/>
<path d="M389.209 368.736H383.711L381.094 346.744L389.209 346.744L389.209 368.736Z" fill="#FFB6B6"/>
<path d="M391.668 379.562H387.767L387.07 375.742L385.287 379.562H374.939C374.443 379.562 373.96 379.398 373.56 379.093C373.161 378.788 372.866 378.359 372.718 377.868C372.57 377.377 372.578 376.85 372.74 376.363C372.901 375.877 373.209 375.457 373.617 375.165L381.88 369.247V365.385L390.572 365.923L391.668 379.562Z" fill="#2F2E41"/>
<path d="M371.034 355.847L366.264 358.682L353.446 340.953L360.487 336.768L371.034 355.847Z" fill="#FFB6B6"/>
<path d="M378.36 363.97L374.975 365.983L372.539 363.028L372.824 367.262L363.847 372.599C363.416 372.854 362.918 372.961 362.426 372.903C361.933 372.844 361.471 372.624 361.107 372.274C360.744 371.924 360.498 371.463 360.405 370.958C360.312 370.453 360.377 369.93 360.591 369.466L364.921 360.07L363.069 356.72L370.867 352.704L378.36 363.97Z" fill="#2F2E41"/>
<path d="M349.242 213.949L346.056 235.01L376.323 235.423L372.34 215.188L349.242 213.949Z" fill="#FFB6B6"/>
<path d="M346.934 229.868L337.295 256.485L336.749 306.81L336.721 309.447L336.343 318.58L353.331 350.167L364.766 342.27L350.988 315.543V315.467C350.988 310.55 353.245 294.993 357.066 292.082L363.778 278.166L369.147 311.291L381.699 357.796L390.821 358.064L386.971 314.146L386.616 308.397L385.241 304.477L385.021 300.919L385.888 296.596L384.089 267.429C384.089 267.429 385.733 247.95 377.319 236.456L375.27 230.32L346.934 229.868Z" fill="#2F2E41"/>
<path d="M384.666 262.725C384.274 262.283 383.98 261.758 383.806 261.185C383.631 260.613 383.58 260.008 383.655 259.413C383.73 258.817 383.93 258.247 384.242 257.74C384.553 257.234 384.967 256.805 385.455 256.482L382.21 242.283L389.079 244.886L391.107 257.97C391.575 258.857 391.713 259.891 391.495 260.876C391.276 261.861 390.717 262.728 389.923 263.315C389.129 263.901 388.155 264.164 387.186 264.056C386.217 263.947 385.321 263.474 384.666 262.725Z" fill="#FFB8B8"/>
<path d="M368.149 203.225L370.905 210.575C370.905 210.575 369.724 217.925 371.693 219.558C373.662 221.192 372.874 221.192 372.874 222.417C372.942 223.296 373.187 224.15 373.594 224.924C374.001 225.697 374.561 226.374 375.237 226.909C376.812 228.134 383.9 253.043 383.9 253.043H390.988C390.759 251.145 390.759 249.224 390.988 247.326C391.382 244.468 389.807 237.117 389.019 235.892C388.232 234.667 389.019 233.034 389.019 230.584C389.019 228.134 387.444 226.909 387.444 222.825C387.444 218.742 382.719 186.891 383.112 183.216C383.506 179.54 379.175 176.274 379.175 176.274H375.237L368.149 203.225Z" fill="#3F3D56"/>
<path d="M310.377 182.397C310.45 182.993 310.647 183.565 310.956 184.072C311.265 184.58 311.677 185.012 312.164 185.336C312.651 185.661 313.201 185.871 313.775 185.951C314.348 186.032 314.932 185.981 315.485 185.802L323.846 197.539L326.364 190.42L318.038 180.366C317.687 179.423 317.015 178.647 316.148 178.184C315.282 177.72 314.282 177.603 313.338 177.853C312.393 178.104 311.57 178.704 311.025 179.542C310.479 180.379 310.249 181.395 310.377 182.397Z" fill="#FFB8B8"/>
<path d="M344.351 221.831C344.324 221.781 344.311 221.725 344.313 221.668C344.314 221.611 344.331 221.555 344.361 221.507C344.934 220.46 347.63 193.836 349.302 176.197L349.323 175.974L349.539 175.981C349.584 175.982 353.944 176.068 357.789 171.625C358.291 171.043 358.352 169.705 358.416 168.287C358.495 166.561 358.576 164.776 359.465 163.854L359.503 163.814L359.555 163.796C363.297 162.503 369.615 163.339 371.494 163.79L371.575 163.809L371.626 163.879C372.402 164.941 372.359 166.642 372.318 168.286C372.281 169.765 372.246 171.162 372.878 171.583C373.367 171.909 373.837 172.221 374.288 172.519C379.85 176.197 382.641 178.044 384.686 184.053C385.435 186.253 385.674 188.099 385.396 189.539C384.196 195.762 386.203 226.907 386.5 228.14C386.702 228.721 386.992 229.265 387.361 229.749C387.858 230.492 388.288 231.133 388.04 231.623C387.872 231.957 387.436 232.113 386.67 232.113C383.781 232.113 345.192 223.461 344.351 221.831Z" fill="#3F3D56"/>
<path d="M326.865 203.625L326.801 203.582L326.078 201.651L322.669 200.751L316.534 188.027L321.413 183.473L327.98 187.445L330.371 190.761L333.335 191.972L340.283 197.286L346.551 179.412C346.881 178.47 347.401 177.612 348.075 176.894C348.749 176.176 349.563 175.615 350.463 175.248C351.362 174.881 352.326 174.717 353.292 174.766C354.257 174.815 355.201 175.076 356.062 175.532L362.838 179.122L362.896 179.166C363.004 179.278 365.536 181.974 365.106 186.903C364.702 191.522 361.474 199.003 348.366 208.424L340.85 212.809L326.865 203.625Z" fill="#3F3D56"/>
<path d="M354.303 155.622C355.698 158.267 357.921 160.341 360.604 161.502C363.288 162.663 366.272 162.841 369.067 162.008C371.861 161.174 374.298 159.379 375.977 156.918C377.656 154.456 378.477 151.475 378.304 148.465C378.131 145.455 376.974 142.597 375.025 140.359C373.076 138.122 370.45 136.64 367.58 136.157C364.71 135.674 361.767 136.219 359.235 137.703C356.704 139.186 354.735 141.519 353.653 144.317C353.595 144.469 353.542 144.621 353.489 144.779C352.877 146.543 352.634 148.422 352.774 150.291C352.914 152.16 353.436 153.977 354.303 155.622Z" fill="#FFB6B6"/>
<path d="M352.464 144.779C353.015 143.182 352.774 144.014 353.331 142.422C353.152 143.206 353.207 144.028 353.489 144.779H368.725V135.595C364.262 133.76 359.898 132.199 357.262 135.595C354.913 135.595 352.66 136.562 350.999 138.285C349.338 140.007 348.405 142.343 348.405 144.779H352.464Z" fill="#2F2E41"/>
<path d="M357.865 170.31C357.877 170.14 357.894 169.964 357.918 169.794C358.122 168.546 358.454 167.324 358.908 166.149C359.347 164.867 359.792 163.579 360.237 162.298C359.664 164.624 359.839 167.081 360.735 169.295C363.307 167.218 361.684 162.468 365.047 162.468C373.13 162.468 381.449 155.671 381.449 147.282C381.449 138.899 377.981 132.63 369.897 132.63C361.807 132.63 355.246 136.469 355.088 144.852C365.047 147.282 355.985 169.459 357.865 170.31Z" fill="#2F2E41"/>
<path d="M380.438 145.997C385.615 145.997 389.811 141.646 389.811 136.278C389.811 130.91 385.615 126.559 380.438 126.559C375.262 126.559 371.066 130.91 371.066 136.278C371.066 141.646 375.262 145.997 380.438 145.997Z" fill="#2F2E41"/>
<path d="M377.067 128.682L378.192 127.188C380.828 131.555 386.193 133.207 389.679 136.882C395.396 142.914 394.769 152.718 392.713 160.901C390.651 169.083 387.535 177.557 389.573 185.751C390.932 191.218 394.465 195.822 398.237 199.898C401.793 203.75 406.01 207.431 410.72 209.295C411.03 207.828 411.451 206.388 411.98 204.989C412.606 203.166 413.233 201.338 413.866 199.522C413.054 202.824 413.302 206.311 414.575 209.453C414.703 209.781 414.85 210.109 415.002 210.431C415.905 210.553 416.816 210.596 417.726 210.559C420.038 210.446 422.296 209.789 424.328 208.639C424.636 207.402 425.012 206.183 425.453 204.989C426.079 203.166 426.706 201.338 427.339 199.522C426.759 201.847 426.711 204.281 427.198 206.629C430.225 204.06 432.331 200.511 433.179 196.551C434.69 189.074 431.375 180.94 425.476 176.366C421.165 173.025 415.828 171.513 410.966 169.107C406.104 166.708 401.336 162.844 400.287 157.371C398.723 149.183 405.969 141.961 406.971 133.681C407.932 125.699 402.004 117.493 394.347 116.211C386.691 114.936 378.572 120.791 377.067 128.682Z" fill="#2F2E41"/>
<path d="M286.868 361.692C284.647 363.679 282.311 365.523 279.874 367.214C278.48 368.186 277.05 369.103 275.598 369.972C267.149 375.031 257.817 378.304 248.142 379.6H178.809C173.291 379.605 167.959 377.535 163.801 373.774C161.742 371.916 160.017 369.695 158.704 367.214C156.871 363.732 155.912 359.828 155.916 355.861V224.872C158.564 225.067 161.192 225.34 163.801 225.692C164.691 225.808 165.576 225.935 166.46 226.075C184.567 228.847 201.978 235.258 217.716 244.948C218.607 245.495 219.497 246.054 220.376 246.631C228.254 251.72 235.632 257.6 242.401 264.186C243.333 265.091 244.252 266.012 245.16 266.95C260.071 282.232 271.525 300.754 278.696 321.182C279.018 322.099 279.331 323.023 279.634 323.952C283.639 336.146 286.071 348.837 286.868 361.692Z" fill="#DD4F05"/>
<path opacity="0.2" d="M220.376 367.214C220.376 361.532 221.455 355.906 223.552 350.657C225.649 345.408 228.723 340.638 232.597 336.621C236.472 332.604 241.072 329.417 246.134 327.243C251.196 325.07 256.622 323.951 262.101 323.952H279.634C279.329 323.023 279.017 322.099 278.696 321.182H220.376V266.95H245.16C244.252 266.014 243.333 265.093 242.401 264.186H220.376V246.631C219.497 246.054 218.607 245.495 217.716 244.948V264.186H166.46V226.075C165.576 225.935 164.691 225.808 163.801 225.692V264.186H155.916V266.95H163.801V321.182H155.916V323.952H163.801V367.214H158.705C159.212 368.172 159.781 369.094 160.409 369.972H163.801V373.774C164.638 374.531 165.526 375.223 166.46 375.846V369.972H217.716V379.6H220.376V369.972H275.598C277.05 369.103 278.48 368.186 279.874 367.214L220.376 367.214ZM217.716 367.214H166.46V323.952H217.716V367.214ZM217.716 321.182H166.46V320.107C166.46 306.01 171.86 292.49 181.472 282.521C191.084 272.552 204.122 266.951 217.716 266.95V321.182Z" fill="black"/>
<path d="M208.642 294.108C208.643 296.398 207.91 298.622 206.559 300.433C205.208 302.243 203.316 303.537 201.179 304.111C199.041 304.685 196.781 304.506 194.752 303.603C192.724 302.701 191.042 301.124 189.971 299.123C188.9 297.121 188.501 294.807 188.836 292.544C189.171 290.281 190.221 288.198 191.822 286.622C193.422 285.045 195.483 284.065 197.679 283.834C199.876 283.604 202.084 284.137 203.956 285.349C202.008 287.711 200.393 290.347 199.159 293.179C201.354 290.902 204.161 289.367 207.213 288.775C208.152 290.383 208.647 292.228 208.642 294.108Z" fill="#2F2E41"/>
<path d="M242.606 353.043C241.044 351.425 240.045 349.314 239.766 347.043C239.487 344.773 239.943 342.47 241.063 340.497C242.183 338.524 243.903 336.993 245.953 336.144C248.003 335.295 250.267 335.176 252.39 335.806C254.512 336.437 256.372 337.78 257.678 339.626C258.984 341.471 259.662 343.715 259.605 346.003C259.548 348.292 258.76 350.496 257.364 352.269C255.968 354.042 254.043 355.285 251.892 355.8C251.659 352.702 251.004 349.654 249.946 346.746C249.946 349.966 249.008 353.11 247.253 355.766C245.493 355.317 243.885 354.375 242.606 353.043Z" fill="#2F2E41"/>
<path d="M301.651 67.3174H167.317C167.162 67.3138 167.014 67.2472 166.905 67.132C166.797 67.0167 166.736 66.8618 166.736 66.7006C166.736 66.5394 166.797 66.3845 166.905 66.2692C167.014 66.154 167.162 66.0874 167.317 66.0838H301.651C301.807 66.0874 301.955 66.154 302.063 66.2692C302.172 66.3845 302.233 66.5394 302.233 66.7006C302.233 66.8618 302.172 67.0167 302.063 67.132C301.955 67.2472 301.807 67.3138 301.651 67.3174Z" fill="white"/>
<path d="M177.498 62.9348C179.424 62.9348 180.984 61.2804 180.984 59.2397C180.984 57.1989 179.424 55.5446 177.498 55.5446C175.573 55.5446 174.013 57.1989 174.013 59.2397C174.013 61.2804 175.573 62.9348 177.498 62.9348Z" fill="white"/>
<path d="M189.54 62.9348C191.465 62.9348 193.026 61.2804 193.026 59.2397C193.026 57.1989 191.465 55.5446 189.54 55.5446C187.615 55.5446 186.054 57.1989 186.054 59.2397C186.054 61.2804 187.615 62.9348 189.54 62.9348Z" fill="white"/>
<path d="M201.581 62.9348C203.506 62.9348 205.067 61.2804 205.067 59.2397C205.067 57.1989 203.506 55.5446 201.581 55.5446C199.656 55.5446 198.096 57.1989 198.096 59.2397C198.096 61.2804 199.656 62.9348 201.581 62.9348Z" fill="white"/>
<path d="M294.401 56.4604H285.848C285.678 56.464 285.517 56.5363 285.398 56.6618C285.279 56.7874 285.213 56.9562 285.213 57.132C285.213 57.3079 285.279 57.4767 285.398 57.6023C285.517 57.7279 285.678 57.8002 285.848 57.8037H294.401C294.571 57.8002 294.732 57.7279 294.851 57.6023C294.97 57.4767 295.036 57.3079 295.036 57.132C295.036 56.9562 294.97 56.7874 294.851 56.6618C294.732 56.5363 294.571 56.464 294.401 56.4604Z" fill="white"/>
<path d="M294.401 58.9814H285.848C285.678 58.985 285.517 59.0573 285.398 59.1828C285.279 59.3084 285.213 59.4772 285.213 59.653C285.213 59.8289 285.279 59.9977 285.398 60.1233C285.517 60.2488 285.678 60.3211 285.848 60.3247H294.401C294.571 60.3211 294.732 60.2488 294.851 60.1233C294.97 59.9977 295.036 59.8289 295.036 59.653C295.036 59.4772 294.97 59.3084 294.851 59.1828C294.732 59.0573 294.571 58.985 294.401 58.9814Z" fill="white"/>
<path d="M294.401 61.4991H285.848C285.678 61.5027 285.517 61.575 285.398 61.7005C285.279 61.8261 285.213 61.9949 285.213 62.1708C285.213 62.3466 285.279 62.5154 285.398 62.641C285.517 62.7665 285.678 62.8389 285.848 62.8424H294.401C294.571 62.8389 294.732 62.7665 294.851 62.641C294.97 62.5154 295.036 62.3466 295.036 62.1708C295.036 61.9949 294.97 61.8261 294.851 61.7005C294.732 61.575 294.571 61.5027 294.401 61.4991Z" fill="white"/>
<ellipse cx="64" cy="74.5" rx="64" ry="62.5" fill="#DD4F05" fill-opacity="0.21"/>
<path d="M45.4235 81.3264L36.688 83.7147C36.688 83.7147 34.9068 83.469 36.596 80.4548C36.7476 80.1833 36.9277 79.8913 37.1393 79.5741L41.6665 76.8813L41.6244 76.5193L40.6605 68.2806L40.2878 65.0919L43.1292 61.8904L43.6717 61.2788L50.883 69.3632L50.8315 69.4782L47.817 76.082L45.4235 81.3264Z" fill="#FFB7B7"/>
<path d="M42.621 78.522L33.4053 80.9103C33.267 80.8922 33.1335 80.8407 33.0138 80.7591C32.894 80.6774 32.7907 80.5675 32.7107 80.4366C32.6306 80.3058 32.5757 80.1568 32.5494 79.9997C32.5231 79.8426 32.5262 79.6809 32.5584 79.5253C32.603 79.2174 32.6869 78.9187 32.8075 78.639C33.1001 77.9695 33.4606 77.342 33.8814 76.7697L38.6575 74.0769L38.0718 69.332L37.7801 66.9658L37.5913 65.4359L37.203 62.2874L40.7729 58.4744L44.6608 62.6049L48.3805 66.5587L47.8785 67.5997L47.28 68.8438L44.4076 74.8119L43.8223 76.0276L42.621 78.522Z" fill="#FFB7B7"/>
<path d="M58.5215 77.1389C58.5215 77.1389 55.1289 76.8782 53.86 74.228C53.4584 73.3513 53.3035 72.3517 53.4171 71.3685L52.0344 68.2124L50.0664 63.7155L45.0461 62.8003L44.7842 63.0686L41.144 66.8028L40.0303 67.9454L38.3105 69.7113L29.9703 78.267C29.6382 78.9501 29.2115 79.5657 28.7071 80.0896C28.2436 80.5862 27.7335 81.0216 27.1864 81.3877C25.595 82.4539 23.2161 83.2827 19.7954 82.8475L1.76243 88.3889L0 74.4251L15.1251 68.6832L37.3068 51.9305L52.2808 56.3551L59.2245 67.7391L58.5215 77.1389Z" fill="#FFB7B7"/>
<path d="M109.191 39.7778H45.9604C45.7174 39.7781 45.4845 39.8908 45.3127 40.0912C45.1409 40.2915 45.0442 40.5632 45.044 40.8466V84.5156C45.0442 84.799 45.1409 85.0706 45.3127 85.271C45.4845 85.4714 45.7174 85.5841 45.9604 85.5844H109.191C109.434 85.5841 109.667 85.4714 109.839 85.271C110.011 85.0706 110.107 84.7989 110.108 84.5156V40.8466C110.107 40.5632 110.011 40.2916 109.839 40.0912C109.667 39.8908 109.434 39.7781 109.191 39.7778Z" fill="white"/>
<path d="M109.191 39.7778H45.9604C45.7174 39.7781 45.4845 39.8908 45.3127 40.0912C45.1409 40.2915 45.0442 40.5632 45.044 40.8466V84.5156C45.0442 84.799 45.1409 85.0706 45.3127 85.271C45.4845 85.4714 45.7174 85.5841 45.9604 85.5844H109.191C109.434 85.5841 109.667 85.4714 109.839 85.271C110.011 85.0706 110.107 84.7989 110.108 84.5156V40.8466C110.107 40.5632 110.011 40.2916 109.839 40.0912C109.667 39.8908 109.434 39.7781 109.191 39.7778ZM109.846 84.5156C109.846 84.718 109.777 84.9122 109.654 85.0553C109.531 85.1985 109.365 85.2789 109.191 85.279H45.9604C45.7868 85.2789 45.6203 85.1985 45.4976 85.0553C45.3749 84.9122 45.3059 84.718 45.3058 84.5156V40.8466C45.3059 40.6441 45.3749 40.45 45.4976 40.3068C45.6203 40.1637 45.7868 40.0832 45.9604 40.0831H109.191C109.365 40.0832 109.531 40.1637 109.654 40.3068C109.777 40.45 109.846 40.6441 109.846 40.8466V84.5156Z" fill="#3F3D56"/>
<path d="M52.5513 45.3868C52.2214 45.3868 51.8988 45.3046 51.6245 45.1505C51.3501 44.9964 51.1363 44.7774 51.01 44.5212C50.8837 44.2649 50.8507 43.983 50.9151 43.711C50.9795 43.439 51.1383 43.1891 51.3717 42.993C51.605 42.7969 51.9022 42.6634 52.2259 42.6093C52.5495 42.5551 52.8849 42.5829 53.1898 42.689C53.4946 42.7952 53.7551 42.9749 53.9385 43.2055C54.1218 43.4361 54.2196 43.7072 54.2196 43.9846C54.2196 44.3564 54.0438 44.7131 53.731 44.9761C53.4181 45.2391 52.9938 45.3868 52.5513 45.3868ZM52.5513 42.816C52.2764 42.816 52.0076 42.8845 51.7789 43.0129C51.5503 43.1413 51.3721 43.3238 51.2669 43.5374C51.1617 43.7509 51.1341 43.9858 51.1878 44.2125C51.2414 44.4392 51.3738 44.6474 51.5683 44.8108C51.7627 44.9743 52.0104 45.0855 52.2801 45.1306C52.5498 45.1757 52.8293 45.1526 53.0833 45.0641C53.3374 44.9757 53.5545 44.8259 53.7073 44.6338C53.86 44.4416 53.9416 44.2157 53.9416 43.9846C53.9416 43.8311 53.9056 43.6791 53.8357 43.5374C53.7659 43.3956 53.6635 43.2668 53.5344 43.1583C53.4053 43.0498 53.252 42.9637 53.0833 42.905C52.9147 42.8462 52.7339 42.816 52.5513 42.816Z" fill="#DD4F05"/>
<path d="M50.0352 43.9845C50.0353 43.6928 50.117 43.4082 50.2689 43.1706C50.4209 42.933 50.6356 42.7542 50.883 42.659C50.6935 42.5861 50.4912 42.5648 50.2928 42.5967C50.0944 42.6287 49.9057 42.713 49.7425 42.8427C49.5793 42.9724 49.4462 43.1437 49.3544 43.3423C49.2626 43.5409 49.2147 43.7611 49.2147 43.9845C49.2147 44.208 49.2626 44.4282 49.3544 44.6268C49.4462 44.8254 49.5793 44.9967 49.7425 45.1264C49.9057 45.2561 50.0944 45.3404 50.2928 45.3724C50.4912 45.4043 50.6935 45.383 50.883 45.3101C50.6356 45.2149 50.4209 45.0361 50.2689 44.7985C50.117 44.5609 50.0353 44.2763 50.0352 43.9845Z" fill="#DD4F05"/>
<path d="M58.8074 65.0182C58.4757 65.0178 58.1577 64.8797 57.9231 64.6343C57.6885 64.3889 57.5566 64.0562 57.5562 63.7091V59.7819C57.5566 59.435 57.6886 59.1024 57.9232 58.8572C58.1578 58.6121 58.4758 58.4744 58.8074 58.4744C59.139 58.4744 59.457 58.6121 59.6917 58.8572C59.9263 59.1024 60.0583 59.435 60.0587 59.7819V63.7091C60.0583 64.0562 59.9263 64.3889 59.6918 64.6343C59.4572 64.8797 59.1392 65.0178 58.8074 65.0182Z" fill="#DD4F05"/>
<path d="M61.727 65.0182C61.2847 65.0178 60.8606 64.8797 60.5479 64.6343C60.2351 64.3889 60.0592 64.0562 60.0587 63.7091V59.7819C60.0592 59.435 60.2352 59.1024 60.548 58.8572C60.8608 58.6121 61.2849 58.4744 61.727 58.4744C62.1691 58.4744 62.5931 58.6121 62.9059 58.8572C63.2188 59.1024 63.3947 59.435 63.3953 59.7819V63.7091C63.3948 64.0562 63.2188 64.3889 62.9061 64.6343C62.5933 64.8797 62.1693 65.0178 61.727 65.0182Z" fill="#DD4F05"/>
<path d="M64.6465 65.0182C64.3147 65.0178 63.9967 64.8797 63.7621 64.6343C63.5276 64.3889 63.3956 64.0562 63.3952 63.7091V59.7819C63.3956 59.435 63.5276 59.1024 63.7622 58.8572C63.9968 58.6121 64.3149 58.4744 64.6465 58.4744C64.978 58.4744 65.2961 58.6121 65.5307 58.8572C65.7653 59.1024 65.8973 59.435 65.8977 59.7819V63.7091C65.8973 64.0562 65.7654 64.3889 65.5308 64.6343C65.2962 64.8797 64.9782 65.0178 64.6465 65.0182Z" fill="#DD4F05"/>
<path d="M69.6513 65.0182C69.3196 65.0178 69.0016 64.8797 68.767 64.6343C68.5324 64.3889 68.4005 64.0562 68.4001 63.7091V59.7819C68.4005 59.435 68.5325 59.1024 68.7671 58.8572C69.0017 58.6121 69.3198 58.4744 69.6513 58.4744C69.9829 58.4744 70.301 58.6121 70.5356 58.8572C70.7702 59.1024 70.9022 59.435 70.9026 59.7819V63.7091C70.9022 64.0562 70.7702 64.3889 70.5357 64.6343C70.3011 64.8797 69.9831 65.0178 69.6513 65.0182Z" fill="#DD4F05"/>
<path d="M72.5709 65.0182C72.1285 65.0178 71.7045 64.8797 71.3917 64.6343C71.079 64.3889 70.9031 64.0562 70.9026 63.7091V59.7819C70.9031 59.435 71.0791 59.1024 71.3919 58.8572C71.7047 58.6121 72.1287 58.4744 72.5709 58.4744C73.013 58.4744 73.437 58.6121 73.7498 58.8572C74.0626 59.1024 74.2386 59.435 74.2391 59.7819V63.7091C74.2386 64.0562 74.0627 64.3889 73.75 64.6343C73.4372 64.8797 73.0132 65.0178 72.5709 65.0182Z" fill="#DD4F05"/>
<path d="M75.9075 65.0182C75.6863 65.0178 75.4743 64.8797 75.3179 64.6343C75.1615 64.3889 75.0736 64.0562 75.0733 63.7091V59.7819C75.0736 59.435 75.1616 59.1024 75.318 58.8572C75.4744 58.6121 75.6864 58.4744 75.9075 58.4744C76.1285 58.4744 76.3406 58.6121 76.497 58.8572C76.6534 59.1024 76.7414 59.435 76.7416 59.7819V63.7091C76.7414 64.0562 76.6534 64.3889 76.497 64.6343C76.3407 64.8797 76.1286 65.0178 75.9075 65.0182Z" fill="#DD4F05"/>
<path d="M80.4953 65.0182C80.1636 65.0178 79.8455 64.8797 79.611 64.6343C79.3764 64.3889 79.2445 64.0562 79.2441 63.7091V59.7819C79.2445 59.435 79.3765 59.1024 79.6111 58.8572C79.8457 58.6121 80.1637 58.4744 80.4953 58.4744C80.8269 58.4744 81.1449 58.6121 81.3795 58.8572C81.6141 59.1024 81.7461 59.435 81.7465 59.7819V63.7091C81.7461 64.0562 81.6142 64.3889 81.3796 64.6343C81.1451 64.8797 80.827 65.0178 80.4953 65.0182Z" fill="#DD4F05"/>
<path d="M83.8318 65.0182C83.5001 65.0178 83.1821 64.8797 82.9475 64.6343C82.7129 64.3889 82.581 64.0562 82.5806 63.7091V59.7819C82.581 59.435 82.713 59.1024 82.9476 58.8572C83.1822 58.6121 83.5003 58.4744 83.8318 58.4744C84.1634 58.4744 84.4815 58.6121 84.7161 58.8572C84.9507 59.1024 85.0827 59.435 85.0831 59.7819V63.7091C85.0827 64.0562 84.9507 64.3889 84.7162 64.6343C84.4816 64.8797 84.1636 65.0178 83.8318 65.0182Z" fill="#DD4F05"/>
<path d="M87.1685 65.0182C87.0579 65.0178 86.9519 64.8797 86.8737 64.6343C86.7955 64.3889 86.7515 64.0562 86.7514 63.7091V59.7819C86.7515 59.435 86.7955 59.1024 86.8737 58.8572C86.9519 58.6121 87.0579 58.4744 87.1685 58.4744C87.279 58.4744 87.385 58.6121 87.4632 58.8572C87.5414 59.1024 87.5854 59.435 87.5856 59.7819V63.7091C87.5854 64.0562 87.5414 64.3889 87.4633 64.6343C87.3851 64.8797 87.2791 65.0178 87.1685 65.0182Z" fill="#DD4F05"/>
<path d="M91.7563 65.0182C91.5351 65.0178 91.3231 64.8797 91.1667 64.6343C91.0103 64.3889 90.9224 64.0562 90.9221 63.7091V59.7819C90.9224 59.435 91.0104 59.1024 91.1668 58.8572C91.3232 58.6121 91.5352 58.4744 91.7563 58.4744C91.9773 58.4744 92.1893 58.6121 92.3457 58.8572C92.5022 59.1024 92.5901 59.435 92.5904 59.7819V63.7091C92.5902 64.0562 92.5022 64.3889 92.3458 64.6343C92.1894 64.8797 91.9774 65.0178 91.7563 65.0182Z" fill="#DD4F05"/>
<path d="M95.0929 65.0182C94.8717 65.0178 94.6597 64.8797 94.5033 64.6343C94.3469 64.3889 94.259 64.0562 94.2587 63.7091V59.7819C94.259 59.435 94.347 59.1024 94.5034 58.8572C94.6598 58.6121 94.8718 58.4744 95.0929 58.4744C95.3139 58.4744 95.5259 58.6121 95.6824 58.8572C95.8388 59.1024 95.9268 59.435 95.927 59.7819V63.7091C95.9268 64.0562 95.8388 64.3889 95.6824 64.6343C95.5261 64.8797 95.314 65.0178 95.0929 65.0182Z" fill="#DD4F05"/>
<path d="M98.0124 65.0182C97.6807 65.0178 97.3626 64.8797 97.1281 64.6343C96.8935 64.3889 96.7615 64.0562 96.7612 63.7091V59.7819C96.7616 59.435 96.8936 59.1024 97.1282 58.8572C97.3628 58.6121 97.6808 58.4744 98.0124 58.4744C98.344 58.4744 98.662 58.6121 98.8966 58.8572C99.1312 59.1024 99.2632 59.435 99.2636 59.7819V63.7091C99.2632 64.0562 99.1313 64.3889 98.8967 64.6343C98.6622 64.8797 98.3441 65.0178 98.0124 65.0182Z" fill="#DD4F05"/>
<path d="M65.9845 80.9103H49.9643C49.8659 80.9105 49.7684 80.8864 49.6775 80.8395C49.5866 80.7926 49.5039 80.7238 49.4343 80.637C49.3647 80.5502 49.3095 80.447 49.2718 80.3335C49.2341 80.22 49.2147 80.0984 49.2147 79.9755C49.2147 79.8526 49.2341 79.7309 49.2718 79.6174C49.3095 79.5039 49.3647 79.4008 49.4343 79.314C49.5039 79.2271 49.5866 79.1583 49.6775 79.1114C49.7684 79.0645 49.8659 79.0405 49.9643 79.0407H65.9845C66.1828 79.041 66.3729 79.1397 66.513 79.3149C66.6531 79.4902 66.7318 79.7278 66.7318 79.9755C66.7318 80.2232 66.6531 80.4607 66.513 80.636C66.3729 80.8113 66.1828 80.9099 65.9845 80.9103Z" fill="#E6E6E6"/>
<path d="M61.7855 77.1709H55.8294C55.6237 77.1709 55.4264 77.0724 55.2809 76.8971C55.1355 76.7218 55.0538 76.484 55.0538 76.2361C55.0538 75.9882 55.1355 75.7504 55.2809 75.5751C55.4264 75.3998 55.6237 75.3013 55.8294 75.3013H61.7855C61.9912 75.3013 62.1885 75.3998 62.3339 75.5751C62.4794 75.7504 62.5611 75.9882 62.5611 76.2361C62.5611 76.484 62.4794 76.7218 62.3339 76.8971C62.1885 77.0724 61.9912 77.1709 61.7855 77.1709Z" fill="#E6E6E6"/>
<path opacity="0.15" d="M38.496 79.9754L38.3708 79.604L43.4739 76.6301L44.6905 71.0219L42.8567 69.0736L43.051 68.7575L45.044 70.8748L43.7317 76.9245L38.496 79.9754Z" fill="black"/>
<path opacity="0.1" d="M33.3403 78.5642L31.8278 79.3437L28.7777 79.6855C28.3004 80.1541 27.7752 80.5649 27.2118 80.9103L24.5371 80.8165L20.0196 80.6668L35.2919 66.8878L38.3708 67.6879C38.3708 67.6879 33.1977 78.8858 33.3403 78.5642Z" fill="black"/>
<path d="M53.1617 73.9466C52.7737 74.0332 52.3484 74.105 51.8783 74.1599C49.4518 74.4414 44.3223 74.8155 43.87 74.8419C40.8319 75.0078 38.9217 75.0058 38.9217 75.0058L32.5133 78.6255L31.0496 79.4526L19.1854 80.9103L35.2506 65.0182L37.1967 65.5724L40.4906 66.5122L44.1195 67.5473L47.2682 67.7116L51.3426 67.9236L54.6359 68.0952C55.2064 68.1181 55.746 68.4021 56.1367 68.885C56.5274 69.368 56.7375 70.0107 56.7212 70.6727C56.6695 71.9331 55.916 73.3257 53.1617 73.9466Z" fill="#FFB7B7"/>
<path opacity="0.15" d="M54.9235 73.4316C54.8543 73.413 53.2226 72.9629 52.7048 71.7031C52.3566 70.8561 52.6017 69.8651 53.4331 68.7575L53.8047 68.9721C53.0555 69.9703 52.8258 70.8438 53.1224 71.5683C53.5626 72.6438 55.0389 73.0544 55.0538 73.0584L54.9235 73.4316Z" fill="black"/>
<path opacity="0.15" d="M38.8063 75.37L33.152 78.5894L33.2993 78.9431L38.9537 75.7237L38.8063 75.37Z" fill="black"/>
<path opacity="0.15" d="M36.7025 66.1752L44.0959 62.2137L44.2099 62.6064L37.8209 66.0298L43.2507 67.4078L43.1936 67.8226L36.7025 66.1752Z" fill="black"/>
<ellipse cx="424" cy="373" rx="63" ry="58" fill="#DD4F05" fill-opacity="0.21"/>
<path d="M400.759 339.129L400.217 412.958C400.215 413.242 400.336 413.515 400.553 413.717C400.77 413.919 401.065 414.033 401.374 414.036L448.961 414.352C449.269 414.353 449.566 414.243 449.786 414.043C450.006 413.844 450.131 413.573 450.133 413.289L450.675 339.461C450.677 339.177 450.556 338.904 450.339 338.702C450.122 338.5 449.827 338.385 449.518 338.383L401.931 338.067C401.623 338.065 401.326 338.176 401.106 338.375C400.886 338.574 400.761 338.846 400.759 339.129Z" fill="white"/>
<path d="M400.759 339.129L400.217 412.958C400.215 413.242 400.336 413.515 400.553 413.717C400.77 413.919 401.065 414.033 401.374 414.036L448.961 414.352C449.269 414.353 449.566 414.243 449.786 414.043C450.006 413.844 450.131 413.573 450.133 413.289L450.675 339.461C450.677 339.177 450.556 338.904 450.339 338.702C450.122 338.5 449.827 338.385 449.518 338.383L401.931 338.067C401.623 338.065 401.326 338.176 401.106 338.375C400.886 338.574 400.761 338.846 400.759 339.129ZM449.516 338.689C449.736 338.69 449.947 338.772 450.102 338.917C450.257 339.061 450.344 339.256 450.342 339.458L449.8 413.287C449.799 413.49 449.71 413.684 449.553 413.826C449.396 413.968 449.184 414.047 448.963 414.046L401.376 413.73C401.156 413.728 400.945 413.647 400.79 413.502C400.635 413.358 400.549 413.163 400.55 412.96L401.092 339.131C401.093 338.929 401.182 338.735 401.339 338.593C401.496 338.45 401.709 338.371 401.929 338.373L449.516 338.689Z" fill="#3F3D56"/>
<path d="M406.386 405.303C406.383 405.688 406.291 406.064 406.12 406.383C405.95 406.703 405.71 406.951 405.429 407.096C405.149 407.242 404.842 407.279 404.546 407.201C404.25 407.124 403.979 406.937 403.767 406.663C403.556 406.389 403.413 406.041 403.356 405.663C403.3 405.284 403.333 404.893 403.452 404.538C403.57 404.183 403.768 403.88 404.021 403.667C404.274 403.455 404.57 403.343 404.872 403.345C405.277 403.347 405.665 403.555 405.948 403.922C406.232 404.29 406.39 404.786 406.386 405.303ZM403.584 405.284C403.582 405.605 403.654 405.92 403.792 406.188C403.93 406.455 404.128 406.665 404.36 406.789C404.591 406.914 404.847 406.948 405.095 406.887C405.342 406.826 405.57 406.672 405.75 406.447C405.93 406.221 406.053 405.932 406.104 405.618C406.156 405.303 406.133 404.976 406.039 404.679C405.945 404.382 405.783 404.127 405.575 403.948C405.367 403.768 405.122 403.671 404.87 403.669C404.703 403.668 404.537 403.709 404.382 403.79C404.226 403.87 404.085 403.989 403.966 404.139C403.846 404.289 403.751 404.467 403.686 404.664C403.62 404.86 403.586 405.071 403.584 405.284Z" fill="#DD4F05"/>
<path d="M404.836 408.231C404.518 408.228 404.209 408.131 403.951 407.952C403.694 407.773 403.501 407.521 403.399 407.231C403.318 407.452 403.293 407.688 403.326 407.92C403.359 408.152 403.45 408.373 403.59 408.564C403.729 408.756 403.915 408.912 404.131 409.021C404.346 409.13 404.586 409.187 404.829 409.189C405.073 409.19 405.313 409.136 405.53 409.03C405.748 408.924 405.935 408.77 406.078 408.581C406.221 408.391 406.314 408.171 406.351 407.94C406.387 407.708 406.366 407.472 406.288 407.25C406.182 407.538 405.985 407.788 405.725 407.964C405.465 408.139 405.154 408.233 404.836 408.231Z" fill="#DD4F05"/>
<path d="M427.832 398.14C427.829 398.528 427.676 398.898 427.406 399.17C427.137 399.442 426.773 399.594 426.395 399.592L422.115 399.563C421.737 399.56 421.376 399.404 421.111 399.128C420.846 398.852 420.698 398.48 420.701 398.093C420.704 397.706 420.857 397.335 421.126 397.063C421.395 396.791 421.759 396.639 422.137 396.641L426.416 396.67C426.794 396.673 427.156 396.829 427.421 397.105C427.687 397.38 427.834 397.753 427.832 398.14Z" fill="#DD4F05"/>
<path d="M427.857 394.731C427.853 395.248 427.699 395.742 427.429 396.105C427.159 396.469 426.794 396.672 426.416 396.67L422.137 396.642C421.759 396.638 421.398 396.431 421.133 396.063C420.869 395.696 420.722 395.2 420.726 394.684C420.73 394.168 420.884 393.673 421.153 393.31C421.423 392.946 421.787 392.743 422.165 392.745L426.445 392.774C426.823 392.777 427.184 392.985 427.449 393.352C427.714 393.719 427.86 394.215 427.857 394.731Z" fill="#DD4F05"/>
<path d="M427.882 391.322C427.879 391.71 427.726 392.08 427.456 392.352C427.187 392.624 426.823 392.776 426.445 392.774L422.165 392.746C421.787 392.743 421.426 392.586 421.161 392.31C420.896 392.035 420.748 391.662 420.751 391.275C420.754 390.888 420.907 390.518 421.176 390.245C421.445 389.973 421.809 389.821 422.187 389.823L426.466 389.852C426.844 389.855 427.206 390.011 427.471 390.287C427.737 390.563 427.884 390.935 427.882 391.322Z" fill="#DD4F05"/>
<path d="M427.925 385.479C427.922 385.866 427.768 386.236 427.499 386.509C427.23 386.781 426.866 386.932 426.488 386.93L422.208 386.902C421.83 386.899 421.469 386.742 421.204 386.467C420.939 386.191 420.791 385.819 420.794 385.431C420.797 385.044 420.95 384.674 421.219 384.402C421.488 384.129 421.852 383.978 422.23 383.98L426.509 384.008C426.887 384.011 427.249 384.168 427.514 384.443C427.78 384.719 427.927 385.091 427.925 385.479Z" fill="#DD4F05"/>
<path d="M427.95 382.07C427.946 382.586 427.792 383.081 427.522 383.444C427.251 383.807 426.887 384.01 426.509 384.009L422.23 383.98C421.852 383.977 421.491 383.769 421.226 383.402C420.962 383.035 420.815 382.539 420.819 382.022C420.823 381.506 420.977 381.012 421.246 380.649C421.516 380.285 421.88 380.082 422.258 380.084L426.538 380.112C426.916 380.115 427.277 380.323 427.542 380.69C427.806 381.057 427.953 381.553 427.95 382.07Z" fill="#DD4F05"/>
<path d="M427.979 378.174C427.976 378.432 427.824 378.679 427.555 378.86C427.286 379.041 426.923 379.141 426.545 379.139L422.265 379.11C421.887 379.107 421.526 379.002 421.26 378.818C420.994 378.633 420.846 378.385 420.848 378.127C420.85 377.869 421.001 377.622 421.27 377.441C421.538 377.26 421.902 377.16 422.28 377.162L426.559 377.191C426.937 377.193 427.299 377.298 427.565 377.483C427.831 377.667 427.98 377.916 427.979 378.174Z" fill="#DD4F05"/>
<path d="M428.018 372.817C428.015 373.205 427.861 373.575 427.592 373.847C427.323 374.119 426.959 374.271 426.581 374.269L422.301 374.241C421.923 374.238 421.562 374.081 421.297 373.805C421.031 373.53 420.884 373.157 420.887 372.77C420.89 372.383 421.043 372.012 421.312 371.74C421.581 371.468 421.944 371.316 422.322 371.318L426.602 371.347C426.98 371.35 427.342 371.506 427.607 371.782C427.873 372.058 428.02 372.43 428.018 372.817Z" fill="#DD4F05"/>
<path d="M428.046 368.921C428.043 369.309 427.89 369.679 427.621 369.951C427.351 370.223 426.987 370.375 426.609 370.373L422.33 370.345C421.952 370.342 421.59 370.185 421.325 369.909C421.06 369.634 420.913 369.261 420.916 368.874C420.918 368.487 421.071 368.116 421.34 367.844C421.609 367.572 421.973 367.42 422.351 367.422L426.631 367.451C427.009 367.454 427.37 367.61 427.636 367.886C427.901 368.162 428.049 368.534 428.046 368.921Z" fill="#DD4F05"/>
<path d="M428.075 365.026C428.074 365.155 427.922 365.278 427.654 365.367C427.386 365.457 427.023 365.506 426.645 365.503L422.365 365.475C421.987 365.472 421.625 365.418 421.359 365.325C421.092 365.232 420.943 365.107 420.944 364.978C420.945 364.849 421.096 364.726 421.364 364.637C421.632 364.547 421.994 364.498 422.373 364.501L426.652 364.529C427.03 364.532 427.392 364.586 427.659 364.679C427.926 364.772 428.075 364.897 428.075 365.026Z" fill="#DD4F05"/>
<path d="M428.114 359.669C428.112 359.927 427.96 360.174 427.691 360.355C427.422 360.535 427.059 360.636 426.681 360.633L422.401 360.605C422.023 360.602 421.661 360.497 421.396 360.313C421.13 360.128 420.982 359.88 420.983 359.622C420.985 359.363 421.137 359.117 421.406 358.936C421.674 358.755 422.037 358.655 422.415 358.657L426.695 358.685C427.073 358.688 427.435 358.793 427.701 358.978C427.967 359.162 428.116 359.411 428.114 359.669Z" fill="#DD4F05"/>
<path d="M428.143 355.773C428.141 356.031 427.988 356.278 427.72 356.459C427.451 356.64 427.087 356.74 426.709 356.738L422.43 356.709C422.052 356.706 421.69 356.601 421.424 356.417C421.158 356.232 421.01 355.984 421.012 355.726C421.014 355.468 421.166 355.221 421.434 355.04C421.703 354.859 422.066 354.759 422.444 354.761L426.723 354.789C427.102 354.792 427.464 354.897 427.73 355.082C427.996 355.266 428.144 355.515 428.143 355.773Z" fill="#DD4F05"/>
<path d="M428.168 352.364C428.165 352.751 428.011 353.122 427.742 353.394C427.473 353.666 427.109 353.818 426.731 353.816L422.451 353.787C422.073 353.784 421.712 353.628 421.447 353.352C421.182 353.076 421.034 352.704 421.037 352.317C421.04 351.93 421.193 351.559 421.462 351.287C421.731 351.015 422.095 350.863 422.473 350.865L426.752 350.894C427.13 350.896 427.492 351.053 427.757 351.329C428.023 351.604 428.17 351.977 428.168 352.364Z" fill="#DD4F05"/>
<path d="M445.211 389.875L445.074 408.581C445.073 408.696 445.046 408.809 444.994 408.915C444.943 409.021 444.867 409.117 444.772 409.197C444.676 409.278 444.564 409.342 444.44 409.385C444.316 409.428 444.183 409.45 444.049 409.449C443.915 409.448 443.783 409.425 443.659 409.38C443.536 409.335 443.424 409.27 443.33 409.188C443.236 409.106 443.162 409.009 443.111 408.903C443.061 408.796 443.036 408.682 443.037 408.567L443.174 389.862C443.176 389.63 443.285 389.409 443.477 389.247C443.67 389.084 443.929 388.994 444.199 388.996C444.469 388.998 444.727 389.091 444.917 389.256C445.107 389.421 445.213 389.644 445.211 389.875Z" fill="#E6E6E6"/>
<path d="M441.101 394.75L441.05 401.705C441.048 401.946 440.939 402.175 440.746 402.344C440.554 402.512 440.294 402.606 440.024 402.604C439.754 402.603 439.496 402.505 439.306 402.334C439.116 402.163 439.01 401.932 439.012 401.692L439.063 394.737C439.065 394.496 439.174 394.267 439.366 394.098C439.559 393.93 439.818 393.836 440.088 393.838C440.359 393.839 440.617 393.937 440.807 394.108C440.997 394.279 441.102 394.51 441.101 394.75Z" fill="#E6E6E6"/>
<path opacity="0.15" d="M436.967 402.736C436.946 402.817 436.442 404.719 435.064 405.314C434.138 405.715 433.061 405.421 431.861 404.442L432.098 404.01C433.179 404.892 434.129 405.167 434.921 404.826C436.097 404.319 436.557 402.598 436.561 402.581L436.967 402.736Z" fill="black"/>
</svg>
